<?xml version="1.0" encoding="utf-8" standalone="no"?>
<!DOCTYPE svg PUBLIC "-//W3C//DTD SVG 1.1//EN"
  "http://www.w3.org/Graphics/SVG/1.1/DTD/svg11.dtd">
<svg xmlns:xlink="http://www.w3.org/1999/xlink" width="398.020625pt" height="245.946406pt" viewBox="0 0 398.020625 245.946406" xmlns="http://www.w3.org/2000/svg" version="1.1">
 <metadata>
  <rdf:RDF xmlns:dc="http://purl.org/dc/elements/1.1/" xmlns:cc="http://creativecommons.org/ns#" xmlns:rdf="http://www.w3.org/1999/02/22-rdf-syntax-ns#">
   <cc:Work>
    <dc:type rdf:resource="http://purl.org/dc/dcmitype/StillImage"/>
    <dc:date>2026-06-03T15:52:20.618383</dc:date>
    <dc:format>image/svg+xml</dc:format>
    <dc:creator>
     <cc:Agent>
      <dc:title>Matplotlib v3.8.0, https://matplotlib.org/</dc:title>
     </cc:Agent>
    </dc:creator>
   </cc:Work>
  </rdf:RDF>
 </metadata>
 <defs>
  <style type="text/css">*{stroke-linejoin: round; stroke-linecap: butt}</style>
 </defs>
 <g id="figure_1">
  <g id="patch_1">
   <path d="M 0 245.946406 
L 398.020625 245.946406 
L 398.020625 0 
L 0 0 
z
" style="fill: #0e0e1c"/>
  </g>
  <g id="axes_1">
   <g id="patch_2">
    <path d="M 39.330625 209.357969 
L 390.820625 209.357969 
L 390.820625 23.077969 
L 39.330625 23.077969 
z
" style="fill: #13131f"/>
   </g>
   <g id="matplotlib.axis_1">
    <g id="xtick_1">
     <g id="line2d_1">
      <path d="M 39.330625 209.357969 
L 39.330625 23.077969 
" clip-path="url(#pbd27441d89)" style="fill: none; stroke: #26263a; stroke-width: 0.7; stroke-linecap: square"/>
     </g>
     <g id="line2d_2">
      <defs>
       <path id="mbcdc7c6d2f" d="M 0 0 
L 0 3.5 
" style="stroke: #b8c8e0; stroke-width: 0.8"/>
      </defs>
      <g>
       <use xlink:href="#mbcdc7c6d2f" x="39.330625" y="209.357969" style="fill: #b8c8e0; stroke: #b8c8e0; stroke-width: 0.8"/>
      </g>
     </g>
     <g id="text_1">
      <!-- 0 -->
      <g style="fill: #b8c8e0" transform="translate(36.4675 223.196562) scale(0.09 -0.09)">
       <defs>
        <path id="DejaVuSans-30" d="M 2034 4250 
Q 1547 4250 1301 3770 
Q 1056 3291 1056 2328 
Q 1056 1369 1301 889 
Q 1547 409 2034 409 
Q 2525 409 2770 889 
Q 3016 1369 3016 2328 
Q 3016 3291 2770 3770 
Q 2525 4250 2034 4250 
z
M 2034 4750 
Q 2819 4750 3233 4129 
Q 3647 3509 3647 2328 
Q 3647 1150 3233 529 
Q 2819 -91 2034 -91 
Q 1250 -91 836 529 
Q 422 1150 422 2328 
Q 422 3509 836 4129 
Q 1250 4750 2034 4750 
z
" transform="scale(0.015625)"/>
       </defs>
       <use xlink:href="#DejaVuSans-30"/>
      </g>
     </g>
    </g>
    <g id="xtick_2">
     <g id="line2d_3">
      <path d="M 97.920104 209.357969 
L 97.920104 23.077969 
" clip-path="url(#pbd27441d89)" style="fill: none; stroke: #26263a; stroke-width: 0.7; stroke-linecap: square"/>
     </g>
     <g id="line2d_4">
      <g>
       <use xlink:href="#mbcdc7c6d2f" x="97.920104" y="209.357969" style="fill: #b8c8e0; stroke: #b8c8e0; stroke-width: 0.8"/>
      </g>
     </g>
     <g id="text_2">
      <!-- 10 -->
      <g style="fill: #b8c8e0" transform="translate(92.193854 223.196562) scale(0.09 -0.09)">
       <defs>
        <path id="DejaVuSans-31" d="M 794 531 
L 1825 531 
L 1825 4091 
L 703 3866 
L 703 4441 
L 1819 4666 
L 2450 4666 
L 2450 531 
L 3481 531 
L 3481 0 
L 794 0 
L 794 531 
z
" transform="scale(0.015625)"/>
       </defs>
       <use xlink:href="#DejaVuSans-31"/>
       <use xlink:href="#DejaVuSans-30" x="63.623047"/>
      </g>
     </g>
    </g>
    <g id="xtick_3">
     <g id="line2d_5">
      <path d="M 156.509582 209.357969 
L 156.509582 23.077969 
" clip-path="url(#pbd27441d89)" style="fill: none; stroke: #26263a; stroke-width: 0.7; stroke-linecap: square"/>
     </g>
     <g id="line2d_6">
      <g>
       <use xlink:href="#mbcdc7c6d2f" x="156.509582" y="209.357969" style="fill: #b8c8e0; stroke: #b8c8e0; stroke-width: 0.8"/>
      </g>
     </g>
     <g id="text_3">
      <!-- 20 -->
      <g style="fill: #b8c8e0" transform="translate(150.783332 223.196562) scale(0.09 -0.09)">
       <defs>
        <path id="DejaVuSans-32" d="M 1228 531 
L 3431 531 
L 3431 0 
L 469 0 
L 469 531 
Q 828 903 1448 1529 
Q 2069 2156 2228 2338 
Q 2531 2678 2651 2914 
Q 2772 3150 2772 3378 
Q 2772 3750 2511 3984 
Q 2250 4219 1831 4219 
Q 1534 4219 1204 4116 
Q 875 4013 500 3803 
L 500 4441 
Q 881 4594 1212 4672 
Q 1544 4750 1819 4750 
Q 2544 4750 2975 4387 
Q 3406 4025 3406 3419 
Q 3406 3131 3298 2873 
Q 3191 2616 2906 2266 
Q 2828 2175 2409 1742 
Q 1991 1309 1228 531 
z
" transform="scale(0.015625)"/>
       </defs>
       <use xlink:href="#DejaVuSans-32"/>
       <use xlink:href="#DejaVuSans-30" x="63.623047"/>
      </g>
     </g>
    </g>
    <g id="xtick_4">
     <g id="line2d_7">
      <path d="M 215.099061 209.357969 
L 215.099061 23.077969 
" clip-path="url(#pbd27441d89)" style="fill: none; stroke: #26263a; stroke-width: 0.7; stroke-linecap: square"/>
     </g>
     <g id="line2d_8">
      <g>
       <use xlink:href="#mbcdc7c6d2f" x="215.099061" y="209.357969" style="fill: #b8c8e0; stroke: #b8c8e0; stroke-width: 0.8"/>
      </g>
     </g>
     <g id="text_4">
      <!-- 30 -->
      <g style="fill: #b8c8e0" transform="translate(209.372811 223.196562) scale(0.09 -0.09)">
       <defs>
        <path id="DejaVuSans-33" d="M 2597 2516 
Q 3050 2419 3304 2112 
Q 3559 1806 3559 1356 
Q 3559 666 3084 287 
Q 2609 -91 1734 -91 
Q 1441 -91 1130 -33 
Q 819 25 488 141 
L 488 750 
Q 750 597 1062 519 
Q 1375 441 1716 441 
Q 2309 441 2620 675 
Q 2931 909 2931 1356 
Q 2931 1769 2642 2001 
Q 2353 2234 1838 2234 
L 1294 2234 
L 1294 2753 
L 1863 2753 
Q 2328 2753 2575 2939 
Q 2822 3125 2822 3475 
Q 2822 3834 2567 4026 
Q 2313 4219 1838 4219 
Q 1578 4219 1281 4162 
Q 984 4106 628 3988 
L 628 4550 
Q 988 4650 1302 4700 
Q 1616 4750 1894 4750 
Q 2613 4750 3031 4423 
Q 3450 4097 3450 3541 
Q 3450 3153 3228 2886 
Q 3006 2619 2597 2516 
z
" transform="scale(0.015625)"/>
       </defs>
       <use xlink:href="#DejaVuSans-33"/>
       <use xlink:href="#DejaVuSans-30" x="63.623047"/>
      </g>
     </g>
    </g>
    <g id="xtick_5">
     <g id="line2d_9">
      <path d="M 273.688539 209.357969 
L 273.688539 23.077969 
" clip-path="url(#pbd27441d89)" style="fill: none; stroke: #26263a; stroke-width: 0.7; stroke-linecap: square"/>
     </g>
     <g id="line2d_10">
      <g>
       <use xlink:href="#mbcdc7c6d2f" x="273.688539" y="209.357969" style="fill: #b8c8e0; stroke: #b8c8e0; stroke-width: 0.8"/>
      </g>
     </g>
     <g id="text_5">
      <!-- 40 -->
      <g style="fill: #b8c8e0" transform="translate(267.962289 223.196562) scale(0.09 -0.09)">
       <defs>
        <path id="DejaVuSans-34" d="M 2419 4116 
L 825 1625 
L 2419 1625 
L 2419 4116 
z
M 2253 4666 
L 3047 4666 
L 3047 1625 
L 3713 1625 
L 3713 1100 
L 3047 1100 
L 3047 0 
L 2419 0 
L 2419 1100 
L 313 1100 
L 313 1709 
L 2253 4666 
z
" transform="scale(0.015625)"/>
       </defs>
       <use xlink:href="#DejaVuSans-34"/>
       <use xlink:href="#DejaVuSans-30" x="63.623047"/>
      </g>
     </g>
    </g>
    <g id="xtick_6">
     <g id="line2d_11">
      <path d="M 332.278018 209.357969 
L 332.278018 23.077969 
" clip-path="url(#pbd27441d89)" style="fill: none; stroke: #26263a; stroke-width: 0.7; stroke-linecap: square"/>
     </g>
     <g id="line2d_12">
      <g>
       <use xlink:href="#mbcdc7c6d2f" x="332.278018" y="209.357969" style="fill: #b8c8e0; stroke: #b8c8e0; stroke-width: 0.8"/>
      </g>
     </g>
     <g id="text_6">
      <!-- 50 -->
      <g style="fill: #b8c8e0" transform="translate(326.551768 223.196562) scale(0.09 -0.09)">
       <defs>
        <path id="DejaVuSans-35" d="M 691 4666 
L 3169 4666 
L 3169 4134 
L 1269 4134 
L 1269 2991 
Q 1406 3038 1543 3061 
Q 1681 3084 1819 3084 
Q 2600 3084 3056 2656 
Q 3513 2228 3513 1497 
Q 3513 744 3044 326 
Q 2575 -91 1722 -91 
Q 1428 -91 1123 -41 
Q 819 9 494 109 
L 494 744 
Q 775 591 1075 516 
Q 1375 441 1709 441 
Q 2250 441 2565 725 
Q 2881 1009 2881 1497 
Q 2881 1984 2565 2268 
Q 2250 2553 1709 2553 
Q 1456 2553 1204 2497 
Q 953 2441 691 2322 
L 691 4666 
z
" transform="scale(0.015625)"/>
       </defs>
       <use xlink:href="#DejaVuSans-35"/>
       <use xlink:href="#DejaVuSans-30" x="63.623047"/>
      </g>
     </g>
    </g>
    <g id="text_7">
     <!-- Time (s) -->
     <g style="fill: #b8c8e0" transform="translate(194.746719 236.666719) scale(0.1 -0.1)">
      <defs>
       <path id="DejaVuSans-54" d="M -19 4666 
L 3928 4666 
L 3928 4134 
L 2272 4134 
L 2272 0 
L 1638 0 
L 1638 4134 
L -19 4134 
L -19 4666 
z
" transform="scale(0.015625)"/>
       <path id="DejaVuSans-69" d="M 603 3500 
L 1178 3500 
L 1178 0 
L 603 0 
L 603 3500 
z
M 603 4863 
L 1178 4863 
L 1178 4134 
L 603 4134 
L 603 4863 
z
" transform="scale(0.015625)"/>
       <path id="DejaVuSans-6d" d="M 3328 2828 
Q 3544 3216 3844 3400 
Q 4144 3584 4550 3584 
Q 5097 3584 5394 3201 
Q 5691 2819 5691 2113 
L 5691 0 
L 5113 0 
L 5113 2094 
Q 5113 2597 4934 2840 
Q 4756 3084 4391 3084 
Q 3944 3084 3684 2787 
Q 3425 2491 3425 1978 
L 3425 0 
L 2847 0 
L 2847 2094 
Q 2847 2600 2669 2842 
Q 2491 3084 2119 3084 
Q 1678 3084 1418 2786 
Q 1159 2488 1159 1978 
L 1159 0 
L 581 0 
L 581 3500 
L 1159 3500 
L 1159 2956 
Q 1356 3278 1631 3431 
Q 1906 3584 2284 3584 
Q 2666 3584 2933 3390 
Q 3200 3197 3328 2828 
z
" transform="scale(0.015625)"/>
       <path id="DejaVuSans-65" d="M 3597 1894 
L 3597 1613 
L 953 1613 
Q 991 1019 1311 708 
Q 1631 397 2203 397 
Q 2534 397 2845 478 
Q 3156 559 3463 722 
L 3463 178 
Q 3153 47 2828 -22 
Q 2503 -91 2169 -91 
Q 1331 -91 842 396 
Q 353 884 353 1716 
Q 353 2575 817 3079 
Q 1281 3584 2069 3584 
Q 2775 3584 3186 3129 
Q 3597 2675 3597 1894 
z
M 3022 2063 
Q 3016 2534 2758 2815 
Q 2500 3097 2075 3097 
Q 1594 3097 1305 2825 
Q 1016 2553 972 2059 
L 3022 2063 
z
" transform="scale(0.015625)"/>
       <path id="DejaVuSans-20" transform="scale(0.015625)"/>
       <path id="DejaVuSans-28" d="M 1984 4856 
Q 1566 4138 1362 3434 
Q 1159 2731 1159 2009 
Q 1159 1288 1364 580 
Q 1569 -128 1984 -844 
L 1484 -844 
Q 1016 -109 783 600 
Q 550 1309 550 2009 
Q 550 2706 781 3412 
Q 1013 4119 1484 4856 
L 1984 4856 
z
" transform="scale(0.015625)"/>
       <path id="DejaVuSans-73" d="M 2834 3397 
L 2834 2853 
Q 2591 2978 2328 3040 
Q 2066 3103 1784 3103 
Q 1356 3103 1142 2972 
Q 928 2841 928 2578 
Q 928 2378 1081 2264 
Q 1234 2150 1697 2047 
L 1894 2003 
Q 2506 1872 2764 1633 
Q 3022 1394 3022 966 
Q 3022 478 2636 193 
Q 2250 -91 1575 -91 
Q 1294 -91 989 -36 
Q 684 19 347 128 
L 347 722 
Q 666 556 975 473 
Q 1284 391 1588 391 
Q 1994 391 2212 530 
Q 2431 669 2431 922 
Q 2431 1156 2273 1281 
Q 2116 1406 1581 1522 
L 1381 1569 
Q 847 1681 609 1914 
Q 372 2147 372 2553 
Q 372 3047 722 3315 
Q 1072 3584 1716 3584 
Q 2034 3584 2315 3537 
Q 2597 3491 2834 3397 
z
" transform="scale(0.015625)"/>
       <path id="DejaVuSans-29" d="M 513 4856 
L 1013 4856 
Q 1481 4119 1714 3412 
Q 1947 2706 1947 2009 
Q 1947 1309 1714 600 
Q 1481 -109 1013 -844 
L 513 -844 
Q 928 -128 1133 580 
Q 1338 1288 1338 2009 
Q 1338 2731 1133 3434 
Q 928 4138 513 4856 
z
" transform="scale(0.015625)"/>
      </defs>
      <use xlink:href="#DejaVuSans-54"/>
      <use xlink:href="#DejaVuSans-69" x="57.958984"/>
      <use xlink:href="#DejaVuSans-6d" x="85.742188"/>
      <use xlink:href="#DejaVuSans-65" x="183.154297"/>
      <use xlink:href="#DejaVuSans-20" x="244.677734"/>
      <use xlink:href="#DejaVuSans-28" x="276.464844"/>
      <use xlink:href="#DejaVuSans-73" x="315.478516"/>
      <use xlink:href="#DejaVuSans-29" x="367.578125"/>
     </g>
    </g>
   </g>
   <g id="matplotlib.axis_2">
    <g id="ytick_1">
     <g id="line2d_13">
      <path d="M 39.330625 209.357969 
L 390.820625 209.357969 
" clip-path="url(#pbd27441d89)" style="fill: none; stroke: #26263a; stroke-width: 0.7; stroke-linecap: square"/>
     </g>
     <g id="line2d_14">
      <defs>
       <path id="m9cd3822325" d="M 0 0 
L -3.5 0 
" style="stroke: #b8c8e0; stroke-width: 0.8"/>
      </defs>
      <g>
       <use xlink:href="#m9cd3822325" x="39.330625" y="209.357969" style="fill: #b8c8e0; stroke: #b8c8e0; stroke-width: 0.8"/>
      </g>
     </g>
     <g id="text_8">
      <!-- 0 -->
      <g style="fill: #b8c8e0" transform="translate(26.604375 212.777266) scale(0.09 -0.09)">
       <use xlink:href="#DejaVuSans-30"/>
      </g>
     </g>
    </g>
    <g id="ytick_2">
     <g id="line2d_15">
      <path d="M 39.330625 184.102394 
L 390.820625 184.102394 
" clip-path="url(#pbd27441d89)" style="fill: none; stroke: #26263a; stroke-width: 0.7; stroke-linecap: square"/>
     </g>
     <g id="line2d_16">
      <g>
       <use xlink:href="#m9cd3822325" x="39.330625" y="184.102394" style="fill: #b8c8e0; stroke: #b8c8e0; stroke-width: 0.8"/>
      </g>
     </g>
     <g id="text_9">
      <!-- 2 -->
      <g style="fill: #b8c8e0" transform="translate(26.604375 187.521691) scale(0.09 -0.09)">
       <use xlink:href="#DejaVuSans-32"/>
      </g>
     </g>
    </g>
    <g id="ytick_3">
     <g id="line2d_17">
      <path d="M 39.330625 158.846819 
L 390.820625 158.846819 
" clip-path="url(#pbd27441d89)" style="fill: none; stroke: #26263a; stroke-width: 0.7; stroke-linecap: square"/>
     </g>
     <g id="line2d_18">
      <g>
       <use xlink:href="#m9cd3822325" x="39.330625" y="158.846819" style="fill: #b8c8e0; stroke: #b8c8e0; stroke-width: 0.8"/>
      </g>
     </g>
     <g id="text_10">
      <!-- 4 -->
      <g style="fill: #b8c8e0" transform="translate(26.604375 162.266116) scale(0.09 -0.09)">
       <use xlink:href="#DejaVuSans-34"/>
      </g>
     </g>
    </g>
    <g id="ytick_4">
     <g id="line2d_19">
      <path d="M 39.330625 133.591244 
L 390.820625 133.591244 
" clip-path="url(#pbd27441d89)" style="fill: none; stroke: #26263a; stroke-width: 0.7; stroke-linecap: square"/>
     </g>
     <g id="line2d_20">
      <g>
       <use xlink:href="#m9cd3822325" x="39.330625" y="133.591244" style="fill: #b8c8e0; stroke: #b8c8e0; stroke-width: 0.8"/>
      </g>
     </g>
     <g id="text_11">
      <!-- 6 -->
      <g style="fill: #b8c8e0" transform="translate(26.604375 137.01054) scale(0.09 -0.09)">
       <defs>
        <path id="DejaVuSans-36" d="M 2113 2584 
Q 1688 2584 1439 2293 
Q 1191 2003 1191 1497 
Q 1191 994 1439 701 
Q 1688 409 2113 409 
Q 2538 409 2786 701 
Q 3034 994 3034 1497 
Q 3034 2003 2786 2293 
Q 2538 2584 2113 2584 
z
M 3366 4563 
L 3366 3988 
Q 3128 4100 2886 4159 
Q 2644 4219 2406 4219 
Q 1781 4219 1451 3797 
Q 1122 3375 1075 2522 
Q 1259 2794 1537 2939 
Q 1816 3084 2150 3084 
Q 2853 3084 3261 2657 
Q 3669 2231 3669 1497 
Q 3669 778 3244 343 
Q 2819 -91 2113 -91 
Q 1303 -91 875 529 
Q 447 1150 447 2328 
Q 447 3434 972 4092 
Q 1497 4750 2381 4750 
Q 2619 4750 2861 4703 
Q 3103 4656 3366 4563 
z
" transform="scale(0.015625)"/>
       </defs>
       <use xlink:href="#DejaVuSans-36"/>
      </g>
     </g>
    </g>
    <g id="ytick_5">
     <g id="line2d_21">
      <path d="M 39.330625 108.335669 
L 390.820625 108.335669 
" clip-path="url(#pbd27441d89)" style="fill: none; stroke: #26263a; stroke-width: 0.7; stroke-linecap: square"/>
     </g>
     <g id="line2d_22">
      <g>
       <use xlink:href="#m9cd3822325" x="39.330625" y="108.335669" style="fill: #b8c8e0; stroke: #b8c8e0; stroke-width: 0.8"/>
      </g>
     </g>
     <g id="text_12">
      <!-- 8 -->
      <g style="fill: #b8c8e0" transform="translate(26.604375 111.754965) scale(0.09 -0.09)">
       <defs>
        <path id="DejaVuSans-38" d="M 2034 2216 
Q 1584 2216 1326 1975 
Q 1069 1734 1069 1313 
Q 1069 891 1326 650 
Q 1584 409 2034 409 
Q 2484 409 2743 651 
Q 3003 894 3003 1313 
Q 3003 1734 2745 1975 
Q 2488 2216 2034 2216 
z
M 1403 2484 
Q 997 2584 770 2862 
Q 544 3141 544 3541 
Q 544 4100 942 4425 
Q 1341 4750 2034 4750 
Q 2731 4750 3128 4425 
Q 3525 4100 3525 3541 
Q 3525 3141 3298 2862 
Q 3072 2584 2669 2484 
Q 3125 2378 3379 2068 
Q 3634 1759 3634 1313 
Q 3634 634 3220 271 
Q 2806 -91 2034 -91 
Q 1263 -91 848 271 
Q 434 634 434 1313 
Q 434 1759 690 2068 
Q 947 2378 1403 2484 
z
M 1172 3481 
Q 1172 3119 1398 2916 
Q 1625 2713 2034 2713 
Q 2441 2713 2670 2916 
Q 2900 3119 2900 3481 
Q 2900 3844 2670 4047 
Q 2441 4250 2034 4250 
Q 1625 4250 1398 4047 
Q 1172 3844 1172 3481 
z
" transform="scale(0.015625)"/>
       </defs>
       <use xlink:href="#DejaVuSans-38"/>
      </g>
     </g>
    </g>
    <g id="ytick_6">
     <g id="line2d_23">
      <path d="M 39.330625 83.080094 
L 390.820625 83.080094 
" clip-path="url(#pbd27441d89)" style="fill: none; stroke: #26263a; stroke-width: 0.7; stroke-linecap: square"/>
     </g>
     <g id="line2d_24">
      <g>
       <use xlink:href="#m9cd3822325" x="39.330625" y="83.080094" style="fill: #b8c8e0; stroke: #b8c8e0; stroke-width: 0.8"/>
      </g>
     </g>
     <g id="text_13">
      <!-- 10 -->
      <g style="fill: #b8c8e0" transform="translate(20.878125 86.49939) scale(0.09 -0.09)">
       <use xlink:href="#DejaVuSans-31"/>
       <use xlink:href="#DejaVuSans-30" x="63.623047"/>
      </g>
     </g>
    </g>
    <g id="ytick_7">
     <g id="line2d_25">
      <path d="M 39.330625 57.824518 
L 390.820625 57.824518 
" clip-path="url(#pbd27441d89)" style="fill: none; stroke: #26263a; stroke-width: 0.7; stroke-linecap: square"/>
     </g>
     <g id="line2d_26">
      <g>
       <use xlink:href="#m9cd3822325" x="39.330625" y="57.824518" style="fill: #b8c8e0; stroke: #b8c8e0; stroke-width: 0.8"/>
      </g>
     </g>
     <g id="text_14">
      <!-- 12 -->
      <g style="fill: #b8c8e0" transform="translate(20.878125 61.243815) scale(0.09 -0.09)">
       <use xlink:href="#DejaVuSans-31"/>
       <use xlink:href="#DejaVuSans-32" x="63.623047"/>
      </g>
     </g>
    </g>
    <g id="ytick_8">
     <g id="line2d_27">
      <path d="M 39.330625 32.568943 
L 390.820625 32.568943 
" clip-path="url(#pbd27441d89)" style="fill: none; stroke: #26263a; stroke-width: 0.7; stroke-linecap: square"/>
     </g>
     <g id="line2d_28">
      <g>
       <use xlink:href="#m9cd3822325" x="39.330625" y="32.568943" style="fill: #b8c8e0; stroke: #b8c8e0; stroke-width: 0.8"/>
      </g>
     </g>
     <g id="text_15">
      <!-- 14 -->
      <g style="fill: #b8c8e0" transform="translate(20.878125 35.98824) scale(0.09 -0.09)">
       <use xlink:href="#DejaVuSans-31"/>
       <use xlink:href="#DejaVuSans-34" x="63.623047"/>
      </g>
     </g>
    </g>
    <g id="text_16">
     <!-- Cumulative path (m) -->
     <g style="fill: #b8c8e0" transform="translate(14.798438 168.072656) rotate(-90) scale(0.1 -0.1)">
      <defs>
       <path id="DejaVuSans-43" d="M 4122 4306 
L 4122 3641 
Q 3803 3938 3442 4084 
Q 3081 4231 2675 4231 
Q 1875 4231 1450 3742 
Q 1025 3253 1025 2328 
Q 1025 1406 1450 917 
Q 1875 428 2675 428 
Q 3081 428 3442 575 
Q 3803 722 4122 1019 
L 4122 359 
Q 3791 134 3420 21 
Q 3050 -91 2638 -91 
Q 1578 -91 968 557 
Q 359 1206 359 2328 
Q 359 3453 968 4101 
Q 1578 4750 2638 4750 
Q 3056 4750 3426 4639 
Q 3797 4528 4122 4306 
z
" transform="scale(0.015625)"/>
       <path id="DejaVuSans-75" d="M 544 1381 
L 544 3500 
L 1119 3500 
L 1119 1403 
Q 1119 906 1312 657 
Q 1506 409 1894 409 
Q 2359 409 2629 706 
Q 2900 1003 2900 1516 
L 2900 3500 
L 3475 3500 
L 3475 0 
L 2900 0 
L 2900 538 
Q 2691 219 2414 64 
Q 2138 -91 1772 -91 
Q 1169 -91 856 284 
Q 544 659 544 1381 
z
M 1991 3584 
L 1991 3584 
z
" transform="scale(0.015625)"/>
       <path id="DejaVuSans-6c" d="M 603 4863 
L 1178 4863 
L 1178 0 
L 603 0 
L 603 4863 
z
" transform="scale(0.015625)"/>
       <path id="DejaVuSans-61" d="M 2194 1759 
Q 1497 1759 1228 1600 
Q 959 1441 959 1056 
Q 959 750 1161 570 
Q 1363 391 1709 391 
Q 2188 391 2477 730 
Q 2766 1069 2766 1631 
L 2766 1759 
L 2194 1759 
z
M 3341 1997 
L 3341 0 
L 2766 0 
L 2766 531 
Q 2569 213 2275 61 
Q 1981 -91 1556 -91 
Q 1019 -91 701 211 
Q 384 513 384 1019 
Q 384 1609 779 1909 
Q 1175 2209 1959 2209 
L 2766 2209 
L 2766 2266 
Q 2766 2663 2505 2880 
Q 2244 3097 1772 3097 
Q 1472 3097 1187 3025 
Q 903 2953 641 2809 
L 641 3341 
Q 956 3463 1253 3523 
Q 1550 3584 1831 3584 
Q 2591 3584 2966 3190 
Q 3341 2797 3341 1997 
z
" transform="scale(0.015625)"/>
       <path id="DejaVuSans-74" d="M 1172 4494 
L 1172 3500 
L 2356 3500 
L 2356 3053 
L 1172 3053 
L 1172 1153 
Q 1172 725 1289 603 
Q 1406 481 1766 481 
L 2356 481 
L 2356 0 
L 1766 0 
Q 1100 0 847 248 
Q 594 497 594 1153 
L 594 3053 
L 172 3053 
L 172 3500 
L 594 3500 
L 594 4494 
L 1172 4494 
z
" transform="scale(0.015625)"/>
       <path id="DejaVuSans-76" d="M 191 3500 
L 800 3500 
L 1894 563 
L 2988 3500 
L 3597 3500 
L 2284 0 
L 1503 0 
L 191 3500 
z
" transform="scale(0.015625)"/>
       <path id="DejaVuSans-70" d="M 1159 525 
L 1159 -1331 
L 581 -1331 
L 581 3500 
L 1159 3500 
L 1159 2969 
Q 1341 3281 1617 3432 
Q 1894 3584 2278 3584 
Q 2916 3584 3314 3078 
Q 3713 2572 3713 1747 
Q 3713 922 3314 415 
Q 2916 -91 2278 -91 
Q 1894 -91 1617 61 
Q 1341 213 1159 525 
z
M 3116 1747 
Q 3116 2381 2855 2742 
Q 2594 3103 2138 3103 
Q 1681 3103 1420 2742 
Q 1159 2381 1159 1747 
Q 1159 1113 1420 752 
Q 1681 391 2138 391 
Q 2594 391 2855 752 
Q 3116 1113 3116 1747 
z
" transform="scale(0.015625)"/>
       <path id="DejaVuSans-68" d="M 3513 2113 
L 3513 0 
L 2938 0 
L 2938 2094 
Q 2938 2591 2744 2837 
Q 2550 3084 2163 3084 
Q 1697 3084 1428 2787 
Q 1159 2491 1159 1978 
L 1159 0 
L 581 0 
L 581 4863 
L 1159 4863 
L 1159 2956 
Q 1366 3272 1645 3428 
Q 1925 3584 2291 3584 
Q 2894 3584 3203 3211 
Q 3513 2838 3513 2113 
z
" transform="scale(0.015625)"/>
      </defs>
      <use xlink:href="#DejaVuSans-43"/>
      <use xlink:href="#DejaVuSans-75" x="69.824219"/>
      <use xlink:href="#DejaVuSans-6d" x="133.203125"/>
      <use xlink:href="#DejaVuSans-75" x="230.615234"/>
      <use xlink:href="#DejaVuSans-6c" x="293.994141"/>
      <use xlink:href="#DejaVuSans-61" x="321.777344"/>
      <use xlink:href="#DejaVuSans-74" x="383.056641"/>
      <use xlink:href="#DejaVuSans-69" x="422.265625"/>
      <use xlink:href="#DejaVuSans-76" x="450.048828"/>
      <use xlink:href="#DejaVuSans-65" x="509.228516"/>
      <use xlink:href="#DejaVuSans-20" x="570.751953"/>
      <use xlink:href="#DejaVuSans-70" x="602.539062"/>
      <use xlink:href="#DejaVuSans-61" x="666.015625"/>
      <use xlink:href="#DejaVuSans-74" x="727.294922"/>
      <use xlink:href="#DejaVuSans-68" x="766.503906"/>
      <use xlink:href="#DejaVuSans-20" x="829.882812"/>
      <use xlink:href="#DejaVuSans-28" x="861.669922"/>
      <use xlink:href="#DejaVuSans-6d" x="900.683594"/>
      <use xlink:href="#DejaVuSans-29" x="998.095703"/>
     </g>
    </g>
   </g>
   <g id="line2d_29">
    <path d="M 39.330625 209.357969 
L 41.088309 209.217789 
L 43.718977 208.989957 
L 44.896625 208.910253 
L 45.189573 207.0704 
L 45.48252 206.017326 
L 45.775468 204.081479 
L 46.65431 203.965985 
L 46.947257 203.686338 
L 47.240205 203.13498 
L 47.826099 203.116204 
L 48.124906 202.724171 
L 48.710801 194.346156 
L 49.296695 189.477544 
L 49.88259 189.272617 
L 52.513258 188.959286 
L 52.806205 187.805523 
L 53.099152 187.438874 
L 54.862696 187.343989 
L 55.155643 185.402777 
L 55.448591 185.402777 
L 56.034485 179.573857 
L 56.333292 177.680463 
L 56.626239 177.342994 
L 57.206275 177.23661 
L 57.499222 176.417868 
L 57.798029 175.146866 
L 58.090976 174.883177 
L 58.969818 174.809682 
L 59.555713 174.796926 
L 59.84866 174.393257 
L 60.147467 173.036911 
L 62.215675 172.922695 
L 62.508623 172.554153 
L 62.80157 170.572842 
L 63.094518 170.195815 
L 64.272166 170.134743 
L 65.151008 170.049642 
L 65.443956 167.950332 
L 65.736903 167.950332 
L 66.322798 161.360133 
L 66.621604 159.358006 
L 66.914552 158.913497 
L 67.500446 158.813645 
L 70.722868 158.490634 
L 71.015815 158.133583 
L 71.308762 157.978771 
L 72.193464 157.953477 
L 72.779358 156.628927 
L 73.365253 156.612579 
L 73.957007 156.261191 
L 76.007639 156.143733 
L 76.300586 155.994852 
L 81.884163 155.799437 
L 82.171252 155.473516 
L 83.641848 155.409912 
L 87.163075 155.257079 
L 87.743111 154.992791 
L 93.900865 154.783405 
L 94.193813 154.487019 
L 95.371461 154.419686 
L 95.957356 153.690873 
L 100.650373 153.505595 
L 103.292759 153.359116 
L 103.579847 153.048986 
L 105.050443 152.991152 
L 105.343391 152.988784 
L 105.636338 152.631636 
L 105.923426 152.03882 
L 107.394022 151.938605 
L 109.157566 151.87691 
L 109.450513 151.740875 
L 112.379987 151.584214 
L 112.960023 151.169662 
L 114.430619 151.096767 
L 115.608267 151.054426 
L 115.895356 150.48594 
L 116.487109 150.374628 
L 120.600091 150.224971 
L 122.363634 150.017104 
L 125.298967 149.906038 
L 125.591914 149.199383 
L 129.411948 148.994557 
L 129.997843 148.906608 
L 130.589597 148.334557 
L 131.46258 148.117339 
L 132.341422 148.009759 
L 132.63437 147.788959 
L 133.806159 147.541588 
L 134.099107 147.369988 
L 136.448545 147.182555 
L 136.747351 143.58182 
L 137.040298 143.58182 
L 137.333246 142.985608 
L 137.626193 139.977325 
L 137.925 138.710202 
L 138.217947 138.424322 
L 138.809701 138.291781 
L 139.975631 138.180973 
L 141.739175 138.001268 
L 142.325069 137.959795 
L 142.910964 137.594089 
L 144.38156 137.491745 
L 144.674508 137.337361 
L 144.967455 136.871545 
L 147.60984 136.748936 
L 147.902788 136.204631 
L 148.195735 135.951847 
L 149.660472 135.87302 
L 150.246367 135.301024 
L 155.531138 134.922929 
L 155.829944 134.688336 
L 157.880576 134.562526 
L 158.173523 131.151598 
L 158.466471 131.151598 
L 158.765277 130.530892 
L 159.058225 127.197227 
L 159.351172 126.281348 
L 159.942926 126.139199 
L 160.235873 126.114846 
L 160.52882 125.912543 
L 164.923031 125.397753 
L 166.99124 125.229219 
L 167.278328 125.227041 
L 167.864223 124.972705 
L 168.748924 124.951935 
L 169.036013 124.671835 
L 169.334819 123.957516 
L 171.684257 123.803059 
L 176.383133 123.646138 
L 176.676081 122.991684 
L 176.969028 122.782967 
L 182.833835 122.512935 
L 183.41973 122.391368 
L 185.189132 122.322387 
L 185.775027 121.503357 
L 193.989272 121.127443 
L 194.282219 120.484501 
L 195.752815 120.386104 
L 196.625798 120.235262 
L 196.918746 120.048586 
L 198.682289 119.983088 
L 198.969377 119.682701 
L 201.312956 119.564016 
L 202.197658 119.537889 
L 202.490605 119.226272 
L 208.648359 118.850759 
L 208.947166 118.565532 
L 210.986079 118.419456 
L 211.279027 117.771219 
L 213.921412 117.543981 
L 214.21436 116.951759 
L 217.430922 116.708113 
L 218.022676 116.114515 
L 220.079166 115.943649 
L 220.372114 115.227305 
L 221.549762 115.126919 
L 222.129798 113.680918 
L 222.416887 113.427128 
L 223.002781 113.313285 
L 224.473377 113.236437 
L 225.059272 112.591137 
L 226.524009 112.519405 
L 226.816957 111.974783 
L 227.402851 111.809413 
L 229.740571 111.690099 
L 230.033519 111.028604 
L 230.326466 110.708232 
L 230.91822 110.545359 
L 231.797062 110.509218 
L 232.095869 109.719743 
L 232.388816 109.324599 
L 233.261799 109.254811 
L 236.191273 109.160976 
L 236.478362 108.953841 
L 237.65601 108.837323 
L 237.948957 107.139821 
L 238.241905 107.139821 
L 238.534852 104.602449 
L 238.821941 101.084388 
L 239.120747 100.561764 
L 239.706642 100.443224 
L 239.99373 100.424151 
L 240.286678 100.225684 
L 240.579625 99.553671 
L 241.751415 99.457754 
L 242.337309 98.304183 
L 243.509099 98.22202 
L 245.266783 98.131212 
L 248.483346 97.970321 
L 249.06924 97.939058 
L 249.368047 97.692476 
L 249.655135 96.452819 
L 250.24103 96.361395 
L 251.119872 96.245447 
L 251.430396 96.04237 
L 254.635241 95.84287 
L 254.928188 95.591705 
L 256.099978 95.505632 
L 260.792995 95.312057 
L 261.091801 95.007937 
L 262.872922 94.906442 
L 267.249556 94.69633 
L 267.83545 94.579593 
L 269.00724 94.510846 
L 269.294328 94.296272 
L 269.587276 92.371237 
L 269.880223 92.279395 
L 270.173171 91.431521 
L 270.466118 91.154116 
L 270.759065 91.096966 
L 271.350819 89.466982 
L 271.936714 89.314691 
L 274.866188 89.19064 
L 275.153276 88.450958 
L 275.74503 88.263444 
L 277.215626 88.173773 
L 277.801521 87.32236 
L 278.97331 87.248898 
L 279.858011 87.196206 
L 280.443906 86.969778 
L 281.615696 86.935263 
L 281.908643 86.422366 
L 282.201591 82.270843 
L 282.494538 81.134498 
L 282.793344 77.643178 
L 283.080433 77.256966 
L 283.959275 77.149225 
L 288.353486 76.956542 
L 288.939381 76.917789 
L 289.531134 75.783821 
L 290.117029 75.768589 
L 290.702924 74.619684 
L 291.587625 74.539057 
L 293.644116 74.367812 
L 294.522958 74.209701 
L 294.815905 73.052178 
L 295.108853 72.899924 
L 305.379588 72.391678 
L 305.971342 71.953676 
L 308.033692 71.804886 
L 308.326639 71.116164 
L 309.791376 71.024023 
L 311.256113 70.91026 
L 311.54906 70.604422 
L 313.898499 70.494755 
L 314.197305 70.21384 
L 314.490252 69.530036 
L 314.7832 69.15282 
L 315.369094 69.028058 
L 316.540884 68.970841 
L 317.126779 67.479298 
L 317.718533 67.311349 
L 318.304427 67.245662 
L 318.597375 67.072914 
L 323.003304 66.892742 
L 323.882146 66.80482 
L 324.766847 66.737559 
L 325.053935 66.726963 
L 325.645689 66.271894 
L 327.409232 66.209864 
L 327.70218 66.120535 
L 327.995127 62.487807 
L 328.288074 62.487807 
L 328.586881 61.546398 
L 328.879828 58.703459 
L 329.75867 58.576525 
L 331.522214 58.491064 
L 333.572845 58.367605 
L 335.916425 58.26866 
L 337.387021 58.088577 
L 341.792949 57.91581 
L 342.378844 56.410709 
L 344.722423 56.227255 
L 349.41544 55.955362 
L 350.007194 55.854109 
L 350.886036 55.814604 
L 351.178984 54.244029 
L 351.471931 49.989954 
L 351.764879 48.432251 
L 352.057826 44.810391 
L 352.350773 44.344588 
L 353.235474 44.228483 
L 353.522563 44.203994 
L 353.821369 43.797328 
L 354.993159 43.605568 
L 356.176666 43.557678 
L 356.469614 43.180598 
L 357.055508 43.053759 
L 358.520245 42.916421 
L 358.813193 42.614396 
L 365.56856 42.263384 
L 366.447402 41.772656 
L 367.033297 41.762073 
L 367.619191 41.265364 
L 369.669823 41.192284 
L 370.255718 40.929747 
L 372.312209 40.856735 
L 372.605156 39.573124 
L 372.898103 39.573124 
L 373.191051 37.738818 
L 373.483998 34.57266 
L 373.776946 34.204133 
L 374.942876 34.107625 
L 375.53463 34.07447 
L 376.120525 33.832318 
L 380.227647 33.643521 
L 380.520595 33.433365 
L 382.875892 33.288248 
L 383.461786 32.992187 
L 386.397119 32.867334 
L 386.690067 32.636258 
L 389.057082 32.476629 
L 389.642976 32.459586 
L 389.935924 32.031619 
L 390.820625 31.948445 
L 390.820625 31.948445 
" clip-path="url(#pbd27441d89)" style="fill: none; stroke: #9bbcff; stroke-width: 2; stroke-linecap: square"/>
   </g>
   <g id="patch_3">
    <path d="M 39.330625 209.357969 
L 39.330625 23.077969 
" style="fill: none; stroke: #2d2d4a; stroke-width: 0.8; stroke-linejoin: miter; stroke-linecap: square"/>
   </g>
   <g id="patch_4">
    <path d="M 390.820625 209.357969 
L 390.820625 23.077969 
" style="fill: none; stroke: #2d2d4a; stroke-width: 0.8; stroke-linejoin: miter; stroke-linecap: square"/>
   </g>
   <g id="patch_5">
    <path d="M 39.330625 209.357969 
L 390.820625 209.357969 
" style="fill: none; stroke: #2d2d4a; stroke-width: 0.8; stroke-linejoin: miter; stroke-linecap: square"/>
   </g>
   <g id="patch_6">
    <path d="M 39.330625 23.077969 
L 390.820625 23.077969 
" style="fill: none; stroke: #2d2d4a; stroke-width: 0.8; stroke-linejoin: miter; stroke-linecap: square"/>
   </g>
   <g id="text_17">
    <!-- Gaze movement -->
    <g style="fill: #b8c8e0" transform="translate(156.098281 17.077969) scale(0.13 -0.13)">
     <defs>
      <path id="DejaVuSans-Bold-47" d="M 4781 347 
Q 4331 128 3847 18 
Q 3363 -91 2847 -91 
Q 1681 -91 1000 561 
Q 319 1213 319 2328 
Q 319 3456 1012 4103 
Q 1706 4750 2913 4750 
Q 3378 4750 3804 4662 
Q 4231 4575 4609 4403 
L 4609 3438 
Q 4219 3659 3833 3768 
Q 3447 3878 3059 3878 
Q 2341 3878 1952 3476 
Q 1563 3075 1563 2328 
Q 1563 1588 1938 1184 
Q 2313 781 3003 781 
Q 3191 781 3352 804 
Q 3513 828 3641 878 
L 3641 1784 
L 2906 1784 
L 2906 2591 
L 4781 2591 
L 4781 347 
z
" transform="scale(0.015625)"/>
      <path id="DejaVuSans-Bold-61" d="M 2106 1575 
Q 1756 1575 1579 1456 
Q 1403 1338 1403 1106 
Q 1403 894 1545 773 
Q 1688 653 1941 653 
Q 2256 653 2472 879 
Q 2688 1106 2688 1447 
L 2688 1575 
L 2106 1575 
z
M 3816 1997 
L 3816 0 
L 2688 0 
L 2688 519 
Q 2463 200 2181 54 
Q 1900 -91 1497 -91 
Q 953 -91 614 226 
Q 275 544 275 1050 
Q 275 1666 698 1953 
Q 1122 2241 2028 2241 
L 2688 2241 
L 2688 2328 
Q 2688 2594 2478 2717 
Q 2269 2841 1825 2841 
Q 1466 2841 1156 2769 
Q 847 2697 581 2553 
L 581 3406 
Q 941 3494 1303 3539 
Q 1666 3584 2028 3584 
Q 2975 3584 3395 3211 
Q 3816 2838 3816 1997 
z
" transform="scale(0.015625)"/>
      <path id="DejaVuSans-Bold-7a" d="M 366 3500 
L 3419 3500 
L 3419 2719 
L 1575 800 
L 3419 800 
L 3419 0 
L 288 0 
L 288 781 
L 2131 2700 
L 366 2700 
L 366 3500 
z
" transform="scale(0.015625)"/>
      <path id="DejaVuSans-Bold-65" d="M 4031 1759 
L 4031 1441 
L 1416 1441 
Q 1456 1047 1700 850 
Q 1944 653 2381 653 
Q 2734 653 3104 758 
Q 3475 863 3866 1075 
L 3866 213 
Q 3469 63 3072 -14 
Q 2675 -91 2278 -91 
Q 1328 -91 801 392 
Q 275 875 275 1747 
Q 275 2603 792 3093 
Q 1309 3584 2216 3584 
Q 3041 3584 3536 3087 
Q 4031 2591 4031 1759 
z
M 2881 2131 
Q 2881 2450 2695 2645 
Q 2509 2841 2209 2841 
Q 1884 2841 1681 2658 
Q 1478 2475 1428 2131 
L 2881 2131 
z
" transform="scale(0.015625)"/>
      <path id="DejaVuSans-Bold-20" transform="scale(0.015625)"/>
      <path id="DejaVuSans-Bold-6d" d="M 3781 2919 
Q 3994 3244 4286 3414 
Q 4578 3584 4928 3584 
Q 5531 3584 5847 3212 
Q 6163 2841 6163 2131 
L 6163 0 
L 5038 0 
L 5038 1825 
Q 5041 1866 5042 1909 
Q 5044 1953 5044 2034 
Q 5044 2406 4934 2573 
Q 4825 2741 4581 2741 
Q 4263 2741 4089 2478 
Q 3916 2216 3909 1719 
L 3909 0 
L 2784 0 
L 2784 1825 
Q 2784 2406 2684 2573 
Q 2584 2741 2328 2741 
Q 2006 2741 1831 2477 
Q 1656 2213 1656 1722 
L 1656 0 
L 531 0 
L 531 3500 
L 1656 3500 
L 1656 2988 
Q 1863 3284 2130 3434 
Q 2397 3584 2719 3584 
Q 3081 3584 3359 3409 
Q 3638 3234 3781 2919 
z
" transform="scale(0.015625)"/>
      <path id="DejaVuSans-Bold-6f" d="M 2203 2784 
Q 1831 2784 1636 2517 
Q 1441 2250 1441 1747 
Q 1441 1244 1636 976 
Q 1831 709 2203 709 
Q 2569 709 2762 976 
Q 2956 1244 2956 1747 
Q 2956 2250 2762 2517 
Q 2569 2784 2203 2784 
z
M 2203 3584 
Q 3106 3584 3614 3096 
Q 4122 2609 4122 1747 
Q 4122 884 3614 396 
Q 3106 -91 2203 -91 
Q 1297 -91 786 396 
Q 275 884 275 1747 
Q 275 2609 786 3096 
Q 1297 3584 2203 3584 
z
" transform="scale(0.015625)"/>
      <path id="DejaVuSans-Bold-76" d="M 97 3500 
L 1216 3500 
L 2088 1081 
L 2956 3500 
L 4078 3500 
L 2700 0 
L 1472 0 
L 97 3500 
z
" transform="scale(0.015625)"/>
      <path id="DejaVuSans-Bold-6e" d="M 4056 2131 
L 4056 0 
L 2931 0 
L 2931 347 
L 2931 1631 
Q 2931 2084 2911 2256 
Q 2891 2428 2841 2509 
Q 2775 2619 2662 2680 
Q 2550 2741 2406 2741 
Q 2056 2741 1856 2470 
Q 1656 2200 1656 1722 
L 1656 0 
L 538 0 
L 538 3500 
L 1656 3500 
L 1656 2988 
Q 1909 3294 2193 3439 
Q 2478 3584 2822 3584 
Q 3428 3584 3742 3212 
Q 4056 2841 4056 2131 
z
" transform="scale(0.015625)"/>
      <path id="DejaVuSans-Bold-74" d="M 1759 4494 
L 1759 3500 
L 2913 3500 
L 2913 2700 
L 1759 2700 
L 1759 1216 
Q 1759 972 1856 886 
Q 1953 800 2241 800 
L 2816 800 
L 2816 0 
L 1856 0 
Q 1194 0 917 276 
Q 641 553 641 1216 
L 641 2700 
L 84 2700 
L 84 3500 
L 641 3500 
L 641 4494 
L 1759 4494 
z
" transform="scale(0.015625)"/>
     </defs>
     <use xlink:href="#DejaVuSans-Bold-47"/>
     <use xlink:href="#DejaVuSans-Bold-61" x="82.080078"/>
     <use xlink:href="#DejaVuSans-Bold-7a" x="149.560547"/>
     <use xlink:href="#DejaVuSans-Bold-65" x="207.763672"/>
     <use xlink:href="#DejaVuSans-Bold-20" x="275.585938"/>
     <use xlink:href="#DejaVuSans-Bold-6d" x="310.400391"/>
     <use xlink:href="#DejaVuSans-Bold-6f" x="414.599609"/>
     <use xlink:href="#DejaVuSans-Bold-76" x="483.300781"/>
     <use xlink:href="#DejaVuSans-Bold-65" x="548.486328"/>
     <use xlink:href="#DejaVuSans-Bold-6d" x="616.308594"/>
     <use xlink:href="#DejaVuSans-Bold-65" x="720.507812"/>
     <use xlink:href="#DejaVuSans-Bold-6e" x="788.330078"/>
     <use xlink:href="#DejaVuSans-Bold-74" x="859.521484"/>
    </g>
   </g>
  </g>
 </g>
 <defs>
  <clipPath id="pbd27441d89">
   <rect x="39.330625" y="23.077969" width="351.49" height="186.28"/>
  </clipPath>
 </defs>
</svg>
