<?xml version="1.0" encoding="utf-8" standalone="no"?>
<!DOCTYPE svg PUBLIC "-//W3C//DTD SVG 1.1//EN"
  "http://www.w3.org/Graphics/SVG/1.1/DTD/svg11.dtd">
<svg xmlns:xlink="http://www.w3.org/1999/xlink" width="397.930625pt" height="245.844844pt" viewBox="0 0 397.930625 245.844844" xmlns="http://www.w3.org/2000/svg" version="1.1">
 <metadata>
  <rdf:RDF xmlns:dc="http://purl.org/dc/elements/1.1/" xmlns:cc="http://creativecommons.org/ns#" xmlns:rdf="http://www.w3.org/1999/02/22-rdf-syntax-ns#">
   <cc:Work>
    <dc:type rdf:resource="http://purl.org/dc/dcmitype/StillImage"/>
    <dc:date>2026-06-03T15:53:13.897312</dc:date>
    <dc:format>image/svg+xml</dc:format>
    <dc:creator>
     <cc:Agent>
      <dc:title>Matplotlib v3.8.0, https://matplotlib.org/</dc:title>
     </cc:Agent>
    </dc:creator>
   </cc:Work>
  </rdf:RDF>
 </metadata>
 <defs>
  <style type="text/css">*{stroke-linejoin: round; stroke-linecap: butt}</style>
 </defs>
 <g id="figure_1">
  <g id="patch_1">
   <path d="M 0 245.844844 
L 397.930625 245.844844 
L 397.930625 -0 
L 0 -0 
z
" style="fill: #0e0e1c"/>
  </g>
  <g id="axes_1">
   <g id="patch_2">
    <path d="M 39.330625 209.256406 
L 390.730625 209.256406 
L 390.730625 22.976406 
L 39.330625 22.976406 
z
" style="fill: #13131f"/>
   </g>
   <g id="matplotlib.axis_1">
    <g id="xtick_1">
     <g id="line2d_1">
      <path d="M 39.330625 209.256406 
L 39.330625 22.976406 
" clip-path="url(#p572c8e425a)" style="fill: none; stroke: #26263a; stroke-width: 0.7; stroke-linecap: square"/>
     </g>
     <g id="line2d_2">
      <defs>
       <path id="md7f9b4b359" d="M 0 0 
L 0 3.5 
" style="stroke: #b8c8e0; stroke-width: 0.8"/>
      </defs>
      <g>
       <use xlink:href="#md7f9b4b359" x="39.330625" y="209.256406" style="fill: #b8c8e0; stroke: #b8c8e0; stroke-width: 0.8"/>
      </g>
     </g>
     <g id="text_1">
      <!-- 0 -->
      <g style="fill: #b8c8e0" transform="translate(36.4675 223.095) scale(0.09 -0.09)">
       <defs>
        <path id="DejaVuSans-30" d="M 2034 4250 
Q 1547 4250 1301 3770 
Q 1056 3291 1056 2328 
Q 1056 1369 1301 889 
Q 1547 409 2034 409 
Q 2525 409 2770 889 
Q 3016 1369 3016 2328 
Q 3016 3291 2770 3770 
Q 2525 4250 2034 4250 
z
M 2034 4750 
Q 2819 4750 3233 4129 
Q 3647 3509 3647 2328 
Q 3647 1150 3233 529 
Q 2819 -91 2034 -91 
Q 1250 -91 836 529 
Q 422 1150 422 2328 
Q 422 3509 836 4129 
Q 1250 4750 2034 4750 
z
" transform="scale(0.015625)"/>
       </defs>
       <use xlink:href="#DejaVuSans-30"/>
      </g>
     </g>
    </g>
    <g id="xtick_2">
     <g id="line2d_3">
      <path d="M 97.94125 209.256406 
L 97.94125 22.976406 
" clip-path="url(#p572c8e425a)" style="fill: none; stroke: #26263a; stroke-width: 0.7; stroke-linecap: square"/>
     </g>
     <g id="line2d_4">
      <g>
       <use xlink:href="#md7f9b4b359" x="97.94125" y="209.256406" style="fill: #b8c8e0; stroke: #b8c8e0; stroke-width: 0.8"/>
      </g>
     </g>
     <g id="text_2">
      <!-- 10 -->
      <g style="fill: #b8c8e0" transform="translate(92.215 223.095) scale(0.09 -0.09)">
       <defs>
        <path id="DejaVuSans-31" d="M 794 531 
L 1825 531 
L 1825 4091 
L 703 3866 
L 703 4441 
L 1819 4666 
L 2450 4666 
L 2450 531 
L 3481 531 
L 3481 0 
L 794 0 
L 794 531 
z
" transform="scale(0.015625)"/>
       </defs>
       <use xlink:href="#DejaVuSans-31"/>
       <use xlink:href="#DejaVuSans-30" x="63.623047"/>
      </g>
     </g>
    </g>
    <g id="xtick_3">
     <g id="line2d_5">
      <path d="M 156.551874 209.256406 
L 156.551874 22.976406 
" clip-path="url(#p572c8e425a)" style="fill: none; stroke: #26263a; stroke-width: 0.7; stroke-linecap: square"/>
     </g>
     <g id="line2d_6">
      <g>
       <use xlink:href="#md7f9b4b359" x="156.551874" y="209.256406" style="fill: #b8c8e0; stroke: #b8c8e0; stroke-width: 0.8"/>
      </g>
     </g>
     <g id="text_3">
      <!-- 20 -->
      <g style="fill: #b8c8e0" transform="translate(150.825624 223.095) scale(0.09 -0.09)">
       <defs>
        <path id="DejaVuSans-32" d="M 1228 531 
L 3431 531 
L 3431 0 
L 469 0 
L 469 531 
Q 828 903 1448 1529 
Q 2069 2156 2228 2338 
Q 2531 2678 2651 2914 
Q 2772 3150 2772 3378 
Q 2772 3750 2511 3984 
Q 2250 4219 1831 4219 
Q 1534 4219 1204 4116 
Q 875 4013 500 3803 
L 500 4441 
Q 881 4594 1212 4672 
Q 1544 4750 1819 4750 
Q 2544 4750 2975 4387 
Q 3406 4025 3406 3419 
Q 3406 3131 3298 2873 
Q 3191 2616 2906 2266 
Q 2828 2175 2409 1742 
Q 1991 1309 1228 531 
z
" transform="scale(0.015625)"/>
       </defs>
       <use xlink:href="#DejaVuSans-32"/>
       <use xlink:href="#DejaVuSans-30" x="63.623047"/>
      </g>
     </g>
    </g>
    <g id="xtick_4">
     <g id="line2d_7">
      <path d="M 215.162499 209.256406 
L 215.162499 22.976406 
" clip-path="url(#p572c8e425a)" style="fill: none; stroke: #26263a; stroke-width: 0.7; stroke-linecap: square"/>
     </g>
     <g id="line2d_8">
      <g>
       <use xlink:href="#md7f9b4b359" x="215.162499" y="209.256406" style="fill: #b8c8e0; stroke: #b8c8e0; stroke-width: 0.8"/>
      </g>
     </g>
     <g id="text_4">
      <!-- 30 -->
      <g style="fill: #b8c8e0" transform="translate(209.436249 223.095) scale(0.09 -0.09)">
       <defs>
        <path id="DejaVuSans-33" d="M 2597 2516 
Q 3050 2419 3304 2112 
Q 3559 1806 3559 1356 
Q 3559 666 3084 287 
Q 2609 -91 1734 -91 
Q 1441 -91 1130 -33 
Q 819 25 488 141 
L 488 750 
Q 750 597 1062 519 
Q 1375 441 1716 441 
Q 2309 441 2620 675 
Q 2931 909 2931 1356 
Q 2931 1769 2642 2001 
Q 2353 2234 1838 2234 
L 1294 2234 
L 1294 2753 
L 1863 2753 
Q 2328 2753 2575 2939 
Q 2822 3125 2822 3475 
Q 2822 3834 2567 4026 
Q 2313 4219 1838 4219 
Q 1578 4219 1281 4162 
Q 984 4106 628 3988 
L 628 4550 
Q 988 4650 1302 4700 
Q 1616 4750 1894 4750 
Q 2613 4750 3031 4423 
Q 3450 4097 3450 3541 
Q 3450 3153 3228 2886 
Q 3006 2619 2597 2516 
z
" transform="scale(0.015625)"/>
       </defs>
       <use xlink:href="#DejaVuSans-33"/>
       <use xlink:href="#DejaVuSans-30" x="63.623047"/>
      </g>
     </g>
    </g>
    <g id="xtick_5">
     <g id="line2d_9">
      <path d="M 273.773124 209.256406 
L 273.773124 22.976406 
" clip-path="url(#p572c8e425a)" style="fill: none; stroke: #26263a; stroke-width: 0.7; stroke-linecap: square"/>
     </g>
     <g id="line2d_10">
      <g>
       <use xlink:href="#md7f9b4b359" x="273.773124" y="209.256406" style="fill: #b8c8e0; stroke: #b8c8e0; stroke-width: 0.8"/>
      </g>
     </g>
     <g id="text_5">
      <!-- 40 -->
      <g style="fill: #b8c8e0" transform="translate(268.046874 223.095) scale(0.09 -0.09)">
       <defs>
        <path id="DejaVuSans-34" d="M 2419 4116 
L 825 1625 
L 2419 1625 
L 2419 4116 
z
M 2253 4666 
L 3047 4666 
L 3047 1625 
L 3713 1625 
L 3713 1100 
L 3047 1100 
L 3047 0 
L 2419 0 
L 2419 1100 
L 313 1100 
L 313 1709 
L 2253 4666 
z
" transform="scale(0.015625)"/>
       </defs>
       <use xlink:href="#DejaVuSans-34"/>
       <use xlink:href="#DejaVuSans-30" x="63.623047"/>
      </g>
     </g>
    </g>
    <g id="xtick_6">
     <g id="line2d_11">
      <path d="M 332.383748 209.256406 
L 332.383748 22.976406 
" clip-path="url(#p572c8e425a)" style="fill: none; stroke: #26263a; stroke-width: 0.7; stroke-linecap: square"/>
     </g>
     <g id="line2d_12">
      <g>
       <use xlink:href="#md7f9b4b359" x="332.383748" y="209.256406" style="fill: #b8c8e0; stroke: #b8c8e0; stroke-width: 0.8"/>
      </g>
     </g>
     <g id="text_6">
      <!-- 50 -->
      <g style="fill: #b8c8e0" transform="translate(326.657498 223.095) scale(0.09 -0.09)">
       <defs>
        <path id="DejaVuSans-35" d="M 691 4666 
L 3169 4666 
L 3169 4134 
L 1269 4134 
L 1269 2991 
Q 1406 3038 1543 3061 
Q 1681 3084 1819 3084 
Q 2600 3084 3056 2656 
Q 3513 2228 3513 1497 
Q 3513 744 3044 326 
Q 2575 -91 1722 -91 
Q 1428 -91 1123 -41 
Q 819 9 494 109 
L 494 744 
Q 775 591 1075 516 
Q 1375 441 1709 441 
Q 2250 441 2565 725 
Q 2881 1009 2881 1497 
Q 2881 1984 2565 2268 
Q 2250 2553 1709 2553 
Q 1456 2553 1204 2497 
Q 953 2441 691 2322 
L 691 4666 
z
" transform="scale(0.015625)"/>
       </defs>
       <use xlink:href="#DejaVuSans-35"/>
       <use xlink:href="#DejaVuSans-30" x="63.623047"/>
      </g>
     </g>
    </g>
    <g id="text_7">
     <!-- Time (s) -->
     <g style="fill: #b8c8e0" transform="translate(194.701719 236.565156) scale(0.1 -0.1)">
      <defs>
       <path id="DejaVuSans-54" d="M -19 4666 
L 3928 4666 
L 3928 4134 
L 2272 4134 
L 2272 0 
L 1638 0 
L 1638 4134 
L -19 4134 
L -19 4666 
z
" transform="scale(0.015625)"/>
       <path id="DejaVuSans-69" d="M 603 3500 
L 1178 3500 
L 1178 0 
L 603 0 
L 603 3500 
z
M 603 4863 
L 1178 4863 
L 1178 4134 
L 603 4134 
L 603 4863 
z
" transform="scale(0.015625)"/>
       <path id="DejaVuSans-6d" d="M 3328 2828 
Q 3544 3216 3844 3400 
Q 4144 3584 4550 3584 
Q 5097 3584 5394 3201 
Q 5691 2819 5691 2113 
L 5691 0 
L 5113 0 
L 5113 2094 
Q 5113 2597 4934 2840 
Q 4756 3084 4391 3084 
Q 3944 3084 3684 2787 
Q 3425 2491 3425 1978 
L 3425 0 
L 2847 0 
L 2847 2094 
Q 2847 2600 2669 2842 
Q 2491 3084 2119 3084 
Q 1678 3084 1418 2786 
Q 1159 2488 1159 1978 
L 1159 0 
L 581 0 
L 581 3500 
L 1159 3500 
L 1159 2956 
Q 1356 3278 1631 3431 
Q 1906 3584 2284 3584 
Q 2666 3584 2933 3390 
Q 3200 3197 3328 2828 
z
" transform="scale(0.015625)"/>
       <path id="DejaVuSans-65" d="M 3597 1894 
L 3597 1613 
L 953 1613 
Q 991 1019 1311 708 
Q 1631 397 2203 397 
Q 2534 397 2845 478 
Q 3156 559 3463 722 
L 3463 178 
Q 3153 47 2828 -22 
Q 2503 -91 2169 -91 
Q 1331 -91 842 396 
Q 353 884 353 1716 
Q 353 2575 817 3079 
Q 1281 3584 2069 3584 
Q 2775 3584 3186 3129 
Q 3597 2675 3597 1894 
z
M 3022 2063 
Q 3016 2534 2758 2815 
Q 2500 3097 2075 3097 
Q 1594 3097 1305 2825 
Q 1016 2553 972 2059 
L 3022 2063 
z
" transform="scale(0.015625)"/>
       <path id="DejaVuSans-20" transform="scale(0.015625)"/>
       <path id="DejaVuSans-28" d="M 1984 4856 
Q 1566 4138 1362 3434 
Q 1159 2731 1159 2009 
Q 1159 1288 1364 580 
Q 1569 -128 1984 -844 
L 1484 -844 
Q 1016 -109 783 600 
Q 550 1309 550 2009 
Q 550 2706 781 3412 
Q 1013 4119 1484 4856 
L 1984 4856 
z
" transform="scale(0.015625)"/>
       <path id="DejaVuSans-73" d="M 2834 3397 
L 2834 2853 
Q 2591 2978 2328 3040 
Q 2066 3103 1784 3103 
Q 1356 3103 1142 2972 
Q 928 2841 928 2578 
Q 928 2378 1081 2264 
Q 1234 2150 1697 2047 
L 1894 2003 
Q 2506 1872 2764 1633 
Q 3022 1394 3022 966 
Q 3022 478 2636 193 
Q 2250 -91 1575 -91 
Q 1294 -91 989 -36 
Q 684 19 347 128 
L 347 722 
Q 666 556 975 473 
Q 1284 391 1588 391 
Q 1994 391 2212 530 
Q 2431 669 2431 922 
Q 2431 1156 2273 1281 
Q 2116 1406 1581 1522 
L 1381 1569 
Q 847 1681 609 1914 
Q 372 2147 372 2553 
Q 372 3047 722 3315 
Q 1072 3584 1716 3584 
Q 2034 3584 2315 3537 
Q 2597 3491 2834 3397 
z
" transform="scale(0.015625)"/>
       <path id="DejaVuSans-29" d="M 513 4856 
L 1013 4856 
Q 1481 4119 1714 3412 
Q 1947 2706 1947 2009 
Q 1947 1309 1714 600 
Q 1481 -109 1013 -844 
L 513 -844 
Q 928 -128 1133 580 
Q 1338 1288 1338 2009 
Q 1338 2731 1133 3434 
Q 928 4138 513 4856 
z
" transform="scale(0.015625)"/>
      </defs>
      <use xlink:href="#DejaVuSans-54"/>
      <use xlink:href="#DejaVuSans-69" x="57.958984"/>
      <use xlink:href="#DejaVuSans-6d" x="85.742188"/>
      <use xlink:href="#DejaVuSans-65" x="183.154297"/>
      <use xlink:href="#DejaVuSans-20" x="244.677734"/>
      <use xlink:href="#DejaVuSans-28" x="276.464844"/>
      <use xlink:href="#DejaVuSans-73" x="315.478516"/>
      <use xlink:href="#DejaVuSans-29" x="367.578125"/>
     </g>
    </g>
   </g>
   <g id="matplotlib.axis_2">
    <g id="ytick_1">
     <g id="line2d_13">
      <path d="M 39.330625 209.256406 
L 390.730625 209.256406 
" clip-path="url(#p572c8e425a)" style="fill: none; stroke: #26263a; stroke-width: 0.7; stroke-linecap: square"/>
     </g>
     <g id="line2d_14">
      <defs>
       <path id="m8a6045a3a3" d="M 0 0 
L -3.5 0 
" style="stroke: #b8c8e0; stroke-width: 0.8"/>
      </defs>
      <g>
       <use xlink:href="#m8a6045a3a3" x="39.330625" y="209.256406" style="fill: #b8c8e0; stroke: #b8c8e0; stroke-width: 0.8"/>
      </g>
     </g>
     <g id="text_8">
      <!-- 0 -->
      <g style="fill: #b8c8e0" transform="translate(26.604375 212.675703) scale(0.09 -0.09)">
       <use xlink:href="#DejaVuSans-30"/>
      </g>
     </g>
    </g>
    <g id="ytick_2">
     <g id="line2d_15">
      <path d="M 39.330625 175.650994 
L 390.730625 175.650994 
" clip-path="url(#p572c8e425a)" style="fill: none; stroke: #26263a; stroke-width: 0.7; stroke-linecap: square"/>
     </g>
     <g id="line2d_16">
      <g>
       <use xlink:href="#m8a6045a3a3" x="39.330625" y="175.650994" style="fill: #b8c8e0; stroke: #b8c8e0; stroke-width: 0.8"/>
      </g>
     </g>
     <g id="text_9">
      <!-- 10 -->
      <g style="fill: #b8c8e0" transform="translate(20.878125 179.070291) scale(0.09 -0.09)">
       <use xlink:href="#DejaVuSans-31"/>
       <use xlink:href="#DejaVuSans-30" x="63.623047"/>
      </g>
     </g>
    </g>
    <g id="ytick_3">
     <g id="line2d_17">
      <path d="M 39.330625 142.045582 
L 390.730625 142.045582 
" clip-path="url(#p572c8e425a)" style="fill: none; stroke: #26263a; stroke-width: 0.7; stroke-linecap: square"/>
     </g>
     <g id="line2d_18">
      <g>
       <use xlink:href="#m8a6045a3a3" x="39.330625" y="142.045582" style="fill: #b8c8e0; stroke: #b8c8e0; stroke-width: 0.8"/>
      </g>
     </g>
     <g id="text_10">
      <!-- 20 -->
      <g style="fill: #b8c8e0" transform="translate(20.878125 145.464879) scale(0.09 -0.09)">
       <use xlink:href="#DejaVuSans-32"/>
       <use xlink:href="#DejaVuSans-30" x="63.623047"/>
      </g>
     </g>
    </g>
    <g id="ytick_4">
     <g id="line2d_19">
      <path d="M 39.330625 108.44017 
L 390.730625 108.44017 
" clip-path="url(#p572c8e425a)" style="fill: none; stroke: #26263a; stroke-width: 0.7; stroke-linecap: square"/>
     </g>
     <g id="line2d_20">
      <g>
       <use xlink:href="#m8a6045a3a3" x="39.330625" y="108.44017" style="fill: #b8c8e0; stroke: #b8c8e0; stroke-width: 0.8"/>
      </g>
     </g>
     <g id="text_11">
      <!-- 30 -->
      <g style="fill: #b8c8e0" transform="translate(20.878125 111.859467) scale(0.09 -0.09)">
       <use xlink:href="#DejaVuSans-33"/>
       <use xlink:href="#DejaVuSans-30" x="63.623047"/>
      </g>
     </g>
    </g>
    <g id="ytick_5">
     <g id="line2d_21">
      <path d="M 39.330625 74.834758 
L 390.730625 74.834758 
" clip-path="url(#p572c8e425a)" style="fill: none; stroke: #26263a; stroke-width: 0.7; stroke-linecap: square"/>
     </g>
     <g id="line2d_22">
      <g>
       <use xlink:href="#m8a6045a3a3" x="39.330625" y="74.834758" style="fill: #b8c8e0; stroke: #b8c8e0; stroke-width: 0.8"/>
      </g>
     </g>
     <g id="text_12">
      <!-- 40 -->
      <g style="fill: #b8c8e0" transform="translate(20.878125 78.254055) scale(0.09 -0.09)">
       <use xlink:href="#DejaVuSans-34"/>
       <use xlink:href="#DejaVuSans-30" x="63.623047"/>
      </g>
     </g>
    </g>
    <g id="ytick_6">
     <g id="line2d_23">
      <path d="M 39.330625 41.229346 
L 390.730625 41.229346 
" clip-path="url(#p572c8e425a)" style="fill: none; stroke: #26263a; stroke-width: 0.7; stroke-linecap: square"/>
     </g>
     <g id="line2d_24">
      <g>
       <use xlink:href="#m8a6045a3a3" x="39.330625" y="41.229346" style="fill: #b8c8e0; stroke: #b8c8e0; stroke-width: 0.8"/>
      </g>
     </g>
     <g id="text_13">
      <!-- 50 -->
      <g style="fill: #b8c8e0" transform="translate(20.878125 44.648643) scale(0.09 -0.09)">
       <use xlink:href="#DejaVuSans-35"/>
       <use xlink:href="#DejaVuSans-30" x="63.623047"/>
      </g>
     </g>
    </g>
    <g id="text_14">
     <!-- Screen covered (%) -->
     <g style="fill: #b8c8e0" transform="translate(14.798438 165.173437) rotate(-90) scale(0.1 -0.1)">
      <defs>
       <path id="DejaVuSans-53" d="M 3425 4513 
L 3425 3897 
Q 3066 4069 2747 4153 
Q 2428 4238 2131 4238 
Q 1616 4238 1336 4038 
Q 1056 3838 1056 3469 
Q 1056 3159 1242 3001 
Q 1428 2844 1947 2747 
L 2328 2669 
Q 3034 2534 3370 2195 
Q 3706 1856 3706 1288 
Q 3706 609 3251 259 
Q 2797 -91 1919 -91 
Q 1588 -91 1214 -16 
Q 841 59 441 206 
L 441 856 
Q 825 641 1194 531 
Q 1563 422 1919 422 
Q 2459 422 2753 634 
Q 3047 847 3047 1241 
Q 3047 1584 2836 1778 
Q 2625 1972 2144 2069 
L 1759 2144 
Q 1053 2284 737 2584 
Q 422 2884 422 3419 
Q 422 4038 858 4394 
Q 1294 4750 2059 4750 
Q 2388 4750 2728 4690 
Q 3069 4631 3425 4513 
z
" transform="scale(0.015625)"/>
       <path id="DejaVuSans-63" d="M 3122 3366 
L 3122 2828 
Q 2878 2963 2633 3030 
Q 2388 3097 2138 3097 
Q 1578 3097 1268 2742 
Q 959 2388 959 1747 
Q 959 1106 1268 751 
Q 1578 397 2138 397 
Q 2388 397 2633 464 
Q 2878 531 3122 666 
L 3122 134 
Q 2881 22 2623 -34 
Q 2366 -91 2075 -91 
Q 1284 -91 818 406 
Q 353 903 353 1747 
Q 353 2603 823 3093 
Q 1294 3584 2113 3584 
Q 2378 3584 2631 3529 
Q 2884 3475 3122 3366 
z
" transform="scale(0.015625)"/>
       <path id="DejaVuSans-72" d="M 2631 2963 
Q 2534 3019 2420 3045 
Q 2306 3072 2169 3072 
Q 1681 3072 1420 2755 
Q 1159 2438 1159 1844 
L 1159 0 
L 581 0 
L 581 3500 
L 1159 3500 
L 1159 2956 
Q 1341 3275 1631 3429 
Q 1922 3584 2338 3584 
Q 2397 3584 2469 3576 
Q 2541 3569 2628 3553 
L 2631 2963 
z
" transform="scale(0.015625)"/>
       <path id="DejaVuSans-6e" d="M 3513 2113 
L 3513 0 
L 2938 0 
L 2938 2094 
Q 2938 2591 2744 2837 
Q 2550 3084 2163 3084 
Q 1697 3084 1428 2787 
Q 1159 2491 1159 1978 
L 1159 0 
L 581 0 
L 581 3500 
L 1159 3500 
L 1159 2956 
Q 1366 3272 1645 3428 
Q 1925 3584 2291 3584 
Q 2894 3584 3203 3211 
Q 3513 2838 3513 2113 
z
" transform="scale(0.015625)"/>
       <path id="DejaVuSans-6f" d="M 1959 3097 
Q 1497 3097 1228 2736 
Q 959 2375 959 1747 
Q 959 1119 1226 758 
Q 1494 397 1959 397 
Q 2419 397 2687 759 
Q 2956 1122 2956 1747 
Q 2956 2369 2687 2733 
Q 2419 3097 1959 3097 
z
M 1959 3584 
Q 2709 3584 3137 3096 
Q 3566 2609 3566 1747 
Q 3566 888 3137 398 
Q 2709 -91 1959 -91 
Q 1206 -91 779 398 
Q 353 888 353 1747 
Q 353 2609 779 3096 
Q 1206 3584 1959 3584 
z
" transform="scale(0.015625)"/>
       <path id="DejaVuSans-76" d="M 191 3500 
L 800 3500 
L 1894 563 
L 2988 3500 
L 3597 3500 
L 2284 0 
L 1503 0 
L 191 3500 
z
" transform="scale(0.015625)"/>
       <path id="DejaVuSans-64" d="M 2906 2969 
L 2906 4863 
L 3481 4863 
L 3481 0 
L 2906 0 
L 2906 525 
Q 2725 213 2448 61 
Q 2172 -91 1784 -91 
Q 1150 -91 751 415 
Q 353 922 353 1747 
Q 353 2572 751 3078 
Q 1150 3584 1784 3584 
Q 2172 3584 2448 3432 
Q 2725 3281 2906 2969 
z
M 947 1747 
Q 947 1113 1208 752 
Q 1469 391 1925 391 
Q 2381 391 2643 752 
Q 2906 1113 2906 1747 
Q 2906 2381 2643 2742 
Q 2381 3103 1925 3103 
Q 1469 3103 1208 2742 
Q 947 2381 947 1747 
z
" transform="scale(0.015625)"/>
       <path id="DejaVuSans-25" d="M 4653 2053 
Q 4381 2053 4226 1822 
Q 4072 1591 4072 1178 
Q 4072 772 4226 539 
Q 4381 306 4653 306 
Q 4919 306 5073 539 
Q 5228 772 5228 1178 
Q 5228 1588 5073 1820 
Q 4919 2053 4653 2053 
z
M 4653 2450 
Q 5147 2450 5437 2106 
Q 5728 1763 5728 1178 
Q 5728 594 5436 251 
Q 5144 -91 4653 -91 
Q 4153 -91 3862 251 
Q 3572 594 3572 1178 
Q 3572 1766 3864 2108 
Q 4156 2450 4653 2450 
z
M 1428 4353 
Q 1159 4353 1004 4120 
Q 850 3888 850 3481 
Q 850 3069 1003 2837 
Q 1156 2606 1428 2606 
Q 1700 2606 1854 2837 
Q 2009 3069 2009 3481 
Q 2009 3884 1853 4118 
Q 1697 4353 1428 4353 
z
M 4250 4750 
L 4750 4750 
L 1831 -91 
L 1331 -91 
L 4250 4750 
z
M 1428 4750 
Q 1922 4750 2215 4408 
Q 2509 4066 2509 3481 
Q 2509 2891 2217 2550 
Q 1925 2209 1428 2209 
Q 931 2209 642 2551 
Q 353 2894 353 3481 
Q 353 4063 643 4406 
Q 934 4750 1428 4750 
z
" transform="scale(0.015625)"/>
      </defs>
      <use xlink:href="#DejaVuSans-53"/>
      <use xlink:href="#DejaVuSans-63" x="63.476562"/>
      <use xlink:href="#DejaVuSans-72" x="118.457031"/>
      <use xlink:href="#DejaVuSans-65" x="157.320312"/>
      <use xlink:href="#DejaVuSans-65" x="218.84375"/>
      <use xlink:href="#DejaVuSans-6e" x="280.367188"/>
      <use xlink:href="#DejaVuSans-20" x="343.746094"/>
      <use xlink:href="#DejaVuSans-63" x="375.533203"/>
      <use xlink:href="#DejaVuSans-6f" x="430.513672"/>
      <use xlink:href="#DejaVuSans-76" x="491.695312"/>
      <use xlink:href="#DejaVuSans-65" x="550.875"/>
      <use xlink:href="#DejaVuSans-72" x="612.398438"/>
      <use xlink:href="#DejaVuSans-65" x="651.261719"/>
      <use xlink:href="#DejaVuSans-64" x="712.785156"/>
      <use xlink:href="#DejaVuSans-20" x="776.261719"/>
      <use xlink:href="#DejaVuSans-28" x="808.048828"/>
      <use xlink:href="#DejaVuSans-25" x="847.0625"/>
      <use xlink:href="#DejaVuSans-29" x="942.082031"/>
     </g>
    </g>
   </g>
   <g id="line2d_25">
    <path d="M 39.330625 208.256245 
L 39.623678 208.256245 
L 39.922592 207.256084 
L 44.617303 207.256084 
L 45.20341 205.255762 
L 45.789516 205.255762 
L 46.375622 203.25544 
L 46.961728 203.25544 
L 47.846749 200.254957 
L 48.731769 200.254957 
L 49.024822 199.254796 
L 49.312014 199.254796 
L 49.898121 197.254473 
L 50.77728 197.254473 
L 51.070333 196.254312 
L 53.432341 196.254312 
L 53.731255 195.254151 
L 56.374595 195.254151 
L 56.673509 194.25399 
L 60.196007 194.25399 
L 60.48906 193.253829 
L 61.069306 193.253829 
L 61.661273 191.253507 
L 61.954326 191.253507 
L 62.540432 189.253185 
L 63.712645 189.253185 
L 64.005698 188.253024 
L 69.298237 188.253024 
L 69.884344 186.252702 
L 75.458214 186.252702 
L 75.751267 185.25254 
L 81.624052 185.25254 
L 82.210158 183.252218 
L 83.095178 183.252218 
L 83.388232 182.252057 
L 84.566305 182.252057 
L 85.445464 179.251574 
L 87.209644 179.251574 
L 87.502697 178.251413 
L 88.387718 178.251413 
L 88.680771 177.251252 
L 89.852983 177.251252 
L 90.43909 175.25093 
L 93.668535 175.25093 
L 93.961588 174.250769 
L 94.254641 174.250769 
L 94.547694 173.250608 
L 103.9547 173.250608 
L 104.253614 172.250447 
L 106.6039 172.250447 
L 106.896953 171.250285 
L 111.890578 171.250285 
L 112.183631 170.250124 
L 114.240864 170.250124 
L 114.533917 169.249963 
L 142.1278 169.249963 
L 142.719767 167.249641 
L 143.01282 167.249641 
L 143.305873 166.24948 
L 147.121425 166.24948 
L 147.713392 164.249158 
L 148.299498 164.249158 
L 148.885605 162.248836 
L 150.356731 162.248836 
L 151.241752 159.248353 
L 154.465336 159.248353 
L 154.758389 158.248191 
L 155.338634 158.248191 
L 155.631687 157.24803 
L 155.930602 157.24803 
L 156.516708 155.247708 
L 160.050929 155.247708 
L 160.338121 154.247547 
L 167.090065 154.247547 
L 167.383118 153.247386 
L 170.905616 153.247386 
L 171.491722 151.247064 
L 172.663935 151.247064 
L 172.956988 150.246903 
L 174.422254 150.246903 
L 174.721168 149.246742 
L 176.77254 149.246742 
L 177.065593 148.246581 
L 177.645838 148.246581 
L 177.938891 147.24642 
L 182.926655 147.24642 
L 183.219708 146.246259 
L 184.391921 146.246259 
L 184.684974 145.246098 
L 194.672225 145.246098 
L 194.965278 144.245936 
L 209.934431 144.245936 
L 210.227484 143.245775 
L 210.520537 143.245775 
L 211.106644 141.245453 
L 211.399697 141.245453 
L 211.69275 140.245292 
L 212.870823 140.245292 
L 213.744122 137.244809 
L 216.967706 137.244809 
L 217.553812 135.244487 
L 220.19129 135.244487 
L 220.771536 133.244165 
L 221.07045 133.244165 
L 221.363503 132.244004 
L 221.656556 132.244004 
L 222.535715 129.24352 
L 223.414875 129.24352 
L 223.707928 128.243359 
L 227.236288 128.243359 
L 227.529341 127.243198 
L 229.293521 127.243198 
L 229.586574 126.243037 
L 232.224052 126.243037 
L 232.517105 125.242876 
L 235.160444 125.242876 
L 235.453497 124.242715 
L 236.930485 124.242715 
L 237.223538 123.242554 
L 240.447122 123.242554 
L 240.740175 122.242393 
L 241.326282 122.242393 
L 241.619335 121.242232 
L 242.498494 121.242232 
L 242.791547 120.242071 
L 244.262674 120.242071 
L 244.842919 118.241749 
L 247.199066 118.241749 
L 247.492119 117.241587 
L 247.785173 117.241587 
L 248.078226 116.241426 
L 250.721565 116.241426 
L 251.008757 115.241265 
L 256.87568 115.241265 
L 257.467648 113.240943 
L 258.633999 113.240943 
L 258.927052 112.240782 
L 260.697093 112.240782 
L 260.990146 111.240621 
L 263.633485 111.240621 
L 264.219592 109.240299 
L 264.512645 109.240299 
L 265.104612 107.239977 
L 266.862931 107.239977 
L 267.155984 106.239816 
L 267.449037 106.239816 
L 267.74209 105.239655 
L 269.207356 105.239655 
L 269.500409 104.239493 
L 271.563503 104.239493 
L 271.856556 103.239332 
L 272.448523 103.239332 
L 272.741577 102.239171 
L 274.798809 102.239171 
L 275.091863 101.23901 
L 280.085488 101.23901 
L 280.384402 100.238849 
L 281.550753 100.238849 
L 281.843807 99.238688 
L 284.194093 99.238688 
L 284.487146 98.238527 
L 294.474396 98.238527 
L 294.767449 97.238366 
L 296.824682 97.238366 
L 297.123596 96.238205 
L 303.283573 96.238205 
L 303.576626 95.238044 
L 306.817794 95.238044 
L 307.110847 94.237883 
L 308.869166 94.237883 
L 309.162219 93.237722 
L 319.143608 93.237722 
L 319.436661 92.237561 
L 320.608874 92.237561 
L 321.200841 90.237238 
L 322.074139 90.237238 
L 322.367192 89.237077 
L 325.303585 89.237077 
L 325.596638 88.236916 
L 327.354957 88.236916 
L 327.64801 87.236755 
L 328.820222 87.236755 
L 329.406328 85.236433 
L 333.227741 85.236433 
L 333.520794 84.236272 
L 334.399954 84.236272 
L 334.698868 83.236111 
L 337.623538 83.236111 
L 337.916591 82.23595 
L 339.381857 82.23595 
L 339.67491 81.235789 
L 340.852983 81.235789 
L 341.146037 80.235628 
L 341.43909 80.235628 
L 341.732143 79.235467 
L 342.32411 79.235467 
L 342.910216 77.235145 
L 344.375482 77.235145 
L 344.668535 76.234983 
L 357.592178 76.234983 
L 357.885231 75.234822 
L 359.350497 75.234822 
L 359.64355 74.234661 
L 361.987975 74.234661 
L 362.281028 73.2345 
L 363.160187 73.2345 
L 363.45324 72.234339 
L 365.21742 72.234339 
L 365.510473 71.234178 
L 365.797665 71.234178 
L 366.096579 70.234017 
L 369.619078 70.234017 
L 369.90627 69.233856 
L 376.658214 69.233856 
L 376.951267 68.233695 
L 378.703725 68.233695 
L 378.996778 67.233534 
L 380.16899 67.233534 
L 380.760958 65.233212 
L 384.277595 65.233212 
L 384.570648 64.233051 
L 388.380339 64.233051 
L 389.552551 60.232406 
L 390.730625 60.232406 
L 390.730625 60.232406 
" clip-path="url(#p572c8e425a)" style="fill: none; stroke: #9bbcff; stroke-width: 2; stroke-linecap: square"/>
   </g>
   <g id="patch_3">
    <path d="M 39.330625 209.256406 
L 39.330625 22.976406 
" style="fill: none; stroke: #2d2d4a; stroke-width: 0.8; stroke-linejoin: miter; stroke-linecap: square"/>
   </g>
   <g id="patch_4">
    <path d="M 390.730625 209.256406 
L 390.730625 22.976406 
" style="fill: none; stroke: #2d2d4a; stroke-width: 0.8; stroke-linejoin: miter; stroke-linecap: square"/>
   </g>
   <g id="patch_5">
    <path d="M 39.330625 209.256406 
L 390.730625 209.256406 
" style="fill: none; stroke: #2d2d4a; stroke-width: 0.8; stroke-linejoin: miter; stroke-linecap: square"/>
   </g>
   <g id="patch_6">
    <path d="M 39.330625 22.976406 
L 390.730625 22.976406 
" style="fill: none; stroke: #2d2d4a; stroke-width: 0.8; stroke-linejoin: miter; stroke-linecap: square"/>
   </g>
   <g id="text_15">
    <!-- Screen coverage -->
    <g style="fill: #b8c8e0" transform="translate(153.965156 16.976406) scale(0.13 -0.13)">
     <defs>
      <path id="DejaVuSans-Bold-53" d="M 3834 4519 
L 3834 3531 
Q 3450 3703 3084 3790 
Q 2719 3878 2394 3878 
Q 1963 3878 1756 3759 
Q 1550 3641 1550 3391 
Q 1550 3203 1689 3098 
Q 1828 2994 2194 2919 
L 2706 2816 
Q 3484 2659 3812 2340 
Q 4141 2022 4141 1434 
Q 4141 663 3683 286 
Q 3225 -91 2284 -91 
Q 1841 -91 1394 -6 
Q 947 78 500 244 
L 500 1259 
Q 947 1022 1364 901 
Q 1781 781 2169 781 
Q 2563 781 2772 912 
Q 2981 1044 2981 1288 
Q 2981 1506 2839 1625 
Q 2697 1744 2272 1838 
L 1806 1941 
Q 1106 2091 782 2419 
Q 459 2747 459 3303 
Q 459 4000 909 4375 
Q 1359 4750 2203 4750 
Q 2588 4750 2994 4692 
Q 3400 4634 3834 4519 
z
" transform="scale(0.015625)"/>
      <path id="DejaVuSans-Bold-63" d="M 3366 3391 
L 3366 2478 
Q 3138 2634 2908 2709 
Q 2678 2784 2431 2784 
Q 1963 2784 1702 2511 
Q 1441 2238 1441 1747 
Q 1441 1256 1702 982 
Q 1963 709 2431 709 
Q 2694 709 2930 787 
Q 3166 866 3366 1019 
L 3366 103 
Q 3103 6 2833 -42 
Q 2563 -91 2291 -91 
Q 1344 -91 809 395 
Q 275 881 275 1747 
Q 275 2613 809 3098 
Q 1344 3584 2291 3584 
Q 2566 3584 2833 3536 
Q 3100 3488 3366 3391 
z
" transform="scale(0.015625)"/>
      <path id="DejaVuSans-Bold-72" d="M 3138 2547 
Q 2991 2616 2845 2648 
Q 2700 2681 2553 2681 
Q 2122 2681 1889 2404 
Q 1656 2128 1656 1613 
L 1656 0 
L 538 0 
L 538 3500 
L 1656 3500 
L 1656 2925 
Q 1872 3269 2151 3426 
Q 2431 3584 2822 3584 
Q 2878 3584 2943 3579 
Q 3009 3575 3134 3559 
L 3138 2547 
z
" transform="scale(0.015625)"/>
      <path id="DejaVuSans-Bold-65" d="M 4031 1759 
L 4031 1441 
L 1416 1441 
Q 1456 1047 1700 850 
Q 1944 653 2381 653 
Q 2734 653 3104 758 
Q 3475 863 3866 1075 
L 3866 213 
Q 3469 63 3072 -14 
Q 2675 -91 2278 -91 
Q 1328 -91 801 392 
Q 275 875 275 1747 
Q 275 2603 792 3093 
Q 1309 3584 2216 3584 
Q 3041 3584 3536 3087 
Q 4031 2591 4031 1759 
z
M 2881 2131 
Q 2881 2450 2695 2645 
Q 2509 2841 2209 2841 
Q 1884 2841 1681 2658 
Q 1478 2475 1428 2131 
L 2881 2131 
z
" transform="scale(0.015625)"/>
      <path id="DejaVuSans-Bold-6e" d="M 4056 2131 
L 4056 0 
L 2931 0 
L 2931 347 
L 2931 1631 
Q 2931 2084 2911 2256 
Q 2891 2428 2841 2509 
Q 2775 2619 2662 2680 
Q 2550 2741 2406 2741 
Q 2056 2741 1856 2470 
Q 1656 2200 1656 1722 
L 1656 0 
L 538 0 
L 538 3500 
L 1656 3500 
L 1656 2988 
Q 1909 3294 2193 3439 
Q 2478 3584 2822 3584 
Q 3428 3584 3742 3212 
Q 4056 2841 4056 2131 
z
" transform="scale(0.015625)"/>
      <path id="DejaVuSans-Bold-20" transform="scale(0.015625)"/>
      <path id="DejaVuSans-Bold-6f" d="M 2203 2784 
Q 1831 2784 1636 2517 
Q 1441 2250 1441 1747 
Q 1441 1244 1636 976 
Q 1831 709 2203 709 
Q 2569 709 2762 976 
Q 2956 1244 2956 1747 
Q 2956 2250 2762 2517 
Q 2569 2784 2203 2784 
z
M 2203 3584 
Q 3106 3584 3614 3096 
Q 4122 2609 4122 1747 
Q 4122 884 3614 396 
Q 3106 -91 2203 -91 
Q 1297 -91 786 396 
Q 275 884 275 1747 
Q 275 2609 786 3096 
Q 1297 3584 2203 3584 
z
" transform="scale(0.015625)"/>
      <path id="DejaVuSans-Bold-76" d="M 97 3500 
L 1216 3500 
L 2088 1081 
L 2956 3500 
L 4078 3500 
L 2700 0 
L 1472 0 
L 97 3500 
z
" transform="scale(0.015625)"/>
      <path id="DejaVuSans-Bold-61" d="M 2106 1575 
Q 1756 1575 1579 1456 
Q 1403 1338 1403 1106 
Q 1403 894 1545 773 
Q 1688 653 1941 653 
Q 2256 653 2472 879 
Q 2688 1106 2688 1447 
L 2688 1575 
L 2106 1575 
z
M 3816 1997 
L 3816 0 
L 2688 0 
L 2688 519 
Q 2463 200 2181 54 
Q 1900 -91 1497 -91 
Q 953 -91 614 226 
Q 275 544 275 1050 
Q 275 1666 698 1953 
Q 1122 2241 2028 2241 
L 2688 2241 
L 2688 2328 
Q 2688 2594 2478 2717 
Q 2269 2841 1825 2841 
Q 1466 2841 1156 2769 
Q 847 2697 581 2553 
L 581 3406 
Q 941 3494 1303 3539 
Q 1666 3584 2028 3584 
Q 2975 3584 3395 3211 
Q 3816 2838 3816 1997 
z
" transform="scale(0.015625)"/>
      <path id="DejaVuSans-Bold-67" d="M 2919 594 
Q 2688 288 2409 144 
Q 2131 0 1766 0 
Q 1125 0 706 504 
Q 288 1009 288 1791 
Q 288 2575 706 3076 
Q 1125 3578 1766 3578 
Q 2131 3578 2409 3434 
Q 2688 3291 2919 2981 
L 2919 3500 
L 4044 3500 
L 4044 353 
Q 4044 -491 3511 -936 
Q 2978 -1381 1966 -1381 
Q 1638 -1381 1331 -1331 
Q 1025 -1281 716 -1178 
L 716 -306 
Q 1009 -475 1290 -558 
Q 1572 -641 1856 -641 
Q 2406 -641 2662 -400 
Q 2919 -159 2919 353 
L 2919 594 
z
M 2181 2772 
Q 1834 2772 1640 2515 
Q 1447 2259 1447 1791 
Q 1447 1309 1634 1061 
Q 1822 813 2181 813 
Q 2531 813 2725 1069 
Q 2919 1325 2919 1791 
Q 2919 2259 2725 2515 
Q 2531 2772 2181 2772 
z
" transform="scale(0.015625)"/>
     </defs>
     <use xlink:href="#DejaVuSans-Bold-53"/>
     <use xlink:href="#DejaVuSans-Bold-63" x="72.021484"/>
     <use xlink:href="#DejaVuSans-Bold-72" x="131.298828"/>
     <use xlink:href="#DejaVuSans-Bold-65" x="180.615234"/>
     <use xlink:href="#DejaVuSans-Bold-65" x="248.4375"/>
     <use xlink:href="#DejaVuSans-Bold-6e" x="316.259766"/>
     <use xlink:href="#DejaVuSans-Bold-20" x="387.451172"/>
     <use xlink:href="#DejaVuSans-Bold-63" x="422.265625"/>
     <use xlink:href="#DejaVuSans-Bold-6f" x="481.542969"/>
     <use xlink:href="#DejaVuSans-Bold-76" x="550.244141"/>
     <use xlink:href="#DejaVuSans-Bold-65" x="615.429688"/>
     <use xlink:href="#DejaVuSans-Bold-72" x="683.251953"/>
     <use xlink:href="#DejaVuSans-Bold-61" x="732.568359"/>
     <use xlink:href="#DejaVuSans-Bold-67" x="800.048828"/>
     <use xlink:href="#DejaVuSans-Bold-65" x="871.630859"/>
    </g>
   </g>
  </g>
 </g>
 <defs>
  <clipPath id="p572c8e425a">
   <rect x="39.330625" y="22.976406" width="351.4" height="186.28"/>
  </clipPath>
 </defs>
</svg>
