<?xml version="1.0" encoding="utf-8" standalone="no"?>
<!DOCTYPE svg PUBLIC "-//W3C//DTD SVG 1.1//EN"
  "http://www.w3.org/Graphics/SVG/1.1/DTD/svg11.dtd">
<svg xmlns:xlink="http://www.w3.org/1999/xlink" width="398.020625pt" height="245.946406pt" viewBox="0 0 398.020625 245.946406" xmlns="http://www.w3.org/2000/svg" version="1.1">
 <metadata>
  <rdf:RDF xmlns:dc="http://purl.org/dc/elements/1.1/" xmlns:cc="http://creativecommons.org/ns#" xmlns:rdf="http://www.w3.org/1999/02/22-rdf-syntax-ns#">
   <cc:Work>
    <dc:type rdf:resource="http://purl.org/dc/dcmitype/StillImage"/>
    <dc:date>2026-06-03T15:53:13.362303</dc:date>
    <dc:format>image/svg+xml</dc:format>
    <dc:creator>
     <cc:Agent>
      <dc:title>Matplotlib v3.8.0, https://matplotlib.org/</dc:title>
     </cc:Agent>
    </dc:creator>
   </cc:Work>
  </rdf:RDF>
 </metadata>
 <defs>
  <style type="text/css">*{stroke-linejoin: round; stroke-linecap: butt}</style>
 </defs>
 <g id="figure_1">
  <g id="patch_1">
   <path d="M 0 245.946406 
L 398.020625 245.946406 
L 398.020625 0 
L 0 0 
z
" style="fill: #0e0e1c"/>
  </g>
  <g id="axes_1">
   <g id="patch_2">
    <path d="M 39.330625 209.357969 
L 390.820625 209.357969 
L 390.820625 23.077969 
L 39.330625 23.077969 
z
" style="fill: #13131f"/>
   </g>
   <g id="matplotlib.axis_1">
    <g id="xtick_1">
     <g id="line2d_1">
      <path d="M 39.330625 209.357969 
L 39.330625 23.077969 
" clip-path="url(#p930ae4811e)" style="fill: none; stroke: #26263a; stroke-width: 0.7; stroke-linecap: square"/>
     </g>
     <g id="line2d_2">
      <defs>
       <path id="mab13a64143" d="M 0 0 
L 0 3.5 
" style="stroke: #b8c8e0; stroke-width: 0.8"/>
      </defs>
      <g>
       <use xlink:href="#mab13a64143" x="39.330625" y="209.357969" style="fill: #b8c8e0; stroke: #b8c8e0; stroke-width: 0.8"/>
      </g>
     </g>
     <g id="text_1">
      <!-- 0 -->
      <g style="fill: #b8c8e0" transform="translate(36.4675 223.196562) scale(0.09 -0.09)">
       <defs>
        <path id="DejaVuSans-30" d="M 2034 4250 
Q 1547 4250 1301 3770 
Q 1056 3291 1056 2328 
Q 1056 1369 1301 889 
Q 1547 409 2034 409 
Q 2525 409 2770 889 
Q 3016 1369 3016 2328 
Q 3016 3291 2770 3770 
Q 2525 4250 2034 4250 
z
M 2034 4750 
Q 2819 4750 3233 4129 
Q 3647 3509 3647 2328 
Q 3647 1150 3233 529 
Q 2819 -91 2034 -91 
Q 1250 -91 836 529 
Q 422 1150 422 2328 
Q 422 3509 836 4129 
Q 1250 4750 2034 4750 
z
" transform="scale(0.015625)"/>
       </defs>
       <use xlink:href="#DejaVuSans-30"/>
      </g>
     </g>
    </g>
    <g id="xtick_2">
     <g id="line2d_3">
      <path d="M 97.956261 209.357969 
L 97.956261 23.077969 
" clip-path="url(#p930ae4811e)" style="fill: none; stroke: #26263a; stroke-width: 0.7; stroke-linecap: square"/>
     </g>
     <g id="line2d_4">
      <g>
       <use xlink:href="#mab13a64143" x="97.956261" y="209.357969" style="fill: #b8c8e0; stroke: #b8c8e0; stroke-width: 0.8"/>
      </g>
     </g>
     <g id="text_2">
      <!-- 10 -->
      <g style="fill: #b8c8e0" transform="translate(92.230011 223.196562) scale(0.09 -0.09)">
       <defs>
        <path id="DejaVuSans-31" d="M 794 531 
L 1825 531 
L 1825 4091 
L 703 3866 
L 703 4441 
L 1819 4666 
L 2450 4666 
L 2450 531 
L 3481 531 
L 3481 0 
L 794 0 
L 794 531 
z
" transform="scale(0.015625)"/>
       </defs>
       <use xlink:href="#DejaVuSans-31"/>
       <use xlink:href="#DejaVuSans-30" x="63.623047"/>
      </g>
     </g>
    </g>
    <g id="xtick_3">
     <g id="line2d_5">
      <path d="M 156.581897 209.357969 
L 156.581897 23.077969 
" clip-path="url(#p930ae4811e)" style="fill: none; stroke: #26263a; stroke-width: 0.7; stroke-linecap: square"/>
     </g>
     <g id="line2d_6">
      <g>
       <use xlink:href="#mab13a64143" x="156.581897" y="209.357969" style="fill: #b8c8e0; stroke: #b8c8e0; stroke-width: 0.8"/>
      </g>
     </g>
     <g id="text_3">
      <!-- 20 -->
      <g style="fill: #b8c8e0" transform="translate(150.855647 223.196562) scale(0.09 -0.09)">
       <defs>
        <path id="DejaVuSans-32" d="M 1228 531 
L 3431 531 
L 3431 0 
L 469 0 
L 469 531 
Q 828 903 1448 1529 
Q 2069 2156 2228 2338 
Q 2531 2678 2651 2914 
Q 2772 3150 2772 3378 
Q 2772 3750 2511 3984 
Q 2250 4219 1831 4219 
Q 1534 4219 1204 4116 
Q 875 4013 500 3803 
L 500 4441 
Q 881 4594 1212 4672 
Q 1544 4750 1819 4750 
Q 2544 4750 2975 4387 
Q 3406 4025 3406 3419 
Q 3406 3131 3298 2873 
Q 3191 2616 2906 2266 
Q 2828 2175 2409 1742 
Q 1991 1309 1228 531 
z
" transform="scale(0.015625)"/>
       </defs>
       <use xlink:href="#DejaVuSans-32"/>
       <use xlink:href="#DejaVuSans-30" x="63.623047"/>
      </g>
     </g>
    </g>
    <g id="xtick_4">
     <g id="line2d_7">
      <path d="M 215.207533 209.357969 
L 215.207533 23.077969 
" clip-path="url(#p930ae4811e)" style="fill: none; stroke: #26263a; stroke-width: 0.7; stroke-linecap: square"/>
     </g>
     <g id="line2d_8">
      <g>
       <use xlink:href="#mab13a64143" x="215.207533" y="209.357969" style="fill: #b8c8e0; stroke: #b8c8e0; stroke-width: 0.8"/>
      </g>
     </g>
     <g id="text_4">
      <!-- 30 -->
      <g style="fill: #b8c8e0" transform="translate(209.481283 223.196562) scale(0.09 -0.09)">
       <defs>
        <path id="DejaVuSans-33" d="M 2597 2516 
Q 3050 2419 3304 2112 
Q 3559 1806 3559 1356 
Q 3559 666 3084 287 
Q 2609 -91 1734 -91 
Q 1441 -91 1130 -33 
Q 819 25 488 141 
L 488 750 
Q 750 597 1062 519 
Q 1375 441 1716 441 
Q 2309 441 2620 675 
Q 2931 909 2931 1356 
Q 2931 1769 2642 2001 
Q 2353 2234 1838 2234 
L 1294 2234 
L 1294 2753 
L 1863 2753 
Q 2328 2753 2575 2939 
Q 2822 3125 2822 3475 
Q 2822 3834 2567 4026 
Q 2313 4219 1838 4219 
Q 1578 4219 1281 4162 
Q 984 4106 628 3988 
L 628 4550 
Q 988 4650 1302 4700 
Q 1616 4750 1894 4750 
Q 2613 4750 3031 4423 
Q 3450 4097 3450 3541 
Q 3450 3153 3228 2886 
Q 3006 2619 2597 2516 
z
" transform="scale(0.015625)"/>
       </defs>
       <use xlink:href="#DejaVuSans-33"/>
       <use xlink:href="#DejaVuSans-30" x="63.623047"/>
      </g>
     </g>
    </g>
    <g id="xtick_5">
     <g id="line2d_9">
      <path d="M 273.833169 209.357969 
L 273.833169 23.077969 
" clip-path="url(#p930ae4811e)" style="fill: none; stroke: #26263a; stroke-width: 0.7; stroke-linecap: square"/>
     </g>
     <g id="line2d_10">
      <g>
       <use xlink:href="#mab13a64143" x="273.833169" y="209.357969" style="fill: #b8c8e0; stroke: #b8c8e0; stroke-width: 0.8"/>
      </g>
     </g>
     <g id="text_5">
      <!-- 40 -->
      <g style="fill: #b8c8e0" transform="translate(268.106919 223.196562) scale(0.09 -0.09)">
       <defs>
        <path id="DejaVuSans-34" d="M 2419 4116 
L 825 1625 
L 2419 1625 
L 2419 4116 
z
M 2253 4666 
L 3047 4666 
L 3047 1625 
L 3713 1625 
L 3713 1100 
L 3047 1100 
L 3047 0 
L 2419 0 
L 2419 1100 
L 313 1100 
L 313 1709 
L 2253 4666 
z
" transform="scale(0.015625)"/>
       </defs>
       <use xlink:href="#DejaVuSans-34"/>
       <use xlink:href="#DejaVuSans-30" x="63.623047"/>
      </g>
     </g>
    </g>
    <g id="xtick_6">
     <g id="line2d_11">
      <path d="M 332.458804 209.357969 
L 332.458804 23.077969 
" clip-path="url(#p930ae4811e)" style="fill: none; stroke: #26263a; stroke-width: 0.7; stroke-linecap: square"/>
     </g>
     <g id="line2d_12">
      <g>
       <use xlink:href="#mab13a64143" x="332.458804" y="209.357969" style="fill: #b8c8e0; stroke: #b8c8e0; stroke-width: 0.8"/>
      </g>
     </g>
     <g id="text_6">
      <!-- 50 -->
      <g style="fill: #b8c8e0" transform="translate(326.732554 223.196562) scale(0.09 -0.09)">
       <defs>
        <path id="DejaVuSans-35" d="M 691 4666 
L 3169 4666 
L 3169 4134 
L 1269 4134 
L 1269 2991 
Q 1406 3038 1543 3061 
Q 1681 3084 1819 3084 
Q 2600 3084 3056 2656 
Q 3513 2228 3513 1497 
Q 3513 744 3044 326 
Q 2575 -91 1722 -91 
Q 1428 -91 1123 -41 
Q 819 9 494 109 
L 494 744 
Q 775 591 1075 516 
Q 1375 441 1709 441 
Q 2250 441 2565 725 
Q 2881 1009 2881 1497 
Q 2881 1984 2565 2268 
Q 2250 2553 1709 2553 
Q 1456 2553 1204 2497 
Q 953 2441 691 2322 
L 691 4666 
z
" transform="scale(0.015625)"/>
       </defs>
       <use xlink:href="#DejaVuSans-35"/>
       <use xlink:href="#DejaVuSans-30" x="63.623047"/>
      </g>
     </g>
    </g>
    <g id="text_7">
     <!-- Time (s) -->
     <g style="fill: #b8c8e0" transform="translate(194.746719 236.666719) scale(0.1 -0.1)">
      <defs>
       <path id="DejaVuSans-54" d="M -19 4666 
L 3928 4666 
L 3928 4134 
L 2272 4134 
L 2272 0 
L 1638 0 
L 1638 4134 
L -19 4134 
L -19 4666 
z
" transform="scale(0.015625)"/>
       <path id="DejaVuSans-69" d="M 603 3500 
L 1178 3500 
L 1178 0 
L 603 0 
L 603 3500 
z
M 603 4863 
L 1178 4863 
L 1178 4134 
L 603 4134 
L 603 4863 
z
" transform="scale(0.015625)"/>
       <path id="DejaVuSans-6d" d="M 3328 2828 
Q 3544 3216 3844 3400 
Q 4144 3584 4550 3584 
Q 5097 3584 5394 3201 
Q 5691 2819 5691 2113 
L 5691 0 
L 5113 0 
L 5113 2094 
Q 5113 2597 4934 2840 
Q 4756 3084 4391 3084 
Q 3944 3084 3684 2787 
Q 3425 2491 3425 1978 
L 3425 0 
L 2847 0 
L 2847 2094 
Q 2847 2600 2669 2842 
Q 2491 3084 2119 3084 
Q 1678 3084 1418 2786 
Q 1159 2488 1159 1978 
L 1159 0 
L 581 0 
L 581 3500 
L 1159 3500 
L 1159 2956 
Q 1356 3278 1631 3431 
Q 1906 3584 2284 3584 
Q 2666 3584 2933 3390 
Q 3200 3197 3328 2828 
z
" transform="scale(0.015625)"/>
       <path id="DejaVuSans-65" d="M 3597 1894 
L 3597 1613 
L 953 1613 
Q 991 1019 1311 708 
Q 1631 397 2203 397 
Q 2534 397 2845 478 
Q 3156 559 3463 722 
L 3463 178 
Q 3153 47 2828 -22 
Q 2503 -91 2169 -91 
Q 1331 -91 842 396 
Q 353 884 353 1716 
Q 353 2575 817 3079 
Q 1281 3584 2069 3584 
Q 2775 3584 3186 3129 
Q 3597 2675 3597 1894 
z
M 3022 2063 
Q 3016 2534 2758 2815 
Q 2500 3097 2075 3097 
Q 1594 3097 1305 2825 
Q 1016 2553 972 2059 
L 3022 2063 
z
" transform="scale(0.015625)"/>
       <path id="DejaVuSans-20" transform="scale(0.015625)"/>
       <path id="DejaVuSans-28" d="M 1984 4856 
Q 1566 4138 1362 3434 
Q 1159 2731 1159 2009 
Q 1159 1288 1364 580 
Q 1569 -128 1984 -844 
L 1484 -844 
Q 1016 -109 783 600 
Q 550 1309 550 2009 
Q 550 2706 781 3412 
Q 1013 4119 1484 4856 
L 1984 4856 
z
" transform="scale(0.015625)"/>
       <path id="DejaVuSans-73" d="M 2834 3397 
L 2834 2853 
Q 2591 2978 2328 3040 
Q 2066 3103 1784 3103 
Q 1356 3103 1142 2972 
Q 928 2841 928 2578 
Q 928 2378 1081 2264 
Q 1234 2150 1697 2047 
L 1894 2003 
Q 2506 1872 2764 1633 
Q 3022 1394 3022 966 
Q 3022 478 2636 193 
Q 2250 -91 1575 -91 
Q 1294 -91 989 -36 
Q 684 19 347 128 
L 347 722 
Q 666 556 975 473 
Q 1284 391 1588 391 
Q 1994 391 2212 530 
Q 2431 669 2431 922 
Q 2431 1156 2273 1281 
Q 2116 1406 1581 1522 
L 1381 1569 
Q 847 1681 609 1914 
Q 372 2147 372 2553 
Q 372 3047 722 3315 
Q 1072 3584 1716 3584 
Q 2034 3584 2315 3537 
Q 2597 3491 2834 3397 
z
" transform="scale(0.015625)"/>
       <path id="DejaVuSans-29" d="M 513 4856 
L 1013 4856 
Q 1481 4119 1714 3412 
Q 1947 2706 1947 2009 
Q 1947 1309 1714 600 
Q 1481 -109 1013 -844 
L 513 -844 
Q 928 -128 1133 580 
Q 1338 1288 1338 2009 
Q 1338 2731 1133 3434 
Q 928 4138 513 4856 
z
" transform="scale(0.015625)"/>
      </defs>
      <use xlink:href="#DejaVuSans-54"/>
      <use xlink:href="#DejaVuSans-69" x="57.958984"/>
      <use xlink:href="#DejaVuSans-6d" x="85.742188"/>
      <use xlink:href="#DejaVuSans-65" x="183.154297"/>
      <use xlink:href="#DejaVuSans-20" x="244.677734"/>
      <use xlink:href="#DejaVuSans-28" x="276.464844"/>
      <use xlink:href="#DejaVuSans-73" x="315.478516"/>
      <use xlink:href="#DejaVuSans-29" x="367.578125"/>
     </g>
    </g>
   </g>
   <g id="matplotlib.axis_2">
    <g id="ytick_1">
     <g id="line2d_13">
      <path d="M 39.330625 209.357969 
L 390.820625 209.357969 
" clip-path="url(#p930ae4811e)" style="fill: none; stroke: #26263a; stroke-width: 0.7; stroke-linecap: square"/>
     </g>
     <g id="line2d_14">
      <defs>
       <path id="m6fcbab52fd" d="M 0 0 
L -3.5 0 
" style="stroke: #b8c8e0; stroke-width: 0.8"/>
      </defs>
      <g>
       <use xlink:href="#m6fcbab52fd" x="39.330625" y="209.357969" style="fill: #b8c8e0; stroke: #b8c8e0; stroke-width: 0.8"/>
      </g>
     </g>
     <g id="text_8">
      <!-- 0 -->
      <g style="fill: #b8c8e0" transform="translate(26.604375 212.777266) scale(0.09 -0.09)">
       <use xlink:href="#DejaVuSans-30"/>
      </g>
     </g>
    </g>
    <g id="ytick_2">
     <g id="line2d_15">
      <path d="M 39.330625 168.191743 
L 390.820625 168.191743 
" clip-path="url(#p930ae4811e)" style="fill: none; stroke: #26263a; stroke-width: 0.7; stroke-linecap: square"/>
     </g>
     <g id="line2d_16">
      <g>
       <use xlink:href="#m6fcbab52fd" x="39.330625" y="168.191743" style="fill: #b8c8e0; stroke: #b8c8e0; stroke-width: 0.8"/>
      </g>
     </g>
     <g id="text_9">
      <!-- 5 -->
      <g style="fill: #b8c8e0" transform="translate(26.604375 171.61104) scale(0.09 -0.09)">
       <use xlink:href="#DejaVuSans-35"/>
      </g>
     </g>
    </g>
    <g id="ytick_3">
     <g id="line2d_17">
      <path d="M 39.330625 127.025517 
L 390.820625 127.025517 
" clip-path="url(#p930ae4811e)" style="fill: none; stroke: #26263a; stroke-width: 0.7; stroke-linecap: square"/>
     </g>
     <g id="line2d_18">
      <g>
       <use xlink:href="#m6fcbab52fd" x="39.330625" y="127.025517" style="fill: #b8c8e0; stroke: #b8c8e0; stroke-width: 0.8"/>
      </g>
     </g>
     <g id="text_10">
      <!-- 10 -->
      <g style="fill: #b8c8e0" transform="translate(20.878125 130.444814) scale(0.09 -0.09)">
       <use xlink:href="#DejaVuSans-31"/>
       <use xlink:href="#DejaVuSans-30" x="63.623047"/>
      </g>
     </g>
    </g>
    <g id="ytick_4">
     <g id="line2d_19">
      <path d="M 39.330625 85.859291 
L 390.820625 85.859291 
" clip-path="url(#p930ae4811e)" style="fill: none; stroke: #26263a; stroke-width: 0.7; stroke-linecap: square"/>
     </g>
     <g id="line2d_20">
      <g>
       <use xlink:href="#m6fcbab52fd" x="39.330625" y="85.859291" style="fill: #b8c8e0; stroke: #b8c8e0; stroke-width: 0.8"/>
      </g>
     </g>
     <g id="text_11">
      <!-- 15 -->
      <g style="fill: #b8c8e0" transform="translate(20.878125 89.278588) scale(0.09 -0.09)">
       <use xlink:href="#DejaVuSans-31"/>
       <use xlink:href="#DejaVuSans-35" x="63.623047"/>
      </g>
     </g>
    </g>
    <g id="ytick_5">
     <g id="line2d_21">
      <path d="M 39.330625 44.693065 
L 390.820625 44.693065 
" clip-path="url(#p930ae4811e)" style="fill: none; stroke: #26263a; stroke-width: 0.7; stroke-linecap: square"/>
     </g>
     <g id="line2d_22">
      <g>
       <use xlink:href="#m6fcbab52fd" x="39.330625" y="44.693065" style="fill: #b8c8e0; stroke: #b8c8e0; stroke-width: 0.8"/>
      </g>
     </g>
     <g id="text_12">
      <!-- 20 -->
      <g style="fill: #b8c8e0" transform="translate(20.878125 48.112362) scale(0.09 -0.09)">
       <use xlink:href="#DejaVuSans-32"/>
       <use xlink:href="#DejaVuSans-30" x="63.623047"/>
      </g>
     </g>
    </g>
    <g id="text_13">
     <!-- Cumulative path (m) -->
     <g style="fill: #b8c8e0" transform="translate(14.798438 168.072656) rotate(-90) scale(0.1 -0.1)">
      <defs>
       <path id="DejaVuSans-43" d="M 4122 4306 
L 4122 3641 
Q 3803 3938 3442 4084 
Q 3081 4231 2675 4231 
Q 1875 4231 1450 3742 
Q 1025 3253 1025 2328 
Q 1025 1406 1450 917 
Q 1875 428 2675 428 
Q 3081 428 3442 575 
Q 3803 722 4122 1019 
L 4122 359 
Q 3791 134 3420 21 
Q 3050 -91 2638 -91 
Q 1578 -91 968 557 
Q 359 1206 359 2328 
Q 359 3453 968 4101 
Q 1578 4750 2638 4750 
Q 3056 4750 3426 4639 
Q 3797 4528 4122 4306 
z
" transform="scale(0.015625)"/>
       <path id="DejaVuSans-75" d="M 544 1381 
L 544 3500 
L 1119 3500 
L 1119 1403 
Q 1119 906 1312 657 
Q 1506 409 1894 409 
Q 2359 409 2629 706 
Q 2900 1003 2900 1516 
L 2900 3500 
L 3475 3500 
L 3475 0 
L 2900 0 
L 2900 538 
Q 2691 219 2414 64 
Q 2138 -91 1772 -91 
Q 1169 -91 856 284 
Q 544 659 544 1381 
z
M 1991 3584 
L 1991 3584 
z
" transform="scale(0.015625)"/>
       <path id="DejaVuSans-6c" d="M 603 4863 
L 1178 4863 
L 1178 0 
L 603 0 
L 603 4863 
z
" transform="scale(0.015625)"/>
       <path id="DejaVuSans-61" d="M 2194 1759 
Q 1497 1759 1228 1600 
Q 959 1441 959 1056 
Q 959 750 1161 570 
Q 1363 391 1709 391 
Q 2188 391 2477 730 
Q 2766 1069 2766 1631 
L 2766 1759 
L 2194 1759 
z
M 3341 1997 
L 3341 0 
L 2766 0 
L 2766 531 
Q 2569 213 2275 61 
Q 1981 -91 1556 -91 
Q 1019 -91 701 211 
Q 384 513 384 1019 
Q 384 1609 779 1909 
Q 1175 2209 1959 2209 
L 2766 2209 
L 2766 2266 
Q 2766 2663 2505 2880 
Q 2244 3097 1772 3097 
Q 1472 3097 1187 3025 
Q 903 2953 641 2809 
L 641 3341 
Q 956 3463 1253 3523 
Q 1550 3584 1831 3584 
Q 2591 3584 2966 3190 
Q 3341 2797 3341 1997 
z
" transform="scale(0.015625)"/>
       <path id="DejaVuSans-74" d="M 1172 4494 
L 1172 3500 
L 2356 3500 
L 2356 3053 
L 1172 3053 
L 1172 1153 
Q 1172 725 1289 603 
Q 1406 481 1766 481 
L 2356 481 
L 2356 0 
L 1766 0 
Q 1100 0 847 248 
Q 594 497 594 1153 
L 594 3053 
L 172 3053 
L 172 3500 
L 594 3500 
L 594 4494 
L 1172 4494 
z
" transform="scale(0.015625)"/>
       <path id="DejaVuSans-76" d="M 191 3500 
L 800 3500 
L 1894 563 
L 2988 3500 
L 3597 3500 
L 2284 0 
L 1503 0 
L 191 3500 
z
" transform="scale(0.015625)"/>
       <path id="DejaVuSans-70" d="M 1159 525 
L 1159 -1331 
L 581 -1331 
L 581 3500 
L 1159 3500 
L 1159 2969 
Q 1341 3281 1617 3432 
Q 1894 3584 2278 3584 
Q 2916 3584 3314 3078 
Q 3713 2572 3713 1747 
Q 3713 922 3314 415 
Q 2916 -91 2278 -91 
Q 1894 -91 1617 61 
Q 1341 213 1159 525 
z
M 3116 1747 
Q 3116 2381 2855 2742 
Q 2594 3103 2138 3103 
Q 1681 3103 1420 2742 
Q 1159 2381 1159 1747 
Q 1159 1113 1420 752 
Q 1681 391 2138 391 
Q 2594 391 2855 752 
Q 3116 1113 3116 1747 
z
" transform="scale(0.015625)"/>
       <path id="DejaVuSans-68" d="M 3513 2113 
L 3513 0 
L 2938 0 
L 2938 2094 
Q 2938 2591 2744 2837 
Q 2550 3084 2163 3084 
Q 1697 3084 1428 2787 
Q 1159 2491 1159 1978 
L 1159 0 
L 581 0 
L 581 4863 
L 1159 4863 
L 1159 2956 
Q 1366 3272 1645 3428 
Q 1925 3584 2291 3584 
Q 2894 3584 3203 3211 
Q 3513 2838 3513 2113 
z
" transform="scale(0.015625)"/>
      </defs>
      <use xlink:href="#DejaVuSans-43"/>
      <use xlink:href="#DejaVuSans-75" x="69.824219"/>
      <use xlink:href="#DejaVuSans-6d" x="133.203125"/>
      <use xlink:href="#DejaVuSans-75" x="230.615234"/>
      <use xlink:href="#DejaVuSans-6c" x="293.994141"/>
      <use xlink:href="#DejaVuSans-61" x="321.777344"/>
      <use xlink:href="#DejaVuSans-74" x="383.056641"/>
      <use xlink:href="#DejaVuSans-69" x="422.265625"/>
      <use xlink:href="#DejaVuSans-76" x="450.048828"/>
      <use xlink:href="#DejaVuSans-65" x="509.228516"/>
      <use xlink:href="#DejaVuSans-20" x="570.751953"/>
      <use xlink:href="#DejaVuSans-70" x="602.539062"/>
      <use xlink:href="#DejaVuSans-61" x="666.015625"/>
      <use xlink:href="#DejaVuSans-74" x="727.294922"/>
      <use xlink:href="#DejaVuSans-68" x="766.503906"/>
      <use xlink:href="#DejaVuSans-20" x="829.882812"/>
      <use xlink:href="#DejaVuSans-28" x="861.669922"/>
      <use xlink:href="#DejaVuSans-6d" x="900.683594"/>
      <use xlink:href="#DejaVuSans-29" x="998.095703"/>
     </g>
    </g>
   </g>
   <g id="line2d_23">
    <path d="M 39.330625 209.357969 
L 39.623753 209.349878 
L 39.922744 209.036951 
L 40.509 208.936906 
L 41.681513 208.90788 
L 41.974641 208.546092 
L 42.56676 208.416737 
L 44.618657 208.363883 
L 44.911786 207.949227 
L 45.79117 207.787763 
L 46.084298 206.807408 
L 46.963683 206.689435 
L 47.256811 206.191166 
L 47.555802 205.385167 
L 48.142058 205.296645 
L 48.435186 205.295077 
L 48.734177 205.060303 
L 49.027305 202.933391 
L 49.314571 202.595756 
L 49.607699 200.768034 
L 49.900827 200.494215 
L 50.780212 200.426119 
L 51.07334 200.259089 
L 53.435953 200.172929 
L 54.028072 198.603254 
L 54.907456 198.487221 
L 55.206447 198.486407 
L 55.499575 198.35024 
L 55.792704 197.896856 
L 56.37896 197.873874 
L 56.677951 197.723862 
L 56.971079 197.423094 
L 60.201351 197.326401 
L 60.49448 196.818632 
L 61.074873 196.818632 
L 61.666992 193.362351 
L 61.96012 192.516562 
L 62.253249 192.322315 
L 63.71889 192.110535 
L 64.012018 191.61933 
L 65.190393 191.507826 
L 66.656034 191.443815 
L 66.949162 190.974351 
L 69.012784 190.898275 
L 69.305913 190.893705 
L 69.892169 190.37304 
L 71.35781 190.303235 
L 75.174339 190.244117 
L 75.467467 190.088972 
L 75.760595 189.658417 
L 76.93897 189.499757 
L 77.232099 189.032085 
L 81.634884 188.928297 
L 82.22114 187.974509 
L 83.106387 187.912531 
L 83.399516 187.675539 
L 84.577891 187.597553 
L 84.871019 187.268966 
L 85.164147 186.309075 
L 85.750404 186.067919 
L 86.928779 186.0283 
L 87.221907 185.6129 
L 87.808163 185.502073 
L 88.107154 185.499477 
L 88.400282 185.381621 
L 88.69341 185.034433 
L 89.865923 184.759383 
L 90.159051 184.277543 
L 91.331564 184.218885 
L 93.682452 184.152137 
L 94.561837 183.495004 
L 100.154722 183.387052 
L 102.200757 183.363824 
L 102.792876 183.12408 
L 103.678123 183.097131 
L 103.971251 182.616464 
L 104.270242 182.413376 
L 105.442755 182.34943 
L 106.328002 182.290111 
L 106.62113 181.681033 
L 107.207386 181.571376 
L 111.610171 181.487091 
L 111.909162 181.112208 
L 112.495419 181.000725 
L 113.966922 180.959724 
L 114.26005 180.616429 
L 114.846307 180.481539 
L 123.65774 180.292634 
L 142.154128 179.998362 
L 142.447256 179.755856 
L 142.746247 179.335929 
L 143.918759 179.265921 
L 147.149032 179.163069 
L 147.44216 178.687487 
L 147.741151 177.895651 
L 148.327407 177.794525 
L 148.620535 177.14539 
L 148.913664 176.974622 
L 150.385167 176.901529 
L 150.678295 174.826543 
L 151.270414 172.66248 
L 151.850808 172.54718 
L 154.201696 172.505886 
L 154.494824 172.378394 
L 154.787952 172.005874 
L 155.960465 171.974593 
L 156.546721 171.356326 
L 157.431969 171.306004 
L 158.024087 171.176788 
L 158.317216 170.285017 
L 159.788719 170.230816 
L 160.081847 169.370233 
L 160.369113 168.9688 
L 162.426873 168.909895 
L 164.191504 168.808358 
L 164.47877 168.404826 
L 166.829658 168.281709 
L 167.122786 167.866073 
L 168.588427 167.793553 
L 170.939315 167.73534 
L 171.525571 167.00335 
L 172.698084 166.844347 
L 172.991212 166.569048 
L 174.755844 166.287184 
L 175.3421 166.190249 
L 176.807741 166.103463 
L 177.100869 165.591022 
L 177.388135 165.591022 
L 177.974391 162.850107 
L 178.26752 162.284911 
L 178.560648 162.146465 
L 180.026289 162.109567 
L 180.612545 161.391061 
L 181.491929 161.309908 
L 182.963433 161.277967 
L 183.256561 161.076135 
L 184.135946 161.055536 
L 184.429074 160.814782 
L 184.722202 159.909514 
L 185.601587 159.815676 
L 185.894715 158.754301 
L 186.779962 158.624081 
L 190.889619 158.533316 
L 191.475875 158.350923 
L 194.71201 158.14093 
L 195.005139 158.001152 
L 202.05194 157.699984 
L 202.638196 157.540077 
L 209.978126 157.212942 
L 210.271254 157.021429 
L 210.564382 157.021429 
L 210.85751 154.112148 
L 211.443767 152.424835 
L 211.736895 152.18733 
L 212.61628 152.023924 
L 212.91527 152.001455 
L 213.495664 150.016407 
L 213.788792 149.855478 
L 217.30633 149.679521 
L 217.599459 149.352606 
L 218.771971 149.287851 
L 219.944484 149.271917 
L 220.237612 148.225083 
L 220.53074 145.612891 
L 220.818006 144.994783 
L 221.703253 144.892225 
L 221.996381 144.382059 
L 222.289509 144.108733 
L 223.168894 144.068518 
L 223.462022 143.830323 
L 223.75515 141.422479 
L 224.054141 140.245026 
L 224.640397 140.087744 
L 226.991285 139.967887 
L 227.284414 139.475754 
L 227.577542 136.82554 
L 227.87067 136.22454 
L 229.049045 136.153586 
L 229.342173 136.150576 
L 229.635302 135.815308 
L 230.807814 135.73823 
L 232.273455 135.707058 
L 232.566583 134.997994 
L 232.859712 132.173304 
L 233.15284 131.463043 
L 233.739096 131.33125 
L 235.2106 131.270314 
L 235.503728 131.091682 
L 236.388975 131.058833 
L 236.682103 130.658625 
L 237.274222 127.778659 
L 237.56735 127.281709 
L 238.446735 127.152758 
L 240.205504 127.11162 
L 240.498632 127.015476 
L 240.79176 126.020052 
L 241.084888 126.020052 
L 241.378017 125.701108 
L 241.671145 123.993131 
L 241.964273 123.815444 
L 242.843657 123.642601 
L 243.136786 123.455354 
L 244.022033 123.419928 
L 244.315161 122.950138 
L 244.895555 118.794339 
L 245.194545 117.44497 
L 245.487674 117.287009 
L 246.959177 117.231847 
L 247.545433 116.546074 
L 248.717946 116.486454 
L 249.011074 116.139223 
L 249.304203 113.530153 
L 249.597331 112.768953 
L 249.896321 110.965489 
L 250.476715 110.797553 
L 250.775706 109.389998 
L 251.062972 107.129762 
L 251.649228 106.958817 
L 254.586372 106.855569 
L 254.8795 105.559317 
L 255.172629 103.222388 
L 256.052013 103.099425 
L 256.931398 103.057348 
L 257.224526 102.605528 
L 258.10391 102.497189 
L 258.397039 102.450317 
L 258.983295 98.602344 
L 260.460661 98.511831 
L 261.046917 97.858645 
L 262.518421 97.808319 
L 263.690934 97.789206 
L 263.984062 97.572655 
L 264.27719 96.855481 
L 265.162437 96.669914 
L 265.449703 95.880474 
L 266.035959 95.780329 
L 266.622215 95.771432 
L 266.921206 95.368437 
L 267.507462 90.471141 
L 267.800591 89.744187 
L 268.386847 89.646834 
L 268.967241 89.640915 
L 269.266232 89.152101 
L 269.55936 87.423692 
L 271.030863 87.264566 
L 272.209238 81.753202 
L 273.094486 81.700313 
L 273.979733 81.684846 
L 274.565989 80.656355 
L 275.445374 80.575626 
L 276.617886 80.464779 
L 276.911014 79.788635 
L 279.854021 79.723367 
L 280.44614 79.359128 
L 281.325525 79.329305 
L 281.905919 78.688299 
L 283.67055 78.601665 
L 283.963678 78.591074 
L 284.549935 77.992147 
L 289.84383 77.531504 
L 290.723214 77.508095 
L 291.016342 77.108204 
L 292.194718 77.002709 
L 292.780974 75.887674 
L 293.654496 75.831798 
L 294.539743 75.771318 
L 294.832871 75.59656 
L 296.890631 75.555274 
L 297.48275 72.932539 
L 298.069006 72.790859 
L 300.126766 72.694181 
L 300.425757 70.678783 
L 300.718885 69.496016 
L 301.59827 69.412212 
L 302.184526 69.401832 
L 302.477654 69.184495 
L 303.063911 69.165267 
L 303.644304 68.757046 
L 304.82268 68.699909 
L 305.408936 68.640147 
L 305.702064 68.461364 
L 306.886302 68.415374 
L 307.466696 68.179851 
L 308.938199 68.146856 
L 309.231328 67.67196 
L 309.817584 67.547811 
L 310.110712 67.542312 
L 310.40384 67.307234 
L 310.702831 66.766831 
L 311.582216 66.692138 
L 312.168472 66.680841 
L 312.467463 66.322479 
L 312.760591 66.166387 
L 314.226232 65.969899 
L 314.51936 65.085914 
L 315.691873 64.901924 
L 315.985001 64.104374 
L 317.157513 63.938756 
L 317.450642 63.747846 
L 318.629017 63.678161 
L 318.922145 63.298705 
L 319.215273 63.259801 
L 319.508401 62.66433 
L 320.387786 62.59502 
L 320.680914 62.585232 
L 321.273033 60.081297 
L 321.859289 59.934058 
L 322.146555 59.918307 
L 322.439683 59.321416 
L 322.738674 57.544711 
L 324.204315 57.460529 
L 325.376828 57.395306 
L 325.669956 57.212066 
L 327.135597 57.161732 
L 327.428725 57.15799 
L 328.014981 55.884566 
L 328.601238 55.801389 
L 328.894366 55.798723 
L 329.480622 54.904201 
L 330.360007 54.833392 
L 333.303014 54.698852 
L 333.596142 54.421469 
L 334.475526 54.403424 
L 334.774517 53.868312 
L 335.061783 52.692095 
L 335.941167 52.569785 
L 336.533286 52.554036 
L 337.11368 52.21671 
L 337.406808 52.198045 
L 337.699936 51.318573 
L 337.993064 50.861021 
L 338.872449 50.775944 
L 339.165577 50.771374 
L 339.458705 50.608681 
L 339.751834 50.311612 
L 340.930209 50.260109 
L 341.223337 49.181545 
L 341.516465 49.181545 
L 342.108584 48.081645 
L 342.401712 48.009987 
L 343.281097 47.427681 
L 344.45361 47.404721 
L 344.746738 47.078218 
L 345.039866 46.552004 
L 345.925113 46.436638 
L 346.218241 45.865684 
L 347.396616 45.572722 
L 347.689745 45.415663 
L 356.794306 44.848742 
L 357.67369 44.817403 
L 357.966819 44.538902 
L 358.846203 44.459536 
L 360.604972 44.387656 
L 360.8981 43.632277 
L 361.191229 43.43704 
L 362.070613 43.315367 
L 362.363741 42.949436 
L 363.243126 42.82792 
L 363.536254 42.469881 
L 365.594014 42.326422 
L 365.881279 42.206084 
L 366.473398 41.778814 
L 367.645911 41.749336 
L 368.23803 41.346709 
L 369.703671 41.186557 
L 369.990937 41.020719 
L 372.042834 40.971779 
L 372.335962 40.784634 
L 375.566235 40.50523 
L 376.445619 40.49649 
L 377.037738 40.155826 
L 378.790645 40.109239 
L 379.083773 39.448468 
L 379.963157 39.323988 
L 380.256285 37.677463 
L 380.549414 36.738249 
L 380.848404 36.332279 
L 381.428798 36.256212 
L 384.365942 36.154304 
L 384.659071 35.898624 
L 386.705105 35.854278 
L 388.469737 35.820079 
L 388.768728 35.355302 
L 389.061856 33.993136 
L 389.349122 32.120614 
L 389.64225 31.970725 
L 390.820625 31.948445 
L 390.820625 31.948445 
" clip-path="url(#p930ae4811e)" style="fill: none; stroke: #9bbcff; stroke-width: 2; stroke-linecap: square"/>
   </g>
   <g id="patch_3">
    <path d="M 39.330625 209.357969 
L 39.330625 23.077969 
" style="fill: none; stroke: #2d2d4a; stroke-width: 0.8; stroke-linejoin: miter; stroke-linecap: square"/>
   </g>
   <g id="patch_4">
    <path d="M 390.820625 209.357969 
L 390.820625 23.077969 
" style="fill: none; stroke: #2d2d4a; stroke-width: 0.8; stroke-linejoin: miter; stroke-linecap: square"/>
   </g>
   <g id="patch_5">
    <path d="M 39.330625 209.357969 
L 390.820625 209.357969 
" style="fill: none; stroke: #2d2d4a; stroke-width: 0.8; stroke-linejoin: miter; stroke-linecap: square"/>
   </g>
   <g id="patch_6">
    <path d="M 39.330625 23.077969 
L 390.820625 23.077969 
" style="fill: none; stroke: #2d2d4a; stroke-width: 0.8; stroke-linejoin: miter; stroke-linecap: square"/>
   </g>
   <g id="text_14">
    <!-- Gaze movement -->
    <g style="fill: #b8c8e0" transform="translate(156.098281 17.077969) scale(0.13 -0.13)">
     <defs>
      <path id="DejaVuSans-Bold-47" d="M 4781 347 
Q 4331 128 3847 18 
Q 3363 -91 2847 -91 
Q 1681 -91 1000 561 
Q 319 1213 319 2328 
Q 319 3456 1012 4103 
Q 1706 4750 2913 4750 
Q 3378 4750 3804 4662 
Q 4231 4575 4609 4403 
L 4609 3438 
Q 4219 3659 3833 3768 
Q 3447 3878 3059 3878 
Q 2341 3878 1952 3476 
Q 1563 3075 1563 2328 
Q 1563 1588 1938 1184 
Q 2313 781 3003 781 
Q 3191 781 3352 804 
Q 3513 828 3641 878 
L 3641 1784 
L 2906 1784 
L 2906 2591 
L 4781 2591 
L 4781 347 
z
" transform="scale(0.015625)"/>
      <path id="DejaVuSans-Bold-61" d="M 2106 1575 
Q 1756 1575 1579 1456 
Q 1403 1338 1403 1106 
Q 1403 894 1545 773 
Q 1688 653 1941 653 
Q 2256 653 2472 879 
Q 2688 1106 2688 1447 
L 2688 1575 
L 2106 1575 
z
M 3816 1997 
L 3816 0 
L 2688 0 
L 2688 519 
Q 2463 200 2181 54 
Q 1900 -91 1497 -91 
Q 953 -91 614 226 
Q 275 544 275 1050 
Q 275 1666 698 1953 
Q 1122 2241 2028 2241 
L 2688 2241 
L 2688 2328 
Q 2688 2594 2478 2717 
Q 2269 2841 1825 2841 
Q 1466 2841 1156 2769 
Q 847 2697 581 2553 
L 581 3406 
Q 941 3494 1303 3539 
Q 1666 3584 2028 3584 
Q 2975 3584 3395 3211 
Q 3816 2838 3816 1997 
z
" transform="scale(0.015625)"/>
      <path id="DejaVuSans-Bold-7a" d="M 366 3500 
L 3419 3500 
L 3419 2719 
L 1575 800 
L 3419 800 
L 3419 0 
L 288 0 
L 288 781 
L 2131 2700 
L 366 2700 
L 366 3500 
z
" transform="scale(0.015625)"/>
      <path id="DejaVuSans-Bold-65" d="M 4031 1759 
L 4031 1441 
L 1416 1441 
Q 1456 1047 1700 850 
Q 1944 653 2381 653 
Q 2734 653 3104 758 
Q 3475 863 3866 1075 
L 3866 213 
Q 3469 63 3072 -14 
Q 2675 -91 2278 -91 
Q 1328 -91 801 392 
Q 275 875 275 1747 
Q 275 2603 792 3093 
Q 1309 3584 2216 3584 
Q 3041 3584 3536 3087 
Q 4031 2591 4031 1759 
z
M 2881 2131 
Q 2881 2450 2695 2645 
Q 2509 2841 2209 2841 
Q 1884 2841 1681 2658 
Q 1478 2475 1428 2131 
L 2881 2131 
z
" transform="scale(0.015625)"/>
      <path id="DejaVuSans-Bold-20" transform="scale(0.015625)"/>
      <path id="DejaVuSans-Bold-6d" d="M 3781 2919 
Q 3994 3244 4286 3414 
Q 4578 3584 4928 3584 
Q 5531 3584 5847 3212 
Q 6163 2841 6163 2131 
L 6163 0 
L 5038 0 
L 5038 1825 
Q 5041 1866 5042 1909 
Q 5044 1953 5044 2034 
Q 5044 2406 4934 2573 
Q 4825 2741 4581 2741 
Q 4263 2741 4089 2478 
Q 3916 2216 3909 1719 
L 3909 0 
L 2784 0 
L 2784 1825 
Q 2784 2406 2684 2573 
Q 2584 2741 2328 2741 
Q 2006 2741 1831 2477 
Q 1656 2213 1656 1722 
L 1656 0 
L 531 0 
L 531 3500 
L 1656 3500 
L 1656 2988 
Q 1863 3284 2130 3434 
Q 2397 3584 2719 3584 
Q 3081 3584 3359 3409 
Q 3638 3234 3781 2919 
z
" transform="scale(0.015625)"/>
      <path id="DejaVuSans-Bold-6f" d="M 2203 2784 
Q 1831 2784 1636 2517 
Q 1441 2250 1441 1747 
Q 1441 1244 1636 976 
Q 1831 709 2203 709 
Q 2569 709 2762 976 
Q 2956 1244 2956 1747 
Q 2956 2250 2762 2517 
Q 2569 2784 2203 2784 
z
M 2203 3584 
Q 3106 3584 3614 3096 
Q 4122 2609 4122 1747 
Q 4122 884 3614 396 
Q 3106 -91 2203 -91 
Q 1297 -91 786 396 
Q 275 884 275 1747 
Q 275 2609 786 3096 
Q 1297 3584 2203 3584 
z
" transform="scale(0.015625)"/>
      <path id="DejaVuSans-Bold-76" d="M 97 3500 
L 1216 3500 
L 2088 1081 
L 2956 3500 
L 4078 3500 
L 2700 0 
L 1472 0 
L 97 3500 
z
" transform="scale(0.015625)"/>
      <path id="DejaVuSans-Bold-6e" d="M 4056 2131 
L 4056 0 
L 2931 0 
L 2931 347 
L 2931 1631 
Q 2931 2084 2911 2256 
Q 2891 2428 2841 2509 
Q 2775 2619 2662 2680 
Q 2550 2741 2406 2741 
Q 2056 2741 1856 2470 
Q 1656 2200 1656 1722 
L 1656 0 
L 538 0 
L 538 3500 
L 1656 3500 
L 1656 2988 
Q 1909 3294 2193 3439 
Q 2478 3584 2822 3584 
Q 3428 3584 3742 3212 
Q 4056 2841 4056 2131 
z
" transform="scale(0.015625)"/>
      <path id="DejaVuSans-Bold-74" d="M 1759 4494 
L 1759 3500 
L 2913 3500 
L 2913 2700 
L 1759 2700 
L 1759 1216 
Q 1759 972 1856 886 
Q 1953 800 2241 800 
L 2816 800 
L 2816 0 
L 1856 0 
Q 1194 0 917 276 
Q 641 553 641 1216 
L 641 2700 
L 84 2700 
L 84 3500 
L 641 3500 
L 641 4494 
L 1759 4494 
z
" transform="scale(0.015625)"/>
     </defs>
     <use xlink:href="#DejaVuSans-Bold-47"/>
     <use xlink:href="#DejaVuSans-Bold-61" x="82.080078"/>
     <use xlink:href="#DejaVuSans-Bold-7a" x="149.560547"/>
     <use xlink:href="#DejaVuSans-Bold-65" x="207.763672"/>
     <use xlink:href="#DejaVuSans-Bold-20" x="275.585938"/>
     <use xlink:href="#DejaVuSans-Bold-6d" x="310.400391"/>
     <use xlink:href="#DejaVuSans-Bold-6f" x="414.599609"/>
     <use xlink:href="#DejaVuSans-Bold-76" x="483.300781"/>
     <use xlink:href="#DejaVuSans-Bold-65" x="548.486328"/>
     <use xlink:href="#DejaVuSans-Bold-6d" x="616.308594"/>
     <use xlink:href="#DejaVuSans-Bold-65" x="720.507812"/>
     <use xlink:href="#DejaVuSans-Bold-6e" x="788.330078"/>
     <use xlink:href="#DejaVuSans-Bold-74" x="859.521484"/>
    </g>
   </g>
  </g>
 </g>
 <defs>
  <clipPath id="p930ae4811e">
   <rect x="39.330625" y="23.077969" width="351.49" height="186.28"/>
  </clipPath>
 </defs>
</svg>
