<?xml version="1.0" encoding="utf-8" standalone="no"?>
<!DOCTYPE svg PUBLIC "-//W3C//DTD SVG 1.1//EN"
  "http://www.w3.org/Graphics/SVG/1.1/DTD/svg11.dtd">
<svg xmlns:xlink="http://www.w3.org/1999/xlink" width="397.942226pt" height="245.946406pt" viewBox="0 0 397.942226 245.946406" xmlns="http://www.w3.org/2000/svg" version="1.1">
 <metadata>
  <rdf:RDF xmlns:dc="http://purl.org/dc/elements/1.1/" xmlns:cc="http://creativecommons.org/ns#" xmlns:rdf="http://www.w3.org/1999/02/22-rdf-syntax-ns#">
   <cc:Work>
    <dc:type rdf:resource="http://purl.org/dc/dcmitype/StillImage"/>
    <dc:date>2026-06-03T15:51:50.991975</dc:date>
    <dc:format>image/svg+xml</dc:format>
    <dc:creator>
     <cc:Agent>
      <dc:title>Matplotlib v3.8.0, https://matplotlib.org/</dc:title>
     </cc:Agent>
    </dc:creator>
   </cc:Work>
  </rdf:RDF>
 </metadata>
 <defs>
  <style type="text/css">*{stroke-linejoin: round; stroke-linecap: butt}</style>
 </defs>
 <g id="figure_1">
  <g id="patch_1">
   <path d="M 0 245.946406 
L 397.942226 245.946406 
L 397.942226 0 
L 0 0 
z
" style="fill: #0e0e1c"/>
  </g>
  <g id="axes_1">
   <g id="patch_2">
    <path d="M 42.408906 209.357969 
L 385.18728 209.357969 
L 385.18728 23.077969 
L 42.408906 23.077969 
z
" style="fill: #13131f"/>
   </g>
   <g id="matplotlib.axis_1">
    <g id="xtick_1">
     <g id="line2d_1">
      <path d="M 42.408906 209.357969 
L 42.408906 23.077969 
" clip-path="url(#pecb69e8ba7)" style="fill: none; stroke: #26263a; stroke-width: 0.7; stroke-linecap: square"/>
     </g>
     <g id="line2d_2">
      <defs>
       <path id="m0cc2b752cd" d="M 0 0 
L 0 3.5 
" style="stroke: #b8c8e0; stroke-width: 0.8"/>
      </defs>
      <g>
       <use xlink:href="#m0cc2b752cd" x="42.408906" y="209.357969" style="fill: #b8c8e0; stroke: #b8c8e0; stroke-width: 0.8"/>
      </g>
     </g>
     <g id="text_1">
      <!-- 0 -->
      <g style="fill: #b8c8e0" transform="translate(39.545781 223.196562) scale(0.09 -0.09)">
       <defs>
        <path id="DejaVuSans-30" d="M 2034 4250 
Q 1547 4250 1301 3770 
Q 1056 3291 1056 2328 
Q 1056 1369 1301 889 
Q 1547 409 2034 409 
Q 2525 409 2770 889 
Q 3016 1369 3016 2328 
Q 3016 3291 2770 3770 
Q 2525 4250 2034 4250 
z
M 2034 4750 
Q 2819 4750 3233 4129 
Q 3647 3509 3647 2328 
Q 3647 1150 3233 529 
Q 2819 -91 2034 -91 
Q 1250 -91 836 529 
Q 422 1150 422 2328 
Q 422 3509 836 4129 
Q 1250 4750 2034 4750 
z
" transform="scale(0.015625)"/>
       </defs>
       <use xlink:href="#DejaVuSans-30"/>
      </g>
     </g>
    </g>
    <g id="xtick_2">
     <g id="line2d_3">
      <path d="M 99.510085 209.357969 
L 99.510085 23.077969 
" clip-path="url(#pecb69e8ba7)" style="fill: none; stroke: #26263a; stroke-width: 0.7; stroke-linecap: square"/>
     </g>
     <g id="line2d_4">
      <g>
       <use xlink:href="#m0cc2b752cd" x="99.510085" y="209.357969" style="fill: #b8c8e0; stroke: #b8c8e0; stroke-width: 0.8"/>
      </g>
     </g>
     <g id="text_2">
      <!-- 10 -->
      <g style="fill: #b8c8e0" transform="translate(93.783835 223.196562) scale(0.09 -0.09)">
       <defs>
        <path id="DejaVuSans-31" d="M 794 531 
L 1825 531 
L 1825 4091 
L 703 3866 
L 703 4441 
L 1819 4666 
L 2450 4666 
L 2450 531 
L 3481 531 
L 3481 0 
L 794 0 
L 794 531 
z
" transform="scale(0.015625)"/>
       </defs>
       <use xlink:href="#DejaVuSans-31"/>
       <use xlink:href="#DejaVuSans-30" x="63.623047"/>
      </g>
     </g>
    </g>
    <g id="xtick_3">
     <g id="line2d_5">
      <path d="M 156.611263 209.357969 
L 156.611263 23.077969 
" clip-path="url(#pecb69e8ba7)" style="fill: none; stroke: #26263a; stroke-width: 0.7; stroke-linecap: square"/>
     </g>
     <g id="line2d_6">
      <g>
       <use xlink:href="#m0cc2b752cd" x="156.611263" y="209.357969" style="fill: #b8c8e0; stroke: #b8c8e0; stroke-width: 0.8"/>
      </g>
     </g>
     <g id="text_3">
      <!-- 20 -->
      <g style="fill: #b8c8e0" transform="translate(150.885013 223.196562) scale(0.09 -0.09)">
       <defs>
        <path id="DejaVuSans-32" d="M 1228 531 
L 3431 531 
L 3431 0 
L 469 0 
L 469 531 
Q 828 903 1448 1529 
Q 2069 2156 2228 2338 
Q 2531 2678 2651 2914 
Q 2772 3150 2772 3378 
Q 2772 3750 2511 3984 
Q 2250 4219 1831 4219 
Q 1534 4219 1204 4116 
Q 875 4013 500 3803 
L 500 4441 
Q 881 4594 1212 4672 
Q 1544 4750 1819 4750 
Q 2544 4750 2975 4387 
Q 3406 4025 3406 3419 
Q 3406 3131 3298 2873 
Q 3191 2616 2906 2266 
Q 2828 2175 2409 1742 
Q 1991 1309 1228 531 
z
" transform="scale(0.015625)"/>
       </defs>
       <use xlink:href="#DejaVuSans-32"/>
       <use xlink:href="#DejaVuSans-30" x="63.623047"/>
      </g>
     </g>
    </g>
    <g id="xtick_4">
     <g id="line2d_7">
      <path d="M 213.712441 209.357969 
L 213.712441 23.077969 
" clip-path="url(#pecb69e8ba7)" style="fill: none; stroke: #26263a; stroke-width: 0.7; stroke-linecap: square"/>
     </g>
     <g id="line2d_8">
      <g>
       <use xlink:href="#m0cc2b752cd" x="213.712441" y="209.357969" style="fill: #b8c8e0; stroke: #b8c8e0; stroke-width: 0.8"/>
      </g>
     </g>
     <g id="text_4">
      <!-- 30 -->
      <g style="fill: #b8c8e0" transform="translate(207.986191 223.196562) scale(0.09 -0.09)">
       <defs>
        <path id="DejaVuSans-33" d="M 2597 2516 
Q 3050 2419 3304 2112 
Q 3559 1806 3559 1356 
Q 3559 666 3084 287 
Q 2609 -91 1734 -91 
Q 1441 -91 1130 -33 
Q 819 25 488 141 
L 488 750 
Q 750 597 1062 519 
Q 1375 441 1716 441 
Q 2309 441 2620 675 
Q 2931 909 2931 1356 
Q 2931 1769 2642 2001 
Q 2353 2234 1838 2234 
L 1294 2234 
L 1294 2753 
L 1863 2753 
Q 2328 2753 2575 2939 
Q 2822 3125 2822 3475 
Q 2822 3834 2567 4026 
Q 2313 4219 1838 4219 
Q 1578 4219 1281 4162 
Q 984 4106 628 3988 
L 628 4550 
Q 988 4650 1302 4700 
Q 1616 4750 1894 4750 
Q 2613 4750 3031 4423 
Q 3450 4097 3450 3541 
Q 3450 3153 3228 2886 
Q 3006 2619 2597 2516 
z
" transform="scale(0.015625)"/>
       </defs>
       <use xlink:href="#DejaVuSans-33"/>
       <use xlink:href="#DejaVuSans-30" x="63.623047"/>
      </g>
     </g>
    </g>
    <g id="xtick_5">
     <g id="line2d_9">
      <path d="M 270.813619 209.357969 
L 270.813619 23.077969 
" clip-path="url(#pecb69e8ba7)" style="fill: none; stroke: #26263a; stroke-width: 0.7; stroke-linecap: square"/>
     </g>
     <g id="line2d_10">
      <g>
       <use xlink:href="#m0cc2b752cd" x="270.813619" y="209.357969" style="fill: #b8c8e0; stroke: #b8c8e0; stroke-width: 0.8"/>
      </g>
     </g>
     <g id="text_5">
      <!-- 40 -->
      <g style="fill: #b8c8e0" transform="translate(265.087369 223.196562) scale(0.09 -0.09)">
       <defs>
        <path id="DejaVuSans-34" d="M 2419 4116 
L 825 1625 
L 2419 1625 
L 2419 4116 
z
M 2253 4666 
L 3047 4666 
L 3047 1625 
L 3713 1625 
L 3713 1100 
L 3047 1100 
L 3047 0 
L 2419 0 
L 2419 1100 
L 313 1100 
L 313 1709 
L 2253 4666 
z
" transform="scale(0.015625)"/>
       </defs>
       <use xlink:href="#DejaVuSans-34"/>
       <use xlink:href="#DejaVuSans-30" x="63.623047"/>
      </g>
     </g>
    </g>
    <g id="xtick_6">
     <g id="line2d_11">
      <path d="M 327.914798 209.357969 
L 327.914798 23.077969 
" clip-path="url(#pecb69e8ba7)" style="fill: none; stroke: #26263a; stroke-width: 0.7; stroke-linecap: square"/>
     </g>
     <g id="line2d_12">
      <g>
       <use xlink:href="#m0cc2b752cd" x="327.914798" y="209.357969" style="fill: #b8c8e0; stroke: #b8c8e0; stroke-width: 0.8"/>
      </g>
     </g>
     <g id="text_6">
      <!-- 50 -->
      <g style="fill: #b8c8e0" transform="translate(322.188548 223.196562) scale(0.09 -0.09)">
       <defs>
        <path id="DejaVuSans-35" d="M 691 4666 
L 3169 4666 
L 3169 4134 
L 1269 4134 
L 1269 2991 
Q 1406 3038 1543 3061 
Q 1681 3084 1819 3084 
Q 2600 3084 3056 2656 
Q 3513 2228 3513 1497 
Q 3513 744 3044 326 
Q 2575 -91 1722 -91 
Q 1428 -91 1123 -41 
Q 819 9 494 109 
L 494 744 
Q 775 591 1075 516 
Q 1375 441 1709 441 
Q 2250 441 2565 725 
Q 2881 1009 2881 1497 
Q 2881 1984 2565 2268 
Q 2250 2553 1709 2553 
Q 1456 2553 1204 2497 
Q 953 2441 691 2322 
L 691 4666 
z
" transform="scale(0.015625)"/>
       </defs>
       <use xlink:href="#DejaVuSans-35"/>
       <use xlink:href="#DejaVuSans-30" x="63.623047"/>
      </g>
     </g>
    </g>
    <g id="xtick_7">
     <g id="line2d_13">
      <path d="M 385.015976 209.357969 
L 385.015976 23.077969 
" clip-path="url(#pecb69e8ba7)" style="fill: none; stroke: #26263a; stroke-width: 0.7; stroke-linecap: square"/>
     </g>
     <g id="line2d_14">
      <g>
       <use xlink:href="#m0cc2b752cd" x="385.015976" y="209.357969" style="fill: #b8c8e0; stroke: #b8c8e0; stroke-width: 0.8"/>
      </g>
     </g>
     <g id="text_7">
      <!-- 60 -->
      <g style="fill: #b8c8e0" transform="translate(379.289726 223.196562) scale(0.09 -0.09)">
       <defs>
        <path id="DejaVuSans-36" d="M 2113 2584 
Q 1688 2584 1439 2293 
Q 1191 2003 1191 1497 
Q 1191 994 1439 701 
Q 1688 409 2113 409 
Q 2538 409 2786 701 
Q 3034 994 3034 1497 
Q 3034 2003 2786 2293 
Q 2538 2584 2113 2584 
z
M 3366 4563 
L 3366 3988 
Q 3128 4100 2886 4159 
Q 2644 4219 2406 4219 
Q 1781 4219 1451 3797 
Q 1122 3375 1075 2522 
Q 1259 2794 1537 2939 
Q 1816 3084 2150 3084 
Q 2853 3084 3261 2657 
Q 3669 2231 3669 1497 
Q 3669 778 3244 343 
Q 2819 -91 2113 -91 
Q 1303 -91 875 529 
Q 447 1150 447 2328 
Q 447 3434 972 4092 
Q 1497 4750 2381 4750 
Q 2619 4750 2861 4703 
Q 3103 4656 3366 4563 
z
" transform="scale(0.015625)"/>
       </defs>
       <use xlink:href="#DejaVuSans-36"/>
       <use xlink:href="#DejaVuSans-30" x="63.623047"/>
      </g>
     </g>
    </g>
    <g id="text_8">
     <!-- Time (s) -->
     <g style="fill: #b8c8e0" transform="translate(193.469187 236.666719) scale(0.1 -0.1)">
      <defs>
       <path id="DejaVuSans-54" d="M -19 4666 
L 3928 4666 
L 3928 4134 
L 2272 4134 
L 2272 0 
L 1638 0 
L 1638 4134 
L -19 4134 
L -19 4666 
z
" transform="scale(0.015625)"/>
       <path id="DejaVuSans-69" d="M 603 3500 
L 1178 3500 
L 1178 0 
L 603 0 
L 603 3500 
z
M 603 4863 
L 1178 4863 
L 1178 4134 
L 603 4134 
L 603 4863 
z
" transform="scale(0.015625)"/>
       <path id="DejaVuSans-6d" d="M 3328 2828 
Q 3544 3216 3844 3400 
Q 4144 3584 4550 3584 
Q 5097 3584 5394 3201 
Q 5691 2819 5691 2113 
L 5691 0 
L 5113 0 
L 5113 2094 
Q 5113 2597 4934 2840 
Q 4756 3084 4391 3084 
Q 3944 3084 3684 2787 
Q 3425 2491 3425 1978 
L 3425 0 
L 2847 0 
L 2847 2094 
Q 2847 2600 2669 2842 
Q 2491 3084 2119 3084 
Q 1678 3084 1418 2786 
Q 1159 2488 1159 1978 
L 1159 0 
L 581 0 
L 581 3500 
L 1159 3500 
L 1159 2956 
Q 1356 3278 1631 3431 
Q 1906 3584 2284 3584 
Q 2666 3584 2933 3390 
Q 3200 3197 3328 2828 
z
" transform="scale(0.015625)"/>
       <path id="DejaVuSans-65" d="M 3597 1894 
L 3597 1613 
L 953 1613 
Q 991 1019 1311 708 
Q 1631 397 2203 397 
Q 2534 397 2845 478 
Q 3156 559 3463 722 
L 3463 178 
Q 3153 47 2828 -22 
Q 2503 -91 2169 -91 
Q 1331 -91 842 396 
Q 353 884 353 1716 
Q 353 2575 817 3079 
Q 1281 3584 2069 3584 
Q 2775 3584 3186 3129 
Q 3597 2675 3597 1894 
z
M 3022 2063 
Q 3016 2534 2758 2815 
Q 2500 3097 2075 3097 
Q 1594 3097 1305 2825 
Q 1016 2553 972 2059 
L 3022 2063 
z
" transform="scale(0.015625)"/>
       <path id="DejaVuSans-20" transform="scale(0.015625)"/>
       <path id="DejaVuSans-28" d="M 1984 4856 
Q 1566 4138 1362 3434 
Q 1159 2731 1159 2009 
Q 1159 1288 1364 580 
Q 1569 -128 1984 -844 
L 1484 -844 
Q 1016 -109 783 600 
Q 550 1309 550 2009 
Q 550 2706 781 3412 
Q 1013 4119 1484 4856 
L 1984 4856 
z
" transform="scale(0.015625)"/>
       <path id="DejaVuSans-73" d="M 2834 3397 
L 2834 2853 
Q 2591 2978 2328 3040 
Q 2066 3103 1784 3103 
Q 1356 3103 1142 2972 
Q 928 2841 928 2578 
Q 928 2378 1081 2264 
Q 1234 2150 1697 2047 
L 1894 2003 
Q 2506 1872 2764 1633 
Q 3022 1394 3022 966 
Q 3022 478 2636 193 
Q 2250 -91 1575 -91 
Q 1294 -91 989 -36 
Q 684 19 347 128 
L 347 722 
Q 666 556 975 473 
Q 1284 391 1588 391 
Q 1994 391 2212 530 
Q 2431 669 2431 922 
Q 2431 1156 2273 1281 
Q 2116 1406 1581 1522 
L 1381 1569 
Q 847 1681 609 1914 
Q 372 2147 372 2553 
Q 372 3047 722 3315 
Q 1072 3584 1716 3584 
Q 2034 3584 2315 3537 
Q 2597 3491 2834 3397 
z
" transform="scale(0.015625)"/>
       <path id="DejaVuSans-29" d="M 513 4856 
L 1013 4856 
Q 1481 4119 1714 3412 
Q 1947 2706 1947 2009 
Q 1947 1309 1714 600 
Q 1481 -109 1013 -844 
L 513 -844 
Q 928 -128 1133 580 
Q 1338 1288 1338 2009 
Q 1338 2731 1133 3434 
Q 928 4138 513 4856 
z
" transform="scale(0.015625)"/>
      </defs>
      <use xlink:href="#DejaVuSans-54"/>
      <use xlink:href="#DejaVuSans-69" x="57.958984"/>
      <use xlink:href="#DejaVuSans-6d" x="85.742188"/>
      <use xlink:href="#DejaVuSans-65" x="183.154297"/>
      <use xlink:href="#DejaVuSans-20" x="244.677734"/>
      <use xlink:href="#DejaVuSans-28" x="276.464844"/>
      <use xlink:href="#DejaVuSans-73" x="315.478516"/>
      <use xlink:href="#DejaVuSans-29" x="367.578125"/>
     </g>
    </g>
   </g>
   <g id="matplotlib.axis_2">
    <g id="ytick_1">
     <g id="line2d_15">
      <path d="M 42.408906 202.458709 
L 385.18728 202.458709 
" clip-path="url(#pecb69e8ba7)" style="fill: none; stroke: #26263a; stroke-width: 0.7; stroke-linecap: square"/>
     </g>
     <g id="line2d_16">
      <defs>
       <path id="m8308bee3b5" d="M 0 0 
L -3.5 0 
" style="stroke: #b8c8e0; stroke-width: 0.8"/>
      </defs>
      <g>
       <use xlink:href="#m8308bee3b5" x="42.408906" y="202.458709" style="fill: #b8c8e0; stroke: #b8c8e0; stroke-width: 0.8"/>
      </g>
     </g>
     <g id="text_9">
      <!-- No -->
      <g style="fill: #b8c8e0" transform="translate(23.168906 205.878006) scale(0.09 -0.09)">
       <defs>
        <path id="DejaVuSans-4e" d="M 628 4666 
L 1478 4666 
L 3547 763 
L 3547 4666 
L 4159 4666 
L 4159 0 
L 3309 0 
L 1241 3903 
L 1241 0 
L 628 0 
L 628 4666 
z
" transform="scale(0.015625)"/>
        <path id="DejaVuSans-6f" d="M 1959 3097 
Q 1497 3097 1228 2736 
Q 959 2375 959 1747 
Q 959 1119 1226 758 
Q 1494 397 1959 397 
Q 2419 397 2687 759 
Q 2956 1122 2956 1747 
Q 2956 2369 2687 2733 
Q 2419 3097 1959 3097 
z
M 1959 3584 
Q 2709 3584 3137 3096 
Q 3566 2609 3566 1747 
Q 3566 888 3137 398 
Q 2709 -91 1959 -91 
Q 1206 -91 779 398 
Q 353 888 353 1747 
Q 353 2609 779 3096 
Q 1206 3584 1959 3584 
z
" transform="scale(0.015625)"/>
       </defs>
       <use xlink:href="#DejaVuSans-4e"/>
       <use xlink:href="#DejaVuSans-6f" x="74.804688"/>
      </g>
     </g>
    </g>
    <g id="ytick_2">
     <g id="line2d_17">
      <path d="M 42.408906 64.473524 
L 385.18728 64.473524 
" clip-path="url(#pecb69e8ba7)" style="fill: none; stroke: #26263a; stroke-width: 0.7; stroke-linecap: square"/>
     </g>
     <g id="line2d_18">
      <g>
       <use xlink:href="#m8308bee3b5" x="42.408906" y="64.473524" style="fill: #b8c8e0; stroke: #b8c8e0; stroke-width: 0.8"/>
      </g>
     </g>
     <g id="text_10">
      <!-- Yes -->
      <g style="fill: #b8c8e0" transform="translate(20.878125 67.892821) scale(0.09 -0.09)">
       <defs>
        <path id="DejaVuSans-59" d="M -13 4666 
L 666 4666 
L 1959 2747 
L 3244 4666 
L 3922 4666 
L 2272 2222 
L 2272 0 
L 1638 0 
L 1638 2222 
L -13 4666 
z
" transform="scale(0.015625)"/>
       </defs>
       <use xlink:href="#DejaVuSans-59"/>
       <use xlink:href="#DejaVuSans-65" x="47.833984"/>
       <use xlink:href="#DejaVuSans-73" x="109.357422"/>
      </g>
     </g>
    </g>
    <g id="text_11">
     <!-- Focused (1=yes) -->
     <g style="fill: #b8c8e0" transform="translate(14.798438 158.247656) rotate(-90) scale(0.1 -0.1)">
      <defs>
       <path id="DejaVuSans-46" d="M 628 4666 
L 3309 4666 
L 3309 4134 
L 1259 4134 
L 1259 2759 
L 3109 2759 
L 3109 2228 
L 1259 2228 
L 1259 0 
L 628 0 
L 628 4666 
z
" transform="scale(0.015625)"/>
       <path id="DejaVuSans-63" d="M 3122 3366 
L 3122 2828 
Q 2878 2963 2633 3030 
Q 2388 3097 2138 3097 
Q 1578 3097 1268 2742 
Q 959 2388 959 1747 
Q 959 1106 1268 751 
Q 1578 397 2138 397 
Q 2388 397 2633 464 
Q 2878 531 3122 666 
L 3122 134 
Q 2881 22 2623 -34 
Q 2366 -91 2075 -91 
Q 1284 -91 818 406 
Q 353 903 353 1747 
Q 353 2603 823 3093 
Q 1294 3584 2113 3584 
Q 2378 3584 2631 3529 
Q 2884 3475 3122 3366 
z
" transform="scale(0.015625)"/>
       <path id="DejaVuSans-75" d="M 544 1381 
L 544 3500 
L 1119 3500 
L 1119 1403 
Q 1119 906 1312 657 
Q 1506 409 1894 409 
Q 2359 409 2629 706 
Q 2900 1003 2900 1516 
L 2900 3500 
L 3475 3500 
L 3475 0 
L 2900 0 
L 2900 538 
Q 2691 219 2414 64 
Q 2138 -91 1772 -91 
Q 1169 -91 856 284 
Q 544 659 544 1381 
z
M 1991 3584 
L 1991 3584 
z
" transform="scale(0.015625)"/>
       <path id="DejaVuSans-64" d="M 2906 2969 
L 2906 4863 
L 3481 4863 
L 3481 0 
L 2906 0 
L 2906 525 
Q 2725 213 2448 61 
Q 2172 -91 1784 -91 
Q 1150 -91 751 415 
Q 353 922 353 1747 
Q 353 2572 751 3078 
Q 1150 3584 1784 3584 
Q 2172 3584 2448 3432 
Q 2725 3281 2906 2969 
z
M 947 1747 
Q 947 1113 1208 752 
Q 1469 391 1925 391 
Q 2381 391 2643 752 
Q 2906 1113 2906 1747 
Q 2906 2381 2643 2742 
Q 2381 3103 1925 3103 
Q 1469 3103 1208 2742 
Q 947 2381 947 1747 
z
" transform="scale(0.015625)"/>
       <path id="DejaVuSans-3d" d="M 678 2906 
L 4684 2906 
L 4684 2381 
L 678 2381 
L 678 2906 
z
M 678 1631 
L 4684 1631 
L 4684 1100 
L 678 1100 
L 678 1631 
z
" transform="scale(0.015625)"/>
       <path id="DejaVuSans-79" d="M 2059 -325 
Q 1816 -950 1584 -1140 
Q 1353 -1331 966 -1331 
L 506 -1331 
L 506 -850 
L 844 -850 
Q 1081 -850 1212 -737 
Q 1344 -625 1503 -206 
L 1606 56 
L 191 3500 
L 800 3500 
L 1894 763 
L 2988 3500 
L 3597 3500 
L 2059 -325 
z
" transform="scale(0.015625)"/>
      </defs>
      <use xlink:href="#DejaVuSans-46"/>
      <use xlink:href="#DejaVuSans-6f" x="53.894531"/>
      <use xlink:href="#DejaVuSans-63" x="115.076172"/>
      <use xlink:href="#DejaVuSans-75" x="170.056641"/>
      <use xlink:href="#DejaVuSans-73" x="233.435547"/>
      <use xlink:href="#DejaVuSans-65" x="285.535156"/>
      <use xlink:href="#DejaVuSans-64" x="347.058594"/>
      <use xlink:href="#DejaVuSans-20" x="410.535156"/>
      <use xlink:href="#DejaVuSans-28" x="442.322266"/>
      <use xlink:href="#DejaVuSans-31" x="481.335938"/>
      <use xlink:href="#DejaVuSans-3d" x="544.958984"/>
      <use xlink:href="#DejaVuSans-79" x="628.748047"/>
      <use xlink:href="#DejaVuSans-65" x="687.927734"/>
      <use xlink:href="#DejaVuSans-73" x="749.451172"/>
      <use xlink:href="#DejaVuSans-29" x="801.550781"/>
     </g>
    </g>
   </g>
   <g id="patch_3">
    <path d="M 39.839353 202.458709 
L 44.978459 202.458709 
L 44.978459 64.473524 
L 39.839353 64.473524 
z
" clip-path="url(#pecb69e8ba7)" style="fill: #9bbcff; opacity: 0.85"/>
   </g>
   <g id="patch_4">
    <path d="M 45.829267 202.458709 
L 50.968373 202.458709 
L 50.968373 64.473524 
L 45.829267 64.473524 
z
" clip-path="url(#pecb69e8ba7)" style="fill: #9bbcff; opacity: 0.85"/>
   </g>
   <g id="patch_5">
    <path d="M 51.550805 202.458709 
L 56.689911 202.458709 
L 56.689911 64.473524 
L 51.550805 64.473524 
z
" clip-path="url(#pecb69e8ba7)" style="fill: #9bbcff; opacity: 0.85"/>
   </g>
   <g id="patch_6">
    <path d="M 58.420077 202.458709 
L 63.559183 202.458709 
L 63.559183 202.458709 
L 58.420077 202.458709 
z
" clip-path="url(#pecb69e8ba7)" style="fill: #26263a; opacity: 0.85"/>
   </g>
   <g id="patch_7">
    <path d="M 63.844689 202.458709 
L 68.983795 202.458709 
L 68.983795 64.473524 
L 63.844689 64.473524 
z
" clip-path="url(#pecb69e8ba7)" style="fill: #9bbcff; opacity: 0.85"/>
   </g>
   <g id="patch_8">
    <path d="M 69.560517 202.458709 
L 74.699623 202.458709 
L 74.699623 64.473524 
L 69.560517 64.473524 
z
" clip-path="url(#pecb69e8ba7)" style="fill: #9bbcff; opacity: 0.85"/>
   </g>
   <g id="patch_9">
    <path d="M 75.282055 202.458709 
L 80.421161 202.458709 
L 80.421161 64.473524 
L 75.282055 64.473524 
z
" clip-path="url(#pecb69e8ba7)" style="fill: #9bbcff; opacity: 0.85"/>
   </g>
   <g id="patch_10">
    <path d="M 82.431122 202.458709 
L 87.570228 202.458709 
L 87.570228 64.473524 
L 82.431122 64.473524 
z
" clip-path="url(#pecb69e8ba7)" style="fill: #9bbcff; opacity: 0.85"/>
   </g>
   <g id="patch_11">
    <path d="M 87.581648 202.458709 
L 92.720754 202.458709 
L 92.720754 64.473524 
L 87.581648 64.473524 
z
" clip-path="url(#pecb69e8ba7)" style="fill: #9bbcff; opacity: 0.85"/>
   </g>
   <g id="patch_12">
    <path d="M 93.320317 202.458709 
L 98.459423 202.458709 
L 98.459423 64.473524 
L 93.320317 64.473524 
z
" clip-path="url(#pecb69e8ba7)" style="fill: #9bbcff; opacity: 0.85"/>
   </g>
   <g id="patch_13">
    <path d="M 99.30452 202.458709 
L 104.443626 202.458709 
L 104.443626 64.473524 
L 99.30452 64.473524 
z
" clip-path="url(#pecb69e8ba7)" style="fill: #9bbcff; opacity: 0.85"/>
   </g>
   <g id="patch_14">
    <path d="M 105.882576 202.458709 
L 111.021682 202.458709 
L 111.021682 64.473524 
L 105.882576 64.473524 
z
" clip-path="url(#pecb69e8ba7)" style="fill: #9bbcff; opacity: 0.85"/>
   </g>
   <g id="patch_15">
    <path d="M 115.327111 202.458709 
L 120.466217 202.458709 
L 120.466217 64.473524 
L 115.327111 64.473524 
z
" clip-path="url(#pecb69e8ba7)" style="fill: #9bbcff; opacity: 0.85"/>
   </g>
   <g id="patch_16">
    <path d="M 123.05861 202.458709 
L 128.197717 202.458709 
L 128.197717 64.473524 
L 123.05861 64.473524 
z
" clip-path="url(#pecb69e8ba7)" style="fill: #9bbcff; opacity: 0.85"/>
   </g>
   <g id="patch_17">
    <path d="M 128.511773 202.458709 
L 133.650879 202.458709 
L 133.650879 64.473524 
L 128.511773 64.473524 
z
" clip-path="url(#pecb69e8ba7)" style="fill: #9bbcff; opacity: 0.85"/>
   </g>
   <g id="patch_18">
    <path d="M 134.501687 202.458709 
L 139.640793 202.458709 
L 139.640793 64.473524 
L 134.501687 64.473524 
z
" clip-path="url(#pecb69e8ba7)" style="fill: #9bbcff; opacity: 0.85"/>
   </g>
   <g id="patch_19">
    <path d="M 141.365248 202.458709 
L 146.504354 202.458709 
L 146.504354 64.473524 
L 141.365248 64.473524 
z
" clip-path="url(#pecb69e8ba7)" style="fill: #9bbcff; opacity: 0.85"/>
   </g>
   <g id="patch_20">
    <path d="M 147.366582 202.458709 
L 152.505688 202.458709 
L 152.505688 64.473524 
L 147.366582 64.473524 
z
" clip-path="url(#pecb69e8ba7)" style="fill: #9bbcff; opacity: 0.85"/>
   </g>
   <g id="patch_21">
    <path d="M 153.08812 202.458709 
L 158.227226 202.458709 
L 158.227226 64.473524 
L 153.08812 64.473524 
z
" clip-path="url(#pecb69e8ba7)" style="fill: #9bbcff; opacity: 0.85"/>
   </g>
   <g id="patch_22">
    <path d="M 158.798238 202.458709 
L 163.937344 202.458709 
L 163.937344 64.473524 
L 158.798238 64.473524 
z
" clip-path="url(#pecb69e8ba7)" style="fill: #9bbcff; opacity: 0.85"/>
   </g>
   <g id="patch_23">
    <path d="M 164.519776 202.458709 
L 169.658882 202.458709 
L 169.658882 64.473524 
L 164.519776 64.473524 
z
" clip-path="url(#pecb69e8ba7)" style="fill: #9bbcff; opacity: 0.85"/>
   </g>
   <g id="patch_24">
    <path d="M 170.247024 202.458709 
L 175.38613 202.458709 
L 175.38613 64.473524 
L 170.247024 64.473524 
z
" clip-path="url(#pecb69e8ba7)" style="fill: #9bbcff; opacity: 0.85"/>
   </g>
   <g id="patch_25">
    <path d="M 176.254068 202.458709 
L 181.393174 202.458709 
L 181.393174 64.473524 
L 176.254068 64.473524 
z
" clip-path="url(#pecb69e8ba7)" style="fill: #9bbcff; opacity: 0.85"/>
   </g>
   <g id="patch_26">
    <path d="M 181.707231 202.458709 
L 186.846337 202.458709 
L 186.846337 64.473524 
L 181.707231 64.473524 
z
" clip-path="url(#pecb69e8ba7)" style="fill: #9bbcff; opacity: 0.85"/>
   </g>
   <g id="patch_27">
    <path d="M 187.691434 202.458709 
L 192.83054 202.458709 
L 192.83054 64.473524 
L 187.691434 64.473524 
z
" clip-path="url(#pecb69e8ba7)" style="fill: #9bbcff; opacity: 0.85"/>
   </g>
   <g id="patch_28">
    <path d="M 193.412972 202.458709 
L 198.552078 202.458709 
L 198.552078 64.473524 
L 193.412972 64.473524 
z
" clip-path="url(#pecb69e8ba7)" style="fill: #9bbcff; opacity: 0.85"/>
   </g>
   <g id="patch_29">
    <path d="M 200.008158 202.458709 
L 205.147264 202.458709 
L 205.147264 64.473524 
L 200.008158 64.473524 
z
" clip-path="url(#pecb69e8ba7)" style="fill: #9bbcff; opacity: 0.85"/>
   </g>
   <g id="patch_30">
    <path d="M 211.439814 202.458709 
L 216.57892 202.458709 
L 216.57892 64.473524 
L 211.439814 64.473524 
z
" clip-path="url(#pecb69e8ba7)" style="fill: #9bbcff; opacity: 0.85"/>
   </g>
   <g id="patch_31">
    <path d="M 217.155642 202.458709 
L 222.294748 202.458709 
L 222.294748 64.473524 
L 217.155642 64.473524 
z
" clip-path="url(#pecb69e8ba7)" style="fill: #9bbcff; opacity: 0.85"/>
   </g>
   <g id="patch_32">
    <path d="M 223.145556 202.458709 
L 228.284662 202.458709 
L 228.284662 64.473524 
L 223.145556 64.473524 
z
" clip-path="url(#pecb69e8ba7)" style="fill: #9bbcff; opacity: 0.85"/>
   </g>
   <g id="patch_33">
    <path d="M 228.861384 202.458709 
L 234.00049 202.458709 
L 234.00049 64.473524 
L 228.861384 64.473524 
z
" clip-path="url(#pecb69e8ba7)" style="fill: #9bbcff; opacity: 0.85"/>
   </g>
   <g id="patch_34">
    <path d="M 234.582922 202.458709 
L 239.722028 202.458709 
L 239.722028 64.473524 
L 234.582922 64.473524 
z
" clip-path="url(#pecb69e8ba7)" style="fill: #9bbcff; opacity: 0.85"/>
   </g>
   <g id="patch_35">
    <path d="M 240.29304 202.458709 
L 245.432146 202.458709 
L 245.432146 64.473524 
L 240.29304 64.473524 
z
" clip-path="url(#pecb69e8ba7)" style="fill: #9bbcff; opacity: 0.85"/>
   </g>
   <g id="patch_36">
    <path d="M 246.003157 202.458709 
L 251.142264 202.458709 
L 251.142264 64.473524 
L 246.003157 64.473524 
z
" clip-path="url(#pecb69e8ba7)" style="fill: #9bbcff; opacity: 0.85"/>
   </g>
   <g id="patch_37">
    <path d="M 253.146515 202.458709 
L 258.285621 202.458709 
L 258.285621 64.473524 
L 253.146515 64.473524 
z
" clip-path="url(#pecb69e8ba7)" style="fill: #9bbcff; opacity: 0.85"/>
   </g>
   <g id="patch_38">
    <path d="M 258.862343 202.458709 
L 264.001449 202.458709 
L 264.001449 64.473524 
L 258.862343 64.473524 
z
" clip-path="url(#pecb69e8ba7)" style="fill: #9bbcff; opacity: 0.85"/>
   </g>
   <g id="patch_39">
    <path d="M 264.578171 202.458709 
L 269.717277 202.458709 
L 269.717277 64.473524 
L 264.578171 64.473524 
z
" clip-path="url(#pecb69e8ba7)" style="fill: #9bbcff; opacity: 0.85"/>
   </g>
   <g id="patch_40">
    <path d="M 270.293999 202.458709 
L 275.433105 202.458709 
L 275.433105 64.473524 
L 270.293999 64.473524 
z
" clip-path="url(#pecb69e8ba7)" style="fill: #9bbcff; opacity: 0.85"/>
   </g>
   <g id="patch_41">
    <path d="M 276.004117 202.458709 
L 281.143223 202.458709 
L 281.143223 64.473524 
L 276.004117 64.473524 
z
" clip-path="url(#pecb69e8ba7)" style="fill: #9bbcff; opacity: 0.85"/>
   </g>
   <g id="patch_42">
    <path d="M 281.714234 202.458709 
L 286.85334 202.458709 
L 286.85334 64.473524 
L 281.714234 64.473524 
z
" clip-path="url(#pecb69e8ba7)" style="fill: #9bbcff; opacity: 0.85"/>
   </g>
   <g id="patch_43">
    <path d="M 287.424352 202.458709 
L 292.563458 202.458709 
L 292.563458 64.473524 
L 287.424352 64.473524 
z
" clip-path="url(#pecb69e8ba7)" style="fill: #9bbcff; opacity: 0.85"/>
   </g>
   <g id="patch_44">
    <path d="M 293.14018 202.458709 
L 298.279286 202.458709 
L 298.279286 64.473524 
L 293.14018 64.473524 
z
" clip-path="url(#pecb69e8ba7)" style="fill: #9bbcff; opacity: 0.85"/>
   </g>
   <g id="patch_45">
    <path d="M 298.867428 202.458709 
L 304.006534 202.458709 
L 304.006534 64.473524 
L 298.867428 64.473524 
z
" clip-path="url(#pecb69e8ba7)" style="fill: #9bbcff; opacity: 0.85"/>
   </g>
   <g id="patch_46">
    <path d="M 304.863052 202.458709 
L 310.002158 202.458709 
L 310.002158 64.473524 
L 304.863052 64.473524 
z
" clip-path="url(#pecb69e8ba7)" style="fill: #9bbcff; opacity: 0.85"/>
   </g>
   <g id="patch_47">
    <path d="M 310.852966 202.458709 
L 315.992072 202.458709 
L 315.992072 64.473524 
L 310.852966 64.473524 
z
" clip-path="url(#pecb69e8ba7)" style="fill: #9bbcff; opacity: 0.85"/>
   </g>
   <g id="patch_48">
    <path d="M 317.436732 202.458709 
L 322.575838 202.458709 
L 322.575838 64.473524 
L 317.436732 64.473524 
z
" clip-path="url(#pecb69e8ba7)" style="fill: #9bbcff; opacity: 0.85"/>
   </g>
   <g id="patch_49">
    <path d="M 323.152559 202.458709 
L 328.291666 202.458709 
L 328.291666 64.473524 
L 323.152559 64.473524 
z
" clip-path="url(#pecb69e8ba7)" style="fill: #9bbcff; opacity: 0.85"/>
   </g>
   <g id="patch_50">
    <path d="M 330.021831 202.458709 
L 335.160937 202.458709 
L 335.160937 64.473524 
L 330.021831 64.473524 
z
" clip-path="url(#pecb69e8ba7)" style="fill: #9bbcff; opacity: 0.85"/>
   </g>
   <g id="patch_51">
    <path d="M 336.873973 202.458709 
L 342.013079 202.458709 
L 342.013079 202.458709 
L 336.873973 202.458709 
z
" clip-path="url(#pecb69e8ba7)" style="fill: #26263a; opacity: 0.85"/>
   </g>
   <g id="patch_52">
    <path d="M 342.58409 202.458709 
L 347.723196 202.458709 
L 347.723196 64.473524 
L 342.58409 64.473524 
z
" clip-path="url(#pecb69e8ba7)" style="fill: #9bbcff; opacity: 0.85"/>
   </g>
   <g id="patch_53">
    <path d="M 348.311339 202.458709 
L 353.450445 202.458709 
L 353.450445 64.473524 
L 348.311339 64.473524 
z
" clip-path="url(#pecb69e8ba7)" style="fill: #9bbcff; opacity: 0.85"/>
   </g>
   <g id="patch_54">
    <path d="M 354.027167 202.458709 
L 359.166273 202.458709 
L 359.166273 64.473524 
L 354.027167 64.473524 
z
" clip-path="url(#pecb69e8ba7)" style="fill: #9bbcff; opacity: 0.85"/>
   </g>
   <g id="patch_55">
    <path d="M 359.737284 202.458709 
L 364.87639 202.458709 
L 364.87639 64.473524 
L 359.737284 64.473524 
z
" clip-path="url(#pecb69e8ba7)" style="fill: #9bbcff; opacity: 0.85"/>
   </g>
   <g id="patch_56">
    <path d="M 365.458822 202.458709 
L 370.597929 202.458709 
L 370.597929 64.473524 
L 365.458822 64.473524 
z
" clip-path="url(#pecb69e8ba7)" style="fill: #9bbcff; opacity: 0.85"/>
   </g>
   <g id="patch_57">
    <path d="M 371.186071 202.458709 
L 376.325177 202.458709 
L 376.325177 64.473524 
L 371.186071 64.473524 
z
" clip-path="url(#pecb69e8ba7)" style="fill: #9bbcff; opacity: 0.85"/>
   </g>
   <g id="patch_58">
    <path d="M 376.907609 202.458709 
L 382.046715 202.458709 
L 382.046715 64.473524 
L 376.907609 64.473524 
z
" clip-path="url(#pecb69e8ba7)" style="fill: #9bbcff; opacity: 0.85"/>
   </g>
   <g id="patch_59">
    <path d="M 42.408906 209.357969 
L 42.408906 23.077969 
" style="fill: none; stroke: #2d2d4a; stroke-width: 0.8; stroke-linejoin: miter; stroke-linecap: square"/>
   </g>
   <g id="patch_60">
    <path d="M 385.18728 209.357969 
L 385.18728 23.077969 
" style="fill: none; stroke: #2d2d4a; stroke-width: 0.8; stroke-linejoin: miter; stroke-linecap: square"/>
   </g>
   <g id="patch_61">
    <path d="M 42.408906 209.357969 
L 385.18728 209.357969 
" style="fill: none; stroke: #2d2d4a; stroke-width: 0.8; stroke-linejoin: miter; stroke-linecap: square"/>
   </g>
   <g id="patch_62">
    <path d="M 42.408906 23.077969 
L 385.18728 23.077969 
" style="fill: none; stroke: #2d2d4a; stroke-width: 0.8; stroke-linejoin: miter; stroke-linecap: square"/>
   </g>
   <g id="text_12">
    <!-- 96% focused -->
    <g style="fill: #9bbcff" transform="translate(313.741087 39.990406) scale(0.1 -0.1)">
     <defs>
      <path id="DejaVuSans-39" d="M 703 97 
L 703 672 
Q 941 559 1184 500 
Q 1428 441 1663 441 
Q 2288 441 2617 861 
Q 2947 1281 2994 2138 
Q 2813 1869 2534 1725 
Q 2256 1581 1919 1581 
Q 1219 1581 811 2004 
Q 403 2428 403 3163 
Q 403 3881 828 4315 
Q 1253 4750 1959 4750 
Q 2769 4750 3195 4129 
Q 3622 3509 3622 2328 
Q 3622 1225 3098 567 
Q 2575 -91 1691 -91 
Q 1453 -91 1209 -44 
Q 966 3 703 97 
z
M 1959 2075 
Q 2384 2075 2632 2365 
Q 2881 2656 2881 3163 
Q 2881 3666 2632 3958 
Q 2384 4250 1959 4250 
Q 1534 4250 1286 3958 
Q 1038 3666 1038 3163 
Q 1038 2656 1286 2365 
Q 1534 2075 1959 2075 
z
" transform="scale(0.015625)"/>
      <path id="DejaVuSans-25" d="M 4653 2053 
Q 4381 2053 4226 1822 
Q 4072 1591 4072 1178 
Q 4072 772 4226 539 
Q 4381 306 4653 306 
Q 4919 306 5073 539 
Q 5228 772 5228 1178 
Q 5228 1588 5073 1820 
Q 4919 2053 4653 2053 
z
M 4653 2450 
Q 5147 2450 5437 2106 
Q 5728 1763 5728 1178 
Q 5728 594 5436 251 
Q 5144 -91 4653 -91 
Q 4153 -91 3862 251 
Q 3572 594 3572 1178 
Q 3572 1766 3864 2108 
Q 4156 2450 4653 2450 
z
M 1428 4353 
Q 1159 4353 1004 4120 
Q 850 3888 850 3481 
Q 850 3069 1003 2837 
Q 1156 2606 1428 2606 
Q 1700 2606 1854 2837 
Q 2009 3069 2009 3481 
Q 2009 3884 1853 4118 
Q 1697 4353 1428 4353 
z
M 4250 4750 
L 4750 4750 
L 1831 -91 
L 1331 -91 
L 4250 4750 
z
M 1428 4750 
Q 1922 4750 2215 4408 
Q 2509 4066 2509 3481 
Q 2509 2891 2217 2550 
Q 1925 2209 1428 2209 
Q 931 2209 642 2551 
Q 353 2894 353 3481 
Q 353 4063 643 4406 
Q 934 4750 1428 4750 
z
" transform="scale(0.015625)"/>
      <path id="DejaVuSans-66" d="M 2375 4863 
L 2375 4384 
L 1825 4384 
Q 1516 4384 1395 4259 
Q 1275 4134 1275 3809 
L 1275 3500 
L 2222 3500 
L 2222 3053 
L 1275 3053 
L 1275 0 
L 697 0 
L 697 3053 
L 147 3053 
L 147 3500 
L 697 3500 
L 697 3744 
Q 697 4328 969 4595 
Q 1241 4863 1831 4863 
L 2375 4863 
z
" transform="scale(0.015625)"/>
     </defs>
     <use xlink:href="#DejaVuSans-39"/>
     <use xlink:href="#DejaVuSans-36" x="63.623047"/>
     <use xlink:href="#DejaVuSans-25" x="127.246094"/>
     <use xlink:href="#DejaVuSans-20" x="222.265625"/>
     <use xlink:href="#DejaVuSans-66" x="254.052734"/>
     <use xlink:href="#DejaVuSans-6f" x="289.257812"/>
     <use xlink:href="#DejaVuSans-63" x="350.439453"/>
     <use xlink:href="#DejaVuSans-75" x="405.419922"/>
     <use xlink:href="#DejaVuSans-73" x="468.798828"/>
     <use xlink:href="#DejaVuSans-65" x="520.898438"/>
     <use xlink:href="#DejaVuSans-64" x="582.421875"/>
    </g>
   </g>
   <g id="text_13">
    <!-- Focused gaze -->
    <g style="fill: #b8c8e0" transform="translate(164.24778 17.077969) scale(0.13 -0.13)">
     <defs>
      <path id="DejaVuSans-Bold-46" d="M 588 4666 
L 3834 4666 
L 3834 3756 
L 1791 3756 
L 1791 2888 
L 3713 2888 
L 3713 1978 
L 1791 1978 
L 1791 0 
L 588 0 
L 588 4666 
z
" transform="scale(0.015625)"/>
      <path id="DejaVuSans-Bold-6f" d="M 2203 2784 
Q 1831 2784 1636 2517 
Q 1441 2250 1441 1747 
Q 1441 1244 1636 976 
Q 1831 709 2203 709 
Q 2569 709 2762 976 
Q 2956 1244 2956 1747 
Q 2956 2250 2762 2517 
Q 2569 2784 2203 2784 
z
M 2203 3584 
Q 3106 3584 3614 3096 
Q 4122 2609 4122 1747 
Q 4122 884 3614 396 
Q 3106 -91 2203 -91 
Q 1297 -91 786 396 
Q 275 884 275 1747 
Q 275 2609 786 3096 
Q 1297 3584 2203 3584 
z
" transform="scale(0.015625)"/>
      <path id="DejaVuSans-Bold-63" d="M 3366 3391 
L 3366 2478 
Q 3138 2634 2908 2709 
Q 2678 2784 2431 2784 
Q 1963 2784 1702 2511 
Q 1441 2238 1441 1747 
Q 1441 1256 1702 982 
Q 1963 709 2431 709 
Q 2694 709 2930 787 
Q 3166 866 3366 1019 
L 3366 103 
Q 3103 6 2833 -42 
Q 2563 -91 2291 -91 
Q 1344 -91 809 395 
Q 275 881 275 1747 
Q 275 2613 809 3098 
Q 1344 3584 2291 3584 
Q 2566 3584 2833 3536 
Q 3100 3488 3366 3391 
z
" transform="scale(0.015625)"/>
      <path id="DejaVuSans-Bold-75" d="M 500 1363 
L 500 3500 
L 1625 3500 
L 1625 3150 
Q 1625 2866 1622 2436 
Q 1619 2006 1619 1863 
Q 1619 1441 1641 1255 
Q 1663 1069 1716 984 
Q 1784 875 1895 815 
Q 2006 756 2150 756 
Q 2500 756 2700 1025 
Q 2900 1294 2900 1772 
L 2900 3500 
L 4019 3500 
L 4019 0 
L 2900 0 
L 2900 506 
Q 2647 200 2364 54 
Q 2081 -91 1741 -91 
Q 1134 -91 817 281 
Q 500 653 500 1363 
z
" transform="scale(0.015625)"/>
      <path id="DejaVuSans-Bold-73" d="M 3272 3391 
L 3272 2541 
Q 2913 2691 2578 2766 
Q 2244 2841 1947 2841 
Q 1628 2841 1473 2761 
Q 1319 2681 1319 2516 
Q 1319 2381 1436 2309 
Q 1553 2238 1856 2203 
L 2053 2175 
Q 2913 2066 3209 1816 
Q 3506 1566 3506 1031 
Q 3506 472 3093 190 
Q 2681 -91 1863 -91 
Q 1516 -91 1145 -36 
Q 775 19 384 128 
L 384 978 
Q 719 816 1070 734 
Q 1422 653 1784 653 
Q 2113 653 2278 743 
Q 2444 834 2444 1013 
Q 2444 1163 2330 1236 
Q 2216 1309 1875 1350 
L 1678 1375 
Q 931 1469 631 1722 
Q 331 1975 331 2491 
Q 331 3047 712 3315 
Q 1094 3584 1881 3584 
Q 2191 3584 2531 3537 
Q 2872 3491 3272 3391 
z
" transform="scale(0.015625)"/>
      <path id="DejaVuSans-Bold-65" d="M 4031 1759 
L 4031 1441 
L 1416 1441 
Q 1456 1047 1700 850 
Q 1944 653 2381 653 
Q 2734 653 3104 758 
Q 3475 863 3866 1075 
L 3866 213 
Q 3469 63 3072 -14 
Q 2675 -91 2278 -91 
Q 1328 -91 801 392 
Q 275 875 275 1747 
Q 275 2603 792 3093 
Q 1309 3584 2216 3584 
Q 3041 3584 3536 3087 
Q 4031 2591 4031 1759 
z
M 2881 2131 
Q 2881 2450 2695 2645 
Q 2509 2841 2209 2841 
Q 1884 2841 1681 2658 
Q 1478 2475 1428 2131 
L 2881 2131 
z
" transform="scale(0.015625)"/>
      <path id="DejaVuSans-Bold-64" d="M 2919 2988 
L 2919 4863 
L 4044 4863 
L 4044 0 
L 2919 0 
L 2919 506 
Q 2688 197 2409 53 
Q 2131 -91 1766 -91 
Q 1119 -91 703 423 
Q 288 938 288 1747 
Q 288 2556 703 3070 
Q 1119 3584 1766 3584 
Q 2128 3584 2408 3439 
Q 2688 3294 2919 2988 
z
M 2181 722 
Q 2541 722 2730 984 
Q 2919 1247 2919 1747 
Q 2919 2247 2730 2509 
Q 2541 2772 2181 2772 
Q 1825 2772 1636 2509 
Q 1447 2247 1447 1747 
Q 1447 1247 1636 984 
Q 1825 722 2181 722 
z
" transform="scale(0.015625)"/>
      <path id="DejaVuSans-Bold-20" transform="scale(0.015625)"/>
      <path id="DejaVuSans-Bold-67" d="M 2919 594 
Q 2688 288 2409 144 
Q 2131 0 1766 0 
Q 1125 0 706 504 
Q 288 1009 288 1791 
Q 288 2575 706 3076 
Q 1125 3578 1766 3578 
Q 2131 3578 2409 3434 
Q 2688 3291 2919 2981 
L 2919 3500 
L 4044 3500 
L 4044 353 
Q 4044 -491 3511 -936 
Q 2978 -1381 1966 -1381 
Q 1638 -1381 1331 -1331 
Q 1025 -1281 716 -1178 
L 716 -306 
Q 1009 -475 1290 -558 
Q 1572 -641 1856 -641 
Q 2406 -641 2662 -400 
Q 2919 -159 2919 353 
L 2919 594 
z
M 2181 2772 
Q 1834 2772 1640 2515 
Q 1447 2259 1447 1791 
Q 1447 1309 1634 1061 
Q 1822 813 2181 813 
Q 2531 813 2725 1069 
Q 2919 1325 2919 1791 
Q 2919 2259 2725 2515 
Q 2531 2772 2181 2772 
z
" transform="scale(0.015625)"/>
      <path id="DejaVuSans-Bold-61" d="M 2106 1575 
Q 1756 1575 1579 1456 
Q 1403 1338 1403 1106 
Q 1403 894 1545 773 
Q 1688 653 1941 653 
Q 2256 653 2472 879 
Q 2688 1106 2688 1447 
L 2688 1575 
L 2106 1575 
z
M 3816 1997 
L 3816 0 
L 2688 0 
L 2688 519 
Q 2463 200 2181 54 
Q 1900 -91 1497 -91 
Q 953 -91 614 226 
Q 275 544 275 1050 
Q 275 1666 698 1953 
Q 1122 2241 2028 2241 
L 2688 2241 
L 2688 2328 
Q 2688 2594 2478 2717 
Q 2269 2841 1825 2841 
Q 1466 2841 1156 2769 
Q 847 2697 581 2553 
L 581 3406 
Q 941 3494 1303 3539 
Q 1666 3584 2028 3584 
Q 2975 3584 3395 3211 
Q 3816 2838 3816 1997 
z
" transform="scale(0.015625)"/>
      <path id="DejaVuSans-Bold-7a" d="M 366 3500 
L 3419 3500 
L 3419 2719 
L 1575 800 
L 3419 800 
L 3419 0 
L 288 0 
L 288 781 
L 2131 2700 
L 366 2700 
L 366 3500 
z
" transform="scale(0.015625)"/>
     </defs>
     <use xlink:href="#DejaVuSans-Bold-46"/>
     <use xlink:href="#DejaVuSans-Bold-6f" x="64.310547"/>
     <use xlink:href="#DejaVuSans-Bold-63" x="133.011719"/>
     <use xlink:href="#DejaVuSans-Bold-75" x="192.289062"/>
     <use xlink:href="#DejaVuSans-Bold-73" x="263.480469"/>
     <use xlink:href="#DejaVuSans-Bold-65" x="323.001953"/>
     <use xlink:href="#DejaVuSans-Bold-64" x="390.824219"/>
     <use xlink:href="#DejaVuSans-Bold-20" x="462.40625"/>
     <use xlink:href="#DejaVuSans-Bold-67" x="497.220703"/>
     <use xlink:href="#DejaVuSans-Bold-61" x="568.802734"/>
     <use xlink:href="#DejaVuSans-Bold-7a" x="636.283203"/>
     <use xlink:href="#DejaVuSans-Bold-65" x="694.486328"/>
    </g>
   </g>
  </g>
 </g>
 <defs>
  <clipPath id="pecb69e8ba7">
   <rect x="42.408906" y="23.077969" width="342.778373" height="186.28"/>
  </clipPath>
 </defs>
</svg>
