<?xml version="1.0" encoding="utf-8" standalone="no"?>
<!DOCTYPE svg PUBLIC "-//W3C//DTD SVG 1.1//EN"
  "http://www.w3.org/Graphics/SVG/1.1/DTD/svg11.dtd">
<svg xmlns:xlink="http://www.w3.org/1999/xlink" width="398.020625pt" height="245.946406pt" viewBox="0 0 398.020625 245.946406" xmlns="http://www.w3.org/2000/svg" version="1.1">
 <metadata>
  <rdf:RDF xmlns:dc="http://purl.org/dc/elements/1.1/" xmlns:cc="http://creativecommons.org/ns#" xmlns:rdf="http://www.w3.org/1999/02/22-rdf-syntax-ns#">
   <cc:Work>
    <dc:type rdf:resource="http://purl.org/dc/dcmitype/StillImage"/>
    <dc:date>2026-06-03T15:53:42.763320</dc:date>
    <dc:format>image/svg+xml</dc:format>
    <dc:creator>
     <cc:Agent>
      <dc:title>Matplotlib v3.8.0, https://matplotlib.org/</dc:title>
     </cc:Agent>
    </dc:creator>
   </cc:Work>
  </rdf:RDF>
 </metadata>
 <defs>
  <style type="text/css">*{stroke-linejoin: round; stroke-linecap: butt}</style>
 </defs>
 <g id="figure_1">
  <g id="patch_1">
   <path d="M 0 245.946406 
L 398.020625 245.946406 
L 398.020625 0 
L 0 0 
z
" style="fill: #0e0e1c"/>
  </g>
  <g id="axes_1">
   <g id="patch_2">
    <path d="M 39.330625 209.357969 
L 390.820625 209.357969 
L 390.820625 23.077969 
L 39.330625 23.077969 
z
" style="fill: #13131f"/>
   </g>
   <g id="matplotlib.axis_1">
    <g id="xtick_1">
     <g id="line2d_1">
      <path d="M 39.330625 209.357969 
L 39.330625 23.077969 
" clip-path="url(#pfc3963f23a)" style="fill: none; stroke: #26263a; stroke-width: 0.7; stroke-linecap: square"/>
     </g>
     <g id="line2d_2">
      <defs>
       <path id="mfd6a6701a4" d="M 0 0 
L 0 3.5 
" style="stroke: #b8c8e0; stroke-width: 0.8"/>
      </defs>
      <g>
       <use xlink:href="#mfd6a6701a4" x="39.330625" y="209.357969" style="fill: #b8c8e0; stroke: #b8c8e0; stroke-width: 0.8"/>
      </g>
     </g>
     <g id="text_1">
      <!-- 0 -->
      <g style="fill: #b8c8e0" transform="translate(36.4675 223.196562) scale(0.09 -0.09)">
       <defs>
        <path id="DejaVuSans-30" d="M 2034 4250 
Q 1547 4250 1301 3770 
Q 1056 3291 1056 2328 
Q 1056 1369 1301 889 
Q 1547 409 2034 409 
Q 2525 409 2770 889 
Q 3016 1369 3016 2328 
Q 3016 3291 2770 3770 
Q 2525 4250 2034 4250 
z
M 2034 4750 
Q 2819 4750 3233 4129 
Q 3647 3509 3647 2328 
Q 3647 1150 3233 529 
Q 2819 -91 2034 -91 
Q 1250 -91 836 529 
Q 422 1150 422 2328 
Q 422 3509 836 4129 
Q 1250 4750 2034 4750 
z
" transform="scale(0.015625)"/>
       </defs>
       <use xlink:href="#DejaVuSans-30"/>
      </g>
     </g>
    </g>
    <g id="xtick_2">
     <g id="line2d_3">
      <path d="M 97.941597 209.357969 
L 97.941597 23.077969 
" clip-path="url(#pfc3963f23a)" style="fill: none; stroke: #26263a; stroke-width: 0.7; stroke-linecap: square"/>
     </g>
     <g id="line2d_4">
      <g>
       <use xlink:href="#mfd6a6701a4" x="97.941597" y="209.357969" style="fill: #b8c8e0; stroke: #b8c8e0; stroke-width: 0.8"/>
      </g>
     </g>
     <g id="text_2">
      <!-- 10 -->
      <g style="fill: #b8c8e0" transform="translate(92.215347 223.196562) scale(0.09 -0.09)">
       <defs>
        <path id="DejaVuSans-31" d="M 794 531 
L 1825 531 
L 1825 4091 
L 703 3866 
L 703 4441 
L 1819 4666 
L 2450 4666 
L 2450 531 
L 3481 531 
L 3481 0 
L 794 0 
L 794 531 
z
" transform="scale(0.015625)"/>
       </defs>
       <use xlink:href="#DejaVuSans-31"/>
       <use xlink:href="#DejaVuSans-30" x="63.623047"/>
      </g>
     </g>
    </g>
    <g id="xtick_3">
     <g id="line2d_5">
      <path d="M 156.552569 209.357969 
L 156.552569 23.077969 
" clip-path="url(#pfc3963f23a)" style="fill: none; stroke: #26263a; stroke-width: 0.7; stroke-linecap: square"/>
     </g>
     <g id="line2d_6">
      <g>
       <use xlink:href="#mfd6a6701a4" x="156.552569" y="209.357969" style="fill: #b8c8e0; stroke: #b8c8e0; stroke-width: 0.8"/>
      </g>
     </g>
     <g id="text_3">
      <!-- 20 -->
      <g style="fill: #b8c8e0" transform="translate(150.826319 223.196562) scale(0.09 -0.09)">
       <defs>
        <path id="DejaVuSans-32" d="M 1228 531 
L 3431 531 
L 3431 0 
L 469 0 
L 469 531 
Q 828 903 1448 1529 
Q 2069 2156 2228 2338 
Q 2531 2678 2651 2914 
Q 2772 3150 2772 3378 
Q 2772 3750 2511 3984 
Q 2250 4219 1831 4219 
Q 1534 4219 1204 4116 
Q 875 4013 500 3803 
L 500 4441 
Q 881 4594 1212 4672 
Q 1544 4750 1819 4750 
Q 2544 4750 2975 4387 
Q 3406 4025 3406 3419 
Q 3406 3131 3298 2873 
Q 3191 2616 2906 2266 
Q 2828 2175 2409 1742 
Q 1991 1309 1228 531 
z
" transform="scale(0.015625)"/>
       </defs>
       <use xlink:href="#DejaVuSans-32"/>
       <use xlink:href="#DejaVuSans-30" x="63.623047"/>
      </g>
     </g>
    </g>
    <g id="xtick_4">
     <g id="line2d_7">
      <path d="M 215.163541 209.357969 
L 215.163541 23.077969 
" clip-path="url(#pfc3963f23a)" style="fill: none; stroke: #26263a; stroke-width: 0.7; stroke-linecap: square"/>
     </g>
     <g id="line2d_8">
      <g>
       <use xlink:href="#mfd6a6701a4" x="215.163541" y="209.357969" style="fill: #b8c8e0; stroke: #b8c8e0; stroke-width: 0.8"/>
      </g>
     </g>
     <g id="text_4">
      <!-- 30 -->
      <g style="fill: #b8c8e0" transform="translate(209.437291 223.196562) scale(0.09 -0.09)">
       <defs>
        <path id="DejaVuSans-33" d="M 2597 2516 
Q 3050 2419 3304 2112 
Q 3559 1806 3559 1356 
Q 3559 666 3084 287 
Q 2609 -91 1734 -91 
Q 1441 -91 1130 -33 
Q 819 25 488 141 
L 488 750 
Q 750 597 1062 519 
Q 1375 441 1716 441 
Q 2309 441 2620 675 
Q 2931 909 2931 1356 
Q 2931 1769 2642 2001 
Q 2353 2234 1838 2234 
L 1294 2234 
L 1294 2753 
L 1863 2753 
Q 2328 2753 2575 2939 
Q 2822 3125 2822 3475 
Q 2822 3834 2567 4026 
Q 2313 4219 1838 4219 
Q 1578 4219 1281 4162 
Q 984 4106 628 3988 
L 628 4550 
Q 988 4650 1302 4700 
Q 1616 4750 1894 4750 
Q 2613 4750 3031 4423 
Q 3450 4097 3450 3541 
Q 3450 3153 3228 2886 
Q 3006 2619 2597 2516 
z
" transform="scale(0.015625)"/>
       </defs>
       <use xlink:href="#DejaVuSans-33"/>
       <use xlink:href="#DejaVuSans-30" x="63.623047"/>
      </g>
     </g>
    </g>
    <g id="xtick_5">
     <g id="line2d_9">
      <path d="M 273.774514 209.357969 
L 273.774514 23.077969 
" clip-path="url(#pfc3963f23a)" style="fill: none; stroke: #26263a; stroke-width: 0.7; stroke-linecap: square"/>
     </g>
     <g id="line2d_10">
      <g>
       <use xlink:href="#mfd6a6701a4" x="273.774514" y="209.357969" style="fill: #b8c8e0; stroke: #b8c8e0; stroke-width: 0.8"/>
      </g>
     </g>
     <g id="text_5">
      <!-- 40 -->
      <g style="fill: #b8c8e0" transform="translate(268.048264 223.196562) scale(0.09 -0.09)">
       <defs>
        <path id="DejaVuSans-34" d="M 2419 4116 
L 825 1625 
L 2419 1625 
L 2419 4116 
z
M 2253 4666 
L 3047 4666 
L 3047 1625 
L 3713 1625 
L 3713 1100 
L 3047 1100 
L 3047 0 
L 2419 0 
L 2419 1100 
L 313 1100 
L 313 1709 
L 2253 4666 
z
" transform="scale(0.015625)"/>
       </defs>
       <use xlink:href="#DejaVuSans-34"/>
       <use xlink:href="#DejaVuSans-30" x="63.623047"/>
      </g>
     </g>
    </g>
    <g id="xtick_6">
     <g id="line2d_11">
      <path d="M 332.385486 209.357969 
L 332.385486 23.077969 
" clip-path="url(#pfc3963f23a)" style="fill: none; stroke: #26263a; stroke-width: 0.7; stroke-linecap: square"/>
     </g>
     <g id="line2d_12">
      <g>
       <use xlink:href="#mfd6a6701a4" x="332.385486" y="209.357969" style="fill: #b8c8e0; stroke: #b8c8e0; stroke-width: 0.8"/>
      </g>
     </g>
     <g id="text_6">
      <!-- 50 -->
      <g style="fill: #b8c8e0" transform="translate(326.659236 223.196562) scale(0.09 -0.09)">
       <defs>
        <path id="DejaVuSans-35" d="M 691 4666 
L 3169 4666 
L 3169 4134 
L 1269 4134 
L 1269 2991 
Q 1406 3038 1543 3061 
Q 1681 3084 1819 3084 
Q 2600 3084 3056 2656 
Q 3513 2228 3513 1497 
Q 3513 744 3044 326 
Q 2575 -91 1722 -91 
Q 1428 -91 1123 -41 
Q 819 9 494 109 
L 494 744 
Q 775 591 1075 516 
Q 1375 441 1709 441 
Q 2250 441 2565 725 
Q 2881 1009 2881 1497 
Q 2881 1984 2565 2268 
Q 2250 2553 1709 2553 
Q 1456 2553 1204 2497 
Q 953 2441 691 2322 
L 691 4666 
z
" transform="scale(0.015625)"/>
       </defs>
       <use xlink:href="#DejaVuSans-35"/>
       <use xlink:href="#DejaVuSans-30" x="63.623047"/>
      </g>
     </g>
    </g>
    <g id="text_7">
     <!-- Time (s) -->
     <g style="fill: #b8c8e0" transform="translate(194.746719 236.666719) scale(0.1 -0.1)">
      <defs>
       <path id="DejaVuSans-54" d="M -19 4666 
L 3928 4666 
L 3928 4134 
L 2272 4134 
L 2272 0 
L 1638 0 
L 1638 4134 
L -19 4134 
L -19 4666 
z
" transform="scale(0.015625)"/>
       <path id="DejaVuSans-69" d="M 603 3500 
L 1178 3500 
L 1178 0 
L 603 0 
L 603 3500 
z
M 603 4863 
L 1178 4863 
L 1178 4134 
L 603 4134 
L 603 4863 
z
" transform="scale(0.015625)"/>
       <path id="DejaVuSans-6d" d="M 3328 2828 
Q 3544 3216 3844 3400 
Q 4144 3584 4550 3584 
Q 5097 3584 5394 3201 
Q 5691 2819 5691 2113 
L 5691 0 
L 5113 0 
L 5113 2094 
Q 5113 2597 4934 2840 
Q 4756 3084 4391 3084 
Q 3944 3084 3684 2787 
Q 3425 2491 3425 1978 
L 3425 0 
L 2847 0 
L 2847 2094 
Q 2847 2600 2669 2842 
Q 2491 3084 2119 3084 
Q 1678 3084 1418 2786 
Q 1159 2488 1159 1978 
L 1159 0 
L 581 0 
L 581 3500 
L 1159 3500 
L 1159 2956 
Q 1356 3278 1631 3431 
Q 1906 3584 2284 3584 
Q 2666 3584 2933 3390 
Q 3200 3197 3328 2828 
z
" transform="scale(0.015625)"/>
       <path id="DejaVuSans-65" d="M 3597 1894 
L 3597 1613 
L 953 1613 
Q 991 1019 1311 708 
Q 1631 397 2203 397 
Q 2534 397 2845 478 
Q 3156 559 3463 722 
L 3463 178 
Q 3153 47 2828 -22 
Q 2503 -91 2169 -91 
Q 1331 -91 842 396 
Q 353 884 353 1716 
Q 353 2575 817 3079 
Q 1281 3584 2069 3584 
Q 2775 3584 3186 3129 
Q 3597 2675 3597 1894 
z
M 3022 2063 
Q 3016 2534 2758 2815 
Q 2500 3097 2075 3097 
Q 1594 3097 1305 2825 
Q 1016 2553 972 2059 
L 3022 2063 
z
" transform="scale(0.015625)"/>
       <path id="DejaVuSans-20" transform="scale(0.015625)"/>
       <path id="DejaVuSans-28" d="M 1984 4856 
Q 1566 4138 1362 3434 
Q 1159 2731 1159 2009 
Q 1159 1288 1364 580 
Q 1569 -128 1984 -844 
L 1484 -844 
Q 1016 -109 783 600 
Q 550 1309 550 2009 
Q 550 2706 781 3412 
Q 1013 4119 1484 4856 
L 1984 4856 
z
" transform="scale(0.015625)"/>
       <path id="DejaVuSans-73" d="M 2834 3397 
L 2834 2853 
Q 2591 2978 2328 3040 
Q 2066 3103 1784 3103 
Q 1356 3103 1142 2972 
Q 928 2841 928 2578 
Q 928 2378 1081 2264 
Q 1234 2150 1697 2047 
L 1894 2003 
Q 2506 1872 2764 1633 
Q 3022 1394 3022 966 
Q 3022 478 2636 193 
Q 2250 -91 1575 -91 
Q 1294 -91 989 -36 
Q 684 19 347 128 
L 347 722 
Q 666 556 975 473 
Q 1284 391 1588 391 
Q 1994 391 2212 530 
Q 2431 669 2431 922 
Q 2431 1156 2273 1281 
Q 2116 1406 1581 1522 
L 1381 1569 
Q 847 1681 609 1914 
Q 372 2147 372 2553 
Q 372 3047 722 3315 
Q 1072 3584 1716 3584 
Q 2034 3584 2315 3537 
Q 2597 3491 2834 3397 
z
" transform="scale(0.015625)"/>
       <path id="DejaVuSans-29" d="M 513 4856 
L 1013 4856 
Q 1481 4119 1714 3412 
Q 1947 2706 1947 2009 
Q 1947 1309 1714 600 
Q 1481 -109 1013 -844 
L 513 -844 
Q 928 -128 1133 580 
Q 1338 1288 1338 2009 
Q 1338 2731 1133 3434 
Q 928 4138 513 4856 
z
" transform="scale(0.015625)"/>
      </defs>
      <use xlink:href="#DejaVuSans-54"/>
      <use xlink:href="#DejaVuSans-69" x="57.958984"/>
      <use xlink:href="#DejaVuSans-6d" x="85.742188"/>
      <use xlink:href="#DejaVuSans-65" x="183.154297"/>
      <use xlink:href="#DejaVuSans-20" x="244.677734"/>
      <use xlink:href="#DejaVuSans-28" x="276.464844"/>
      <use xlink:href="#DejaVuSans-73" x="315.478516"/>
      <use xlink:href="#DejaVuSans-29" x="367.578125"/>
     </g>
    </g>
   </g>
   <g id="matplotlib.axis_2">
    <g id="ytick_1">
     <g id="line2d_13">
      <path d="M 39.330625 209.357969 
L 390.820625 209.357969 
" clip-path="url(#pfc3963f23a)" style="fill: none; stroke: #26263a; stroke-width: 0.7; stroke-linecap: square"/>
     </g>
     <g id="line2d_14">
      <defs>
       <path id="m16d924d42f" d="M 0 0 
L -3.5 0 
" style="stroke: #b8c8e0; stroke-width: 0.8"/>
      </defs>
      <g>
       <use xlink:href="#m16d924d42f" x="39.330625" y="209.357969" style="fill: #b8c8e0; stroke: #b8c8e0; stroke-width: 0.8"/>
      </g>
     </g>
     <g id="text_8">
      <!-- 0 -->
      <g style="fill: #b8c8e0" transform="translate(26.604375 212.777266) scale(0.09 -0.09)">
       <use xlink:href="#DejaVuSans-30"/>
      </g>
     </g>
    </g>
    <g id="ytick_2">
     <g id="line2d_15">
      <path d="M 39.330625 172.820379 
L 390.820625 172.820379 
" clip-path="url(#pfc3963f23a)" style="fill: none; stroke: #26263a; stroke-width: 0.7; stroke-linecap: square"/>
     </g>
     <g id="line2d_16">
      <g>
       <use xlink:href="#m16d924d42f" x="39.330625" y="172.820379" style="fill: #b8c8e0; stroke: #b8c8e0; stroke-width: 0.8"/>
      </g>
     </g>
     <g id="text_9">
      <!-- 5 -->
      <g style="fill: #b8c8e0" transform="translate(26.604375 176.239675) scale(0.09 -0.09)">
       <use xlink:href="#DejaVuSans-35"/>
      </g>
     </g>
    </g>
    <g id="ytick_3">
     <g id="line2d_17">
      <path d="M 39.330625 136.282788 
L 390.820625 136.282788 
" clip-path="url(#pfc3963f23a)" style="fill: none; stroke: #26263a; stroke-width: 0.7; stroke-linecap: square"/>
     </g>
     <g id="line2d_18">
      <g>
       <use xlink:href="#m16d924d42f" x="39.330625" y="136.282788" style="fill: #b8c8e0; stroke: #b8c8e0; stroke-width: 0.8"/>
      </g>
     </g>
     <g id="text_10">
      <!-- 10 -->
      <g style="fill: #b8c8e0" transform="translate(20.878125 139.702085) scale(0.09 -0.09)">
       <use xlink:href="#DejaVuSans-31"/>
       <use xlink:href="#DejaVuSans-30" x="63.623047"/>
      </g>
     </g>
    </g>
    <g id="ytick_4">
     <g id="line2d_19">
      <path d="M 39.330625 99.745198 
L 390.820625 99.745198 
" clip-path="url(#pfc3963f23a)" style="fill: none; stroke: #26263a; stroke-width: 0.7; stroke-linecap: square"/>
     </g>
     <g id="line2d_20">
      <g>
       <use xlink:href="#m16d924d42f" x="39.330625" y="99.745198" style="fill: #b8c8e0; stroke: #b8c8e0; stroke-width: 0.8"/>
      </g>
     </g>
     <g id="text_11">
      <!-- 15 -->
      <g style="fill: #b8c8e0" transform="translate(20.878125 103.164495) scale(0.09 -0.09)">
       <use xlink:href="#DejaVuSans-31"/>
       <use xlink:href="#DejaVuSans-35" x="63.623047"/>
      </g>
     </g>
    </g>
    <g id="ytick_5">
     <g id="line2d_21">
      <path d="M 39.330625 63.207608 
L 390.820625 63.207608 
" clip-path="url(#pfc3963f23a)" style="fill: none; stroke: #26263a; stroke-width: 0.7; stroke-linecap: square"/>
     </g>
     <g id="line2d_22">
      <g>
       <use xlink:href="#m16d924d42f" x="39.330625" y="63.207608" style="fill: #b8c8e0; stroke: #b8c8e0; stroke-width: 0.8"/>
      </g>
     </g>
     <g id="text_12">
      <!-- 20 -->
      <g style="fill: #b8c8e0" transform="translate(20.878125 66.626905) scale(0.09 -0.09)">
       <use xlink:href="#DejaVuSans-32"/>
       <use xlink:href="#DejaVuSans-30" x="63.623047"/>
      </g>
     </g>
    </g>
    <g id="ytick_6">
     <g id="line2d_23">
      <path d="M 39.330625 26.670018 
L 390.820625 26.670018 
" clip-path="url(#pfc3963f23a)" style="fill: none; stroke: #26263a; stroke-width: 0.7; stroke-linecap: square"/>
     </g>
     <g id="line2d_24">
      <g>
       <use xlink:href="#m16d924d42f" x="39.330625" y="26.670018" style="fill: #b8c8e0; stroke: #b8c8e0; stroke-width: 0.8"/>
      </g>
     </g>
     <g id="text_13">
      <!-- 25 -->
      <g style="fill: #b8c8e0" transform="translate(20.878125 30.089315) scale(0.09 -0.09)">
       <use xlink:href="#DejaVuSans-32"/>
       <use xlink:href="#DejaVuSans-35" x="63.623047"/>
      </g>
     </g>
    </g>
    <g id="text_14">
     <!-- Cumulative path (m) -->
     <g style="fill: #b8c8e0" transform="translate(14.798438 168.072656) rotate(-90) scale(0.1 -0.1)">
      <defs>
       <path id="DejaVuSans-43" d="M 4122 4306 
L 4122 3641 
Q 3803 3938 3442 4084 
Q 3081 4231 2675 4231 
Q 1875 4231 1450 3742 
Q 1025 3253 1025 2328 
Q 1025 1406 1450 917 
Q 1875 428 2675 428 
Q 3081 428 3442 575 
Q 3803 722 4122 1019 
L 4122 359 
Q 3791 134 3420 21 
Q 3050 -91 2638 -91 
Q 1578 -91 968 557 
Q 359 1206 359 2328 
Q 359 3453 968 4101 
Q 1578 4750 2638 4750 
Q 3056 4750 3426 4639 
Q 3797 4528 4122 4306 
z
" transform="scale(0.015625)"/>
       <path id="DejaVuSans-75" d="M 544 1381 
L 544 3500 
L 1119 3500 
L 1119 1403 
Q 1119 906 1312 657 
Q 1506 409 1894 409 
Q 2359 409 2629 706 
Q 2900 1003 2900 1516 
L 2900 3500 
L 3475 3500 
L 3475 0 
L 2900 0 
L 2900 538 
Q 2691 219 2414 64 
Q 2138 -91 1772 -91 
Q 1169 -91 856 284 
Q 544 659 544 1381 
z
M 1991 3584 
L 1991 3584 
z
" transform="scale(0.015625)"/>
       <path id="DejaVuSans-6c" d="M 603 4863 
L 1178 4863 
L 1178 0 
L 603 0 
L 603 4863 
z
" transform="scale(0.015625)"/>
       <path id="DejaVuSans-61" d="M 2194 1759 
Q 1497 1759 1228 1600 
Q 959 1441 959 1056 
Q 959 750 1161 570 
Q 1363 391 1709 391 
Q 2188 391 2477 730 
Q 2766 1069 2766 1631 
L 2766 1759 
L 2194 1759 
z
M 3341 1997 
L 3341 0 
L 2766 0 
L 2766 531 
Q 2569 213 2275 61 
Q 1981 -91 1556 -91 
Q 1019 -91 701 211 
Q 384 513 384 1019 
Q 384 1609 779 1909 
Q 1175 2209 1959 2209 
L 2766 2209 
L 2766 2266 
Q 2766 2663 2505 2880 
Q 2244 3097 1772 3097 
Q 1472 3097 1187 3025 
Q 903 2953 641 2809 
L 641 3341 
Q 956 3463 1253 3523 
Q 1550 3584 1831 3584 
Q 2591 3584 2966 3190 
Q 3341 2797 3341 1997 
z
" transform="scale(0.015625)"/>
       <path id="DejaVuSans-74" d="M 1172 4494 
L 1172 3500 
L 2356 3500 
L 2356 3053 
L 1172 3053 
L 1172 1153 
Q 1172 725 1289 603 
Q 1406 481 1766 481 
L 2356 481 
L 2356 0 
L 1766 0 
Q 1100 0 847 248 
Q 594 497 594 1153 
L 594 3053 
L 172 3053 
L 172 3500 
L 594 3500 
L 594 4494 
L 1172 4494 
z
" transform="scale(0.015625)"/>
       <path id="DejaVuSans-76" d="M 191 3500 
L 800 3500 
L 1894 563 
L 2988 3500 
L 3597 3500 
L 2284 0 
L 1503 0 
L 191 3500 
z
" transform="scale(0.015625)"/>
       <path id="DejaVuSans-70" d="M 1159 525 
L 1159 -1331 
L 581 -1331 
L 581 3500 
L 1159 3500 
L 1159 2969 
Q 1341 3281 1617 3432 
Q 1894 3584 2278 3584 
Q 2916 3584 3314 3078 
Q 3713 2572 3713 1747 
Q 3713 922 3314 415 
Q 2916 -91 2278 -91 
Q 1894 -91 1617 61 
Q 1341 213 1159 525 
z
M 3116 1747 
Q 3116 2381 2855 2742 
Q 2594 3103 2138 3103 
Q 1681 3103 1420 2742 
Q 1159 2381 1159 1747 
Q 1159 1113 1420 752 
Q 1681 391 2138 391 
Q 2594 391 2855 752 
Q 3116 1113 3116 1747 
z
" transform="scale(0.015625)"/>
       <path id="DejaVuSans-68" d="M 3513 2113 
L 3513 0 
L 2938 0 
L 2938 2094 
Q 2938 2591 2744 2837 
Q 2550 3084 2163 3084 
Q 1697 3084 1428 2787 
Q 1159 2491 1159 1978 
L 1159 0 
L 581 0 
L 581 4863 
L 1159 4863 
L 1159 2956 
Q 1366 3272 1645 3428 
Q 1925 3584 2291 3584 
Q 2894 3584 3203 3211 
Q 3513 2838 3513 2113 
z
" transform="scale(0.015625)"/>
      </defs>
      <use xlink:href="#DejaVuSans-43"/>
      <use xlink:href="#DejaVuSans-75" x="69.824219"/>
      <use xlink:href="#DejaVuSans-6d" x="133.203125"/>
      <use xlink:href="#DejaVuSans-75" x="230.615234"/>
      <use xlink:href="#DejaVuSans-6c" x="293.994141"/>
      <use xlink:href="#DejaVuSans-61" x="321.777344"/>
      <use xlink:href="#DejaVuSans-74" x="383.056641"/>
      <use xlink:href="#DejaVuSans-69" x="422.265625"/>
      <use xlink:href="#DejaVuSans-76" x="450.048828"/>
      <use xlink:href="#DejaVuSans-65" x="509.228516"/>
      <use xlink:href="#DejaVuSans-20" x="570.751953"/>
      <use xlink:href="#DejaVuSans-70" x="602.539062"/>
      <use xlink:href="#DejaVuSans-61" x="666.015625"/>
      <use xlink:href="#DejaVuSans-74" x="727.294922"/>
      <use xlink:href="#DejaVuSans-68" x="766.503906"/>
      <use xlink:href="#DejaVuSans-20" x="829.882812"/>
      <use xlink:href="#DejaVuSans-28" x="861.669922"/>
      <use xlink:href="#DejaVuSans-6d" x="900.683594"/>
      <use xlink:href="#DejaVuSans-29" x="998.095703"/>
     </g>
    </g>
   </g>
   <g id="line2d_25">
    <path d="M 39.330625 209.357969 
L 39.62368 209.087316 
L 46.094331 208.451546 
L 46.387386 208.241706 
L 48.43877 208.147413 
L 48.731825 208.00541 
L 52.248483 207.939705 
L 52.840454 207.844322 
L 59.873771 207.749021 
L 60.166826 207.076404 
L 60.758796 201.743892 
L 61.051851 199.976133 
L 61.643822 199.88228 
L 62.816042 199.851761 
L 63.109096 198.954291 
L 63.402151 198.954291 
L 63.701067 198.279141 
L 63.994122 196.735008 
L 64.586093 196.639275 
L 66.338561 196.567121 
L 66.643338 196.280649 
L 67.51078 196.212484 
L 69.568026 196.154579 
L 69.855219 195.939979 
L 70.751967 195.877579 
L 71.0333 195.447468 
L 71.320494 195.447468 
L 71.906603 192.623238 
L 72.492713 192.529857 
L 75.716317 192.455483 
L 76.032816 191.15625 
L 76.302426 189.275953 
L 76.595481 188.806995 
L 81.278498 188.260567 
L 81.577414 187.912788 
L 83.329882 187.866769 
L 83.628798 187.858975 
L 83.915992 187.710469 
L 84.214907 187.308446 
L 85.099933 187.267483 
L 85.392988 187.088307 
L 85.691904 186.3885 
L 85.984959 186.366454 
L 86.283875 186.193607 
L 86.57693 185.420417 
L 88.053926 185.30396 
L 88.34112 184.608208 
L 90.386643 184.562662 
L 90.685559 184.404964 
L 91.570584 184.385992 
L 91.863639 183.927 
L 92.150833 183.927 
L 92.736943 181.267358 
L 93.035859 181.025421 
L 94.506994 180.959737 
L 95.093104 180.953763 
L 95.97813 180.746054 
L 97.150349 180.717333 
L 97.437543 180.540936 
L 99.201733 180.388747 
L 99.494788 180.238604 
L 100.667007 180.19977 
L 100.960062 179.830672 
L 101.839227 179.766099 
L 102.138143 179.068051 
L 102.431198 179.068051 
L 102.718391 178.946269 
L 103.017307 177.922922 
L 103.902333 177.851635 
L 104.195388 177.24826 
L 108.016823 177.025833 
L 108.309878 176.593386 
L 109.775152 176.487492 
L 110.068207 175.519591 
L 110.654317 175.432379 
L 112.119591 175.400776 
L 112.412646 175.005399 
L 112.705701 174.203065 
L 113.87792 174.142989 
L 114.469891 174.137089 
L 114.762946 173.664883 
L 115.056001 173.664883 
L 115.343195 173.189089 
L 115.642111 171.844533 
L 115.935166 171.675471 
L 117.693495 171.617667 
L 117.98655 171.611163 
L 118.279604 171.479491 
L 118.572659 171.059596 
L 120.624043 170.857879 
L 120.922959 170.467859 
L 122.681288 170.41228 
L 125.043311 170.391569 
L 125.336366 170.128533 
L 126.244836 170.071164 
L 126.520307 170.068937 
L 126.813362 169.857962 
L 128.284497 169.755468 
L 130.054549 169.716469 
L 130.64652 169.594491 
L 135.054065 169.480672 
L 135.352981 169.324298 
L 138.8755 169.152227 
L 139.46161 169.123987 
L 139.754665 168.703689 
L 140.340774 168.583566 
L 140.633829 168.567581 
L 140.926884 168.28302 
L 144.156349 168.04506 
L 144.449404 167.771301 
L 146.799704 167.703327 
L 148.264978 167.683429 
L 148.856949 167.454642 
L 153.557549 167.247564 
L 154.137797 167.098293 
L 155.016962 167.074195 
L 155.315878 166.561047 
L 155.901988 162.633202 
L 156.195042 161.071983 
L 157.074207 160.972694 
L 158.252287 160.904802 
L 158.545342 159.907276 
L 159.131452 155.768016 
L 159.424507 155.097418 
L 159.717562 154.772193 
L 160.010617 153.924475 
L 161.188697 153.799605 
L 161.481752 153.558664 
L 162.366778 153.461873 
L 162.659833 152.948935 
L 163.245942 152.93613 
L 163.544858 152.509341 
L 163.832052 151.086372 
L 164.711217 150.99039 
L 165.883436 150.943658 
L 166.176491 150.752228 
L 167.055656 150.706829 
L 167.354571 150.505562 
L 167.641765 149.077 
L 168.233736 148.726496 
L 168.52093 147.242035 
L 169.10704 147.065851 
L 169.693149 147.051081 
L 169.992065 144.345773 
L 173.209808 143.676136 
L 173.795917 143.049553 
L 175.284636 143.010612 
L 175.554246 142.281223 
L 175.853162 141.915667 
L 176.738188 141.875551 
L 177.037104 141.593785 
L 177.623214 141.539186 
L 177.92213 141.137059 
L 178.209324 141.137059 
L 178.818878 137.815409 
L 179.094349 137.547418 
L 180.852678 137.384783 
L 181.151594 136.929853 
L 182.317953 136.871197 
L 182.611008 136.563136 
L 184.088004 136.544894 
L 184.375198 135.825781 
L 184.668253 135.425078 
L 186.133527 135.358387 
L 186.426582 135.353321 
L 186.725498 135.162858 
L 187.018553 134.471687 
L 188.196633 134.45551 
L 188.483827 133.843281 
L 188.782743 133.508879 
L 189.081659 133.46683 
L 189.374714 133.307856 
L 189.67363 132.263704 
L 190.839988 132.206082 
L 191.725014 132.12864 
L 192.305262 132.049351 
L 192.891372 132.043102 
L 193.184427 131.611888 
L 193.500926 131.611888 
L 194.063591 128.029367 
L 194.362507 127.528837 
L 196.132559 127.475343 
L 197.890888 127.43887 
L 198.189804 127.151182 
L 198.476998 126.588015 
L 199.362023 126.524694 
L 199.655078 125.841197 
L 200.540104 125.763894 
L 203.505819 125.647777 
L 204.068484 125.547685 
L 206.711839 125.383179 
L 207.30381 125.195047 
L 208.177114 125.12085 
L 208.47603 123.27172 
L 208.769084 123.27172 
L 209.361055 121.191462 
L 211.119384 121.127885 
L 215.515207 121.078045 
L 215.814123 120.506823 
L 216.107178 120.194518 
L 218.445756 120.060077 
L 219.916891 120.01332 
L 220.215807 119.786086 
L 220.508862 119.290743 
L 221.388027 119.238253 
L 221.686943 118.910538 
L 221.979998 118.211181 
L 223.468716 118.154199 
L 227.278429 118.061736 
L 227.858678 117.973324 
L 230.203117 117.897068 
L 230.502033 117.22029 
L 230.795088 117.22029 
L 231.381197 111.371754 
L 231.674252 110.42116 
L 232.266223 110.326026 
L 238.426236 110.200227 
L 238.719291 110.16421 
L 239.012346 109.695433 
L 239.891511 109.624982 
L 240.483481 109.619535 
L 240.776536 109.422643 
L 241.655701 109.337389 
L 242.82792 109.323252 
L 243.126836 108.901907 
L 244.586249 108.851097 
L 245.76433 108.835769 
L 246.057385 108.242679 
L 246.356301 108.242679 
L 246.649356 107.011705 
L 246.942411 105.075291 
L 248.11463 104.986775 
L 249.884681 104.892776 
L 250.470791 104.604466 
L 254.286365 104.414583 
L 254.872475 101.72077 
L 255.16553 101.56439 
L 261.624459 101.341187 
L 261.917514 100.978767 
L 262.497763 95.893643 
L 262.796679 94.747449 
L 265.146979 94.613396 
L 272.783988 94.191883 
L 273.375959 93.994093 
L 277.197394 93.877575 
L 277.49631 93.521703 
L 277.783504 93.521096 
L 278.076559 93.179992 
L 278.375475 90.941246 
L 278.66853 90.941246 
L 278.961585 90.021679 
L 279.25464 88.441454 
L 280.139665 88.357698 
L 280.43272 88.340801 
L 280.725775 87.522992 
L 281.01883 87.0469 
L 281.915578 86.848501 
L 282.191049 86.718869 
L 283.363269 86.662352 
L 283.679768 86.502821 
L 283.949378 86.21052 
L 284.840265 86.172165 
L 285.713569 85.702227 
L 286.006623 85.699274 
L 286.592733 85.34641 
L 288.063869 85.305492 
L 288.649978 84.842241 
L 289.535004 84.732998 
L 289.828059 83.545759 
L 290.121114 83.103777 
L 291.293333 82.862316 
L 291.592249 81.663089 
L 292.471414 81.575985 
L 293.051662 81.561921 
L 293.930827 81.290868 
L 294.223882 81.285053 
L 294.516937 80.96309 
L 294.809992 80.042765 
L 296.574182 79.940347 
L 296.867237 78.398229 
L 297.166153 77.875346 
L 298.045317 77.758956 
L 298.338372 76.068436 
L 298.637288 75.356176 
L 299.217537 75.259955 
L 300.102562 75.16045 
L 300.395617 74.98281 
L 303.332027 74.913369 
L 305.389272 74.879434 
L 305.676466 74.6562 
L 305.969521 73.062652 
L 306.268437 72.846079 
L 308.612875 72.669999 
L 308.90593 72.651668 
L 309.204846 72.501963 
L 310.377066 72.466485 
L 310.670121 72.026262 
L 311.848201 71.980024 
L 312.141256 71.973981 
L 312.733227 71.721247 
L 313.899585 71.694391 
L 314.19264 71.476943 
L 315.376582 71.418824 
L 315.663775 70.796308 
L 315.95683 70.796308 
L 316.255746 69.834076 
L 316.54294 68.456916 
L 316.835995 68.157779 
L 317.422105 68.023462 
L 317.715159 67.901867 
L 318.600185 67.8894 
L 319.192156 67.709093 
L 320.071321 67.693113 
L 320.680875 67.491039 
L 321.542456 67.45069 
L 321.82965 66.164893 
L 322.122705 66.164893 
L 322.714675 63.562231 
L 323.00773 63.246721 
L 328.007246 63.083232 
L 328.300301 62.227249 
L 331.242572 61.829177 
L 332.420652 61.817163 
L 333.293956 61.396802 
L 334.472036 61.366903 
L 334.75923 61.055916 
L 336.822336 60.959725 
L 337.115391 60.951603 
L 337.69564 59.311282 
L 338.574804 59.229171 
L 338.87372 59.224763 
L 339.166775 58.960677 
L 340.04594 58.908565 
L 340.63205 56.575143 
L 340.919243 54.886522 
L 341.511214 54.719206 
L 342.390379 54.702714 
L 342.683434 54.45569 
L 342.976488 54.023113 
L 345.033734 53.816827 
L 345.33265 52.918944 
L 345.912898 52.798995 
L 346.504869 52.786238 
L 347.378172 52.332631 
L 347.677088 52.33182 
L 348.257337 51.940695 
L 349.148224 51.771379 
L 349.441279 51.454633 
L 349.728472 51.428962 
L 350.320443 50.515359 
L 351.498524 50.460867 
L 351.791579 50.457622 
L 352.377688 50.269135 
L 352.957937 50.247176 
L 353.549908 49.441104 
L 354.727988 49.375551 
L 355.021043 49.153168 
L 355.900208 49.140651 
L 356.486318 48.597379 
L 358.250508 48.540592 
L 360.893863 48.499298 
L 361.186917 48.23454 
L 361.767166 48.154019 
L 364.416382 48.116319 
L 364.996631 47.884273 
L 367.352792 47.765803 
L 367.938901 45.481289 
L 371.162505 45.292922 
L 372.035808 45.223644 
L 372.920834 45.204091 
L 373.80586 39.709193 
L 374.093054 38.662281 
L 375.558328 38.584684 
L 381.419425 38.500265 
L 382.005535 38.408293 
L 382.304451 38.403132 
L 382.89056 37.736504 
L 386.407219 37.66173 
L 386.700274 37.439989 
L 387.016773 35.447186 
L 387.292244 34.685108 
L 387.878354 32.065427 
L 389.34949 32.002518 
L 390.820625 31.948445 
L 390.820625 31.948445 
" clip-path="url(#pfc3963f23a)" style="fill: none; stroke: #9bbcff; stroke-width: 2; stroke-linecap: square"/>
   </g>
   <g id="patch_3">
    <path d="M 39.330625 209.357969 
L 39.330625 23.077969 
" style="fill: none; stroke: #2d2d4a; stroke-width: 0.8; stroke-linejoin: miter; stroke-linecap: square"/>
   </g>
   <g id="patch_4">
    <path d="M 390.820625 209.357969 
L 390.820625 23.077969 
" style="fill: none; stroke: #2d2d4a; stroke-width: 0.8; stroke-linejoin: miter; stroke-linecap: square"/>
   </g>
   <g id="patch_5">
    <path d="M 39.330625 209.357969 
L 390.820625 209.357969 
" style="fill: none; stroke: #2d2d4a; stroke-width: 0.8; stroke-linejoin: miter; stroke-linecap: square"/>
   </g>
   <g id="patch_6">
    <path d="M 39.330625 23.077969 
L 390.820625 23.077969 
" style="fill: none; stroke: #2d2d4a; stroke-width: 0.8; stroke-linejoin: miter; stroke-linecap: square"/>
   </g>
   <g id="text_15">
    <!-- Gaze movement -->
    <g style="fill: #b8c8e0" transform="translate(156.098281 17.077969) scale(0.13 -0.13)">
     <defs>
      <path id="DejaVuSans-Bold-47" d="M 4781 347 
Q 4331 128 3847 18 
Q 3363 -91 2847 -91 
Q 1681 -91 1000 561 
Q 319 1213 319 2328 
Q 319 3456 1012 4103 
Q 1706 4750 2913 4750 
Q 3378 4750 3804 4662 
Q 4231 4575 4609 4403 
L 4609 3438 
Q 4219 3659 3833 3768 
Q 3447 3878 3059 3878 
Q 2341 3878 1952 3476 
Q 1563 3075 1563 2328 
Q 1563 1588 1938 1184 
Q 2313 781 3003 781 
Q 3191 781 3352 804 
Q 3513 828 3641 878 
L 3641 1784 
L 2906 1784 
L 2906 2591 
L 4781 2591 
L 4781 347 
z
" transform="scale(0.015625)"/>
      <path id="DejaVuSans-Bold-61" d="M 2106 1575 
Q 1756 1575 1579 1456 
Q 1403 1338 1403 1106 
Q 1403 894 1545 773 
Q 1688 653 1941 653 
Q 2256 653 2472 879 
Q 2688 1106 2688 1447 
L 2688 1575 
L 2106 1575 
z
M 3816 1997 
L 3816 0 
L 2688 0 
L 2688 519 
Q 2463 200 2181 54 
Q 1900 -91 1497 -91 
Q 953 -91 614 226 
Q 275 544 275 1050 
Q 275 1666 698 1953 
Q 1122 2241 2028 2241 
L 2688 2241 
L 2688 2328 
Q 2688 2594 2478 2717 
Q 2269 2841 1825 2841 
Q 1466 2841 1156 2769 
Q 847 2697 581 2553 
L 581 3406 
Q 941 3494 1303 3539 
Q 1666 3584 2028 3584 
Q 2975 3584 3395 3211 
Q 3816 2838 3816 1997 
z
" transform="scale(0.015625)"/>
      <path id="DejaVuSans-Bold-7a" d="M 366 3500 
L 3419 3500 
L 3419 2719 
L 1575 800 
L 3419 800 
L 3419 0 
L 288 0 
L 288 781 
L 2131 2700 
L 366 2700 
L 366 3500 
z
" transform="scale(0.015625)"/>
      <path id="DejaVuSans-Bold-65" d="M 4031 1759 
L 4031 1441 
L 1416 1441 
Q 1456 1047 1700 850 
Q 1944 653 2381 653 
Q 2734 653 3104 758 
Q 3475 863 3866 1075 
L 3866 213 
Q 3469 63 3072 -14 
Q 2675 -91 2278 -91 
Q 1328 -91 801 392 
Q 275 875 275 1747 
Q 275 2603 792 3093 
Q 1309 3584 2216 3584 
Q 3041 3584 3536 3087 
Q 4031 2591 4031 1759 
z
M 2881 2131 
Q 2881 2450 2695 2645 
Q 2509 2841 2209 2841 
Q 1884 2841 1681 2658 
Q 1478 2475 1428 2131 
L 2881 2131 
z
" transform="scale(0.015625)"/>
      <path id="DejaVuSans-Bold-20" transform="scale(0.015625)"/>
      <path id="DejaVuSans-Bold-6d" d="M 3781 2919 
Q 3994 3244 4286 3414 
Q 4578 3584 4928 3584 
Q 5531 3584 5847 3212 
Q 6163 2841 6163 2131 
L 6163 0 
L 5038 0 
L 5038 1825 
Q 5041 1866 5042 1909 
Q 5044 1953 5044 2034 
Q 5044 2406 4934 2573 
Q 4825 2741 4581 2741 
Q 4263 2741 4089 2478 
Q 3916 2216 3909 1719 
L 3909 0 
L 2784 0 
L 2784 1825 
Q 2784 2406 2684 2573 
Q 2584 2741 2328 2741 
Q 2006 2741 1831 2477 
Q 1656 2213 1656 1722 
L 1656 0 
L 531 0 
L 531 3500 
L 1656 3500 
L 1656 2988 
Q 1863 3284 2130 3434 
Q 2397 3584 2719 3584 
Q 3081 3584 3359 3409 
Q 3638 3234 3781 2919 
z
" transform="scale(0.015625)"/>
      <path id="DejaVuSans-Bold-6f" d="M 2203 2784 
Q 1831 2784 1636 2517 
Q 1441 2250 1441 1747 
Q 1441 1244 1636 976 
Q 1831 709 2203 709 
Q 2569 709 2762 976 
Q 2956 1244 2956 1747 
Q 2956 2250 2762 2517 
Q 2569 2784 2203 2784 
z
M 2203 3584 
Q 3106 3584 3614 3096 
Q 4122 2609 4122 1747 
Q 4122 884 3614 396 
Q 3106 -91 2203 -91 
Q 1297 -91 786 396 
Q 275 884 275 1747 
Q 275 2609 786 3096 
Q 1297 3584 2203 3584 
z
" transform="scale(0.015625)"/>
      <path id="DejaVuSans-Bold-76" d="M 97 3500 
L 1216 3500 
L 2088 1081 
L 2956 3500 
L 4078 3500 
L 2700 0 
L 1472 0 
L 97 3500 
z
" transform="scale(0.015625)"/>
      <path id="DejaVuSans-Bold-6e" d="M 4056 2131 
L 4056 0 
L 2931 0 
L 2931 347 
L 2931 1631 
Q 2931 2084 2911 2256 
Q 2891 2428 2841 2509 
Q 2775 2619 2662 2680 
Q 2550 2741 2406 2741 
Q 2056 2741 1856 2470 
Q 1656 2200 1656 1722 
L 1656 0 
L 538 0 
L 538 3500 
L 1656 3500 
L 1656 2988 
Q 1909 3294 2193 3439 
Q 2478 3584 2822 3584 
Q 3428 3584 3742 3212 
Q 4056 2841 4056 2131 
z
" transform="scale(0.015625)"/>
      <path id="DejaVuSans-Bold-74" d="M 1759 4494 
L 1759 3500 
L 2913 3500 
L 2913 2700 
L 1759 2700 
L 1759 1216 
Q 1759 972 1856 886 
Q 1953 800 2241 800 
L 2816 800 
L 2816 0 
L 1856 0 
Q 1194 0 917 276 
Q 641 553 641 1216 
L 641 2700 
L 84 2700 
L 84 3500 
L 641 3500 
L 641 4494 
L 1759 4494 
z
" transform="scale(0.015625)"/>
     </defs>
     <use xlink:href="#DejaVuSans-Bold-47"/>
     <use xlink:href="#DejaVuSans-Bold-61" x="82.080078"/>
     <use xlink:href="#DejaVuSans-Bold-7a" x="149.560547"/>
     <use xlink:href="#DejaVuSans-Bold-65" x="207.763672"/>
     <use xlink:href="#DejaVuSans-Bold-20" x="275.585938"/>
     <use xlink:href="#DejaVuSans-Bold-6d" x="310.400391"/>
     <use xlink:href="#DejaVuSans-Bold-6f" x="414.599609"/>
     <use xlink:href="#DejaVuSans-Bold-76" x="483.300781"/>
     <use xlink:href="#DejaVuSans-Bold-65" x="548.486328"/>
     <use xlink:href="#DejaVuSans-Bold-6d" x="616.308594"/>
     <use xlink:href="#DejaVuSans-Bold-65" x="720.507812"/>
     <use xlink:href="#DejaVuSans-Bold-6e" x="788.330078"/>
     <use xlink:href="#DejaVuSans-Bold-74" x="859.521484"/>
    </g>
   </g>
  </g>
 </g>
 <defs>
  <clipPath id="pfc3963f23a">
   <rect x="39.330625" y="23.077969" width="351.49" height="186.28"/>
  </clipPath>
 </defs>
</svg>
